<?xml version="1.0" encoding="UTF-8"?>
<svg version="1.1" xmlns="http://www.w3.org/2000/svg" width="100" height="100">
<path d="M0 0 C0.495 2.97 0.495 2.97 1 6 C1.66 6 2.32 6 3 6 C3.144375 5.360625 3.28875 4.72125 3.4375 4.0625 C4 2 4 2 5 1 C6.9609375 0.796875 6.9609375 0.796875 9.375 0.75 C10.16648438 0.72421875 10.95796875 0.6984375 11.7734375 0.671875 C14.49778182 1.07335732 15.36347004 1.82499889 17 4 C17 4.66 17 5.32 17 6 C18.093125 6 19.18625 6 20.3125 6 C27 6 27 6 30 7 C30.12375 8.11375 30.2475 9.2275 30.375 10.375 C30.6465813 14.03103677 30.6465813 14.03103677 33 16 C32.828125 18.12890625 32.828125 18.12890625 32.25 20.5625 C31.97929687 21.77099609 31.97929687 21.77099609 31.703125 23.00390625 C31 25 31 25 29 26 C28.505 27.485 28.505 27.485 28 29 C27.01 29 26.02 29 25 29 C24.505 25.535 24.505 25.535 24 22 C23.505 23.485 23.505 23.485 23 25 C22.37351562 24.98839844 21.74703125 24.97679688 21.1015625 24.96484375 C19.87566406 24.95130859 19.87566406 24.95130859 18.625 24.9375 C17.40683594 24.92009766 17.40683594 24.92009766 16.1640625 24.90234375 C13.95062858 24.85533666 13.95062858 24.85533666 12 26 C12 25.34 12 24.68 12 24 C9.69 24.33 7.38 24.66 5 25 C5.5775 25.38671875 6.155 25.7734375 6.75 26.171875 C7.4925 26.69265625 8.235 27.2134375 9 27.75 C9.7425 28.26046875 10.485 28.7709375 11.25 29.296875 C11.8275 29.85890625 12.405 30.4209375 13 31 C13 32.32 13 33.64 13 35 C13.66 33.68 14.32 32.36 15 31 C15.66 31 16.32 31 17 31 C17 32.32 17 33.64 17 35 C17.9590625 35.61875 17.9590625 35.61875 18.9375 36.25 C21.58475365 38.49615461 21.88860401 40.53026104 22.18359375 43.92578125 C21.87311028 47.43358389 20.20830423 49.3232676 18 52 C19.65 52.66 21.3 53.32 23 54 C23 53.34 23 52.68 23 52 C23.66 52 24.32 52 25 52 C25.33 52.66 25.66 53.32 26 54 C26.66 54 27.32 54 28 54 C27.67 55.98 27.34 57.96 27 60 C27.66 60 28.32 60 29 60 C30.2423696 63.58906773 29.71978657 66.32109087 29 70 C29 70.66 29 71.32 29 72 C28.34 72.66 27.68 73.32 27 74 C27 74.66 27 75.32 27 76 C25.125 76.625 25.125 76.625 23 77 C22.34 76.34 21.68 75.68 21 75 C20.61255615 75.42821045 20.2251123 75.8564209 19.82592773 76.29760742 C18.03662838 78.26724644 16.23718942 80.22735195 14.4375 82.1875 C13.82841797 82.86103516 13.21933594 83.53457031 12.59179688 84.22851562 C2.88281651 94.75942026 2.88281651 94.75942026 -3.22973633 95.26953125 C-7.34140867 94.97559314 -10.92640376 94.02239151 -14.796875 92.69921875 C-15.51232483 92.46217728 -16.22777466 92.2251358 -16.96490479 91.98091125 C-18.46578263 91.48074506 -19.96493979 90.97538824 -21.46240234 90.46508789 C-23.75282106 89.68654108 -26.04949635 88.92917597 -28.34765625 88.17382812 C-29.81031387 87.68353701 -31.27256863 87.19204208 -32.734375 86.69921875 C-33.41876648 86.47409103 -34.10315796 86.24896332 -34.80828857 86.01701355 C-40.90849957 83.91302922 -40.90849957 83.91302922 -43 81 C-43.9375 77.6875 -43.9375 77.6875 -44 74 C-42.1875 70.9375 -42.1875 70.9375 -40 68 C-39.59587891 66.57494141 -39.59587891 66.57494141 -39.18359375 65.12109375 C-37.74759046 61.33440522 -35.94673932 59.72416404 -32.875 57.125 C-31.50988281 55.95324219 -31.50988281 55.95324219 -30.1171875 54.7578125 C-29.06917969 53.88769531 -29.06917969 53.88769531 -28 53 C-29.485 52.505 -29.485 52.505 -31 52 C-30.67 51.01 -30.34 50.02 -30 49 C-27.4375 47.8125 -27.4375 47.8125 -25 47 C-25.14179688 45.90300781 -25.28359375 44.80601563 -25.4296875 43.67578125 C-25.57980412 42.22152652 -25.72814864 40.76708809 -25.875 39.3125 C-26.02195312 38.2306543 -26.02195312 38.2306543 -26.171875 37.12695312 C-26.65763091 31.80792587 -26.65763091 31.80792587 -24.66894531 29.36474609 C-23.0078125 27.98046875 -23.0078125 27.98046875 -20 26 C-23.63 26.33 -27.26 26.66 -31 27 C-30.67 28.32 -30.34 29.64 -30 31 C-30.66 31 -31.32 31 -32 31 C-32.33 30.34 -32.66 29.68 -33 29 C-33.33 29.99 -33.66 30.98 -34 32 C-34.66 32 -35.32 32 -36 32 C-36 33.32 -36 34.64 -36 36 C-36.99 36 -37.98 36 -39 36 C-39.09796875 35.1028125 -39.1959375 34.205625 -39.296875 33.28125 C-40.24583843 25.36231383 -41.6278379 17.79491921 -43.76660156 10.10546875 C-45.09953793 5.19907587 -45.09953793 5.19907587 -44 3 C-42.35 3.33 -40.7 3.66 -39 4 C-38.67 5.65 -38.34 7.3 -38 9 C-36.68 9 -35.36 9 -34 9 C-34 7.02 -34 5.04 -34 3 C-32.35 2.67 -30.7 2.34 -29 2 C-28.67 3.65 -28.34 5.3 -28 7 C-27.34 7 -26.68 7 -26 7 C-25.67 5.35 -25.34 3.7 -25 2 C-23.68 2.33 -22.36 2.66 -21 3 C-20.67 4.32 -20.34 5.64 -20 7 C-17.9754262 5.06745228 -16.57894208 3.36841312 -15 1 C-13.68 1.66 -12.36 2.32 -11 3 C-10.34 2.34 -9.68 1.68 -9 1 C-5.84308184 0.16923206 -3.30300113 0 0 0 Z M19 19 C19 19.99 19 20.98 19 22 C19.99 21.67 20.98 21.34 22 21 C21.01 20.34 20.02 19.68 19 19 Z M-3 20 C-3 20.66 -3 21.32 -3 22 C-3.78375 21.835 -4.5675 21.67 -5.375 21.5 C-7.88208039 20.9376293 -7.88208039 20.9376293 -10 21 C-10.99 21 -11.98 21 -13 21 C-13.33 22.32 -13.66 23.64 -14 25 C-8.06 24.505 -8.06 24.505 -2 24 C-2.33 22.68 -2.66 21.36 -3 20 Z M12 42 C11.67 42.99 11.34 43.98 11 45 C11.66 45.66 12.32 46.32 13 47 C13.66 45.68 14.32 44.36 15 43 C14.01 42.67 13.02 42.34 12 42 Z M-24 48 C-24 51 -24 51 -24 51 Z M-27 51 C-26.67 51.66 -26.34 52.32 -26 53 C-25.67 52.34 -25.34 51.68 -25 51 C-25.66 51 -26.32 51 -27 51 Z M27 62 C28 64 28 64 28 64 Z M26 68 C25.67 68.99 25.34 69.98 25 71 C25.66 71 26.32 71 27 71 C26.67 70.01 26.34 69.02 26 68 Z M24 71 C23.67 71.66 23.34 72.32 23 73 C23.66 73 24.32 73 25 73 C24.67 72.34 24.34 71.68 24 71 Z " fill="#141513" transform="translate(56,3)"/>
<path d="M0 0 C1.5625 1.1875 1.5625 1.1875 2.375 3.6875 C2.5625 6.1875 2.5625 6.1875 1.5625 8.1875 C1.3565385 9.91242753 1.1962837 11.64297891 1.0625 13.375 C0.70559274 17.68054791 0.22641117 21.91949961 -0.4375 26.1875 C0.5525 25.8575 1.5425 25.5275 2.5625 25.1875 C7.39355392 24.91404412 11.05552254 25.42867953 15.5625 27.1875 C15.05372941 31.32932257 14.02099193 33.2129538 11 36.0625 C10.28585938 36.74183594 9.57171875 37.42117187 8.8359375 38.12109375 C5.96459135 40.73095992 3.07217756 43.31127994 0.12890625 45.83984375 C-0.74998398 46.59599619 -1.61767851 47.36767851 -2.4375 48.1875 C-9.63057741 47.76394823 -16.03518542 45.99762888 -22.875 43.8125 C-24.83198553 43.20037464 -26.78901642 42.58839429 -28.74609375 41.9765625 C-29.6882373 41.67911133 -30.63038086 41.38166016 -31.60107422 41.07519531 C-35.86808579 39.73978009 -40.15140288 38.46010951 -44.4375 37.1875 C-44.4375 35.8675 -44.4375 34.5475 -44.4375 33.1875 C-42.34497066 31.24233188 -40.35791047 29.60336751 -38.0625 27.9375 C-37.45921875 27.47859375 -36.8559375 27.0196875 -36.234375 26.546875 C-31.73521205 23.1875 -31.73521205 23.1875 -29.4375 23.1875 C-29.77974609 21.54201172 -29.77974609 21.54201172 -30.12890625 19.86328125 C-30.41977165 18.40895424 -30.71010843 16.95452144 -31 15.5 C-31.15146484 14.77876953 -31.30292969 14.05753906 -31.45898438 13.31445312 C-32.24332436 9.31979135 -32.70366297 6.16474134 -31.4375 2.1875 C-24.9743671 -6.99695202 -8.81106269 -2.9370209 0 0 Z " fill="#7C786D" transform="translate(64.4375,31.8125)"/>
<path d="M0 0 C0.7734375 0.27457031 1.546875 0.54914062 2.34375 0.83203125 C3.1171875 1.09371094 3.890625 1.35539062 4.6875 1.625 C6.9980648 2.71749532 8.31749317 3.5948466 9.84375 5.64453125 C9.84375 6.96453125 9.84375 8.28453125 9.84375 9.64453125 C10.50375 8.32453125 11.16375 7.00453125 11.84375 5.64453125 C12.50375 5.64453125 13.16375 5.64453125 13.84375 5.64453125 C13.84375 6.96453125 13.84375 8.28453125 13.84375 9.64453125 C14.483125 10.05703125 15.1225 10.46953125 15.78125 10.89453125 C18.42850365 13.14068586 18.73235401 15.17479229 19.02734375 18.5703125 C18.71686028 22.07811514 17.05205423 23.96779885 14.84375 26.64453125 C17.31875 27.63453125 17.31875 27.63453125 19.84375 28.64453125 C19.84375 27.98453125 19.84375 27.32453125 19.84375 26.64453125 C20.50375 26.64453125 21.16375 26.64453125 21.84375 26.64453125 C22.33875 27.63453125 22.33875 27.63453125 22.84375 28.64453125 C23.50375 28.64453125 24.16375 28.64453125 24.84375 28.64453125 C24.51375 30.62453125 24.18375 32.60453125 23.84375 34.64453125 C24.50375 34.64453125 25.16375 34.64453125 25.84375 34.64453125 C27.0861196 38.23359898 26.56353657 40.96562212 25.84375 44.64453125 C25.84375 45.30453125 25.84375 45.96453125 25.84375 46.64453125 C24.85375 47.63453125 24.85375 47.63453125 23.84375 48.64453125 C23.84375 49.30453125 23.84375 49.96453125 23.84375 50.64453125 C22.52375 50.97453125 21.20375 51.30453125 19.84375 51.64453125 C19.34875 49.66453125 19.34875 49.66453125 18.84375 47.64453125 C14.09987132 49.57722256 11.1222573 53.25321448 7.71875 56.95703125 C5.84375 58.64453125 5.84375 58.64453125 2.84375 58.64453125 C2.76125 59.22203125 2.67875 59.79953125 2.59375 60.39453125 C1.57910708 63.43846 0.39679708 64.69615322 -2.15625 66.64453125 C-8.18121376 68.41657941 -12.54971792 66.89477201 -18.15625 64.64453125 C-18.15625 63.65453125 -18.15625 62.66453125 -18.15625 61.64453125 C-18.90310059 61.41266113 -19.64995117 61.18079102 -20.41943359 60.94189453 C-23.79208043 59.89086411 -27.16166265 58.83032727 -30.53125 57.76953125 C-31.706875 57.40472656 -32.8825 57.03992188 -34.09375 56.6640625 C-35.21523438 56.30957031 -36.33671875 55.95507812 -37.4921875 55.58984375 C-38.52907715 55.26516113 -39.5659668 54.94047852 -40.63427734 54.60595703 C-43.15625 53.64453125 -43.15625 53.64453125 -45.15625 51.64453125 C-44.88933748 47.77429965 -42.53479556 45.54338365 -40.15625 42.64453125 C-39.82625 41.65453125 -39.49625 40.66453125 -39.15625 39.64453125 C-38.23328125 39.93585938 -37.3103125 40.2271875 -36.359375 40.52734375 C-32.79155914 41.65057941 -29.22006463 42.7617253 -25.64746094 43.86962891 C-23.94148518 44.40028032 -22.23644888 44.93395881 -20.53222656 45.47021484 C-17.86773158 46.30741955 -15.19988788 47.1331399 -12.53125 47.95703125 C-11.69110352 48.22338379 -10.85095703 48.48973633 -9.98535156 48.76416016 C-5.64645592 50.09162863 -1.73661168 51.27160457 2.84375 50.64453125 C4.75619975 49.41702211 4.75619975 49.41702211 6.21875 47.58203125 C9.33933649 44.16259127 12.63374314 41.13917368 16.14453125 38.125 C18.94526289 35.68482232 20.11611125 34.282725 20.84375 30.64453125 C18.7611633 30.44891256 16.67763144 30.26333812 14.59375 30.08203125 C13.43359375 29.97761719 12.2734375 29.87320313 11.078125 29.765625 C8.32503523 29.66255038 6.423768 29.78239652 3.84375 30.64453125 C3.988125 29.57203125 4.1325 28.49953125 4.28125 27.39453125 C4.87209143 22.73437348 5.22270456 18.06322909 5.5625 13.37890625 C5.8045329 11.0258086 6.23911683 8.92198286 6.84375 6.64453125 C6.84375 5.98453125 6.84375 5.32453125 6.84375 4.64453125 C0.90375 3.15953125 0.90375 3.15953125 -5.15625 1.64453125 C-2.15625 -0.35546875 -2.15625 -0.35546875 0 0 Z M8.84375 16.64453125 C8.51375 17.63453125 8.18375 18.62453125 7.84375 19.64453125 C8.50375 20.30453125 9.16375 20.96453125 9.84375 21.64453125 C10.50375 20.32453125 11.16375 19.00453125 11.84375 17.64453125 C10.85375 17.31453125 9.86375 16.98453125 8.84375 16.64453125 Z M23.84375 36.64453125 C24.84375 38.64453125 24.84375 38.64453125 24.84375 38.64453125 Z M22.84375 42.64453125 C22.51375 43.63453125 22.18375 44.62453125 21.84375 45.64453125 C22.50375 45.64453125 23.16375 45.64453125 23.84375 45.64453125 C23.51375 44.65453125 23.18375 43.66453125 22.84375 42.64453125 Z M20.84375 45.64453125 C20.51375 46.30453125 20.18375 46.96453125 19.84375 47.64453125 C20.50375 47.64453125 21.16375 47.64453125 21.84375 47.64453125 C21.51375 46.98453125 21.18375 46.32453125 20.84375 45.64453125 Z " fill="#22231F" transform="translate(59.15625,28.35546875)"/>
<path d="M0 0 C1.32 0 2.64 0 4 0 C4.33 1.65 4.66 3.3 5 5 C10.085772 6.76896417 12.77622014 7.09974313 18 6 C18 4.68 18 3.36 18 2 C18.66 2 19.32 2 20 2 C20.495 4.475 20.495 4.475 21 7 C21.99 6.67 22.98 6.34 24 6 C24.33 4.35 24.66 2.7 25 1 C25.66 1 26.32 1 27 1 C27.495 2.485 27.495 2.485 28 4 C28.66 3.01 29.32 2.02 30 1 C30.66 1 31.32 1 32 1 C32 2.65 32 4.3 32 6 C32.99 6 33.98 6 35 6 C35.495 7.98 35.495 7.98 36 10 C36.33 8.68 36.66 7.36 37 6 C37.66 6 38.32 6 39 6 C39.33 5.34 39.66 4.68 40 4 C39.34 4 38.68 4 38 4 C38 3.01 38 2.02 38 1 C40.64 1 43.28 1 46 1 C47.125 5.75 47.125 5.75 46 8 C46.66 8 47.32 8 48 8 C48 7.34 48 6.68 48 6 C50.97 6.33 53.94 6.66 57 7 C57.495 8.98 57.495 8.98 58 11 C58.66 9.68 59.32 8.36 60 7 C60.33 7 60.66 7 61 7 C61 10.63 61 14.26 61 18 C57.625 17.3125 57.625 17.3125 54 16 C52.6875 13.4375 52.6875 13.4375 52 11 C51.34 10.67 50.68 10.34 50 10 C50 12.31 50 14.62 50 17 C49.34 17 48.68 17 48 17 C47.505 15.515 47.505 15.515 47 14 C46.01 14 45.02 14 44 14 C44 13.34 44 12.68 44 12 C44.66 12 45.32 12 46 12 C46 11.34 46 10.68 46 10 C44.35 10 42.7 10 41 10 C41 11.32 41 12.64 41 14 C41.66 14 42.32 14 43 14 C42.67 14.99 42.34 15.98 42 17 C41.01 17.33 40.02 17.66 39 18 C38.34 18.99 37.68 19.98 37 21 C35.68 21 34.36 21 33 21 C32.957279 19.33388095 32.95936168 17.66617115 33 16 C33.33 15.67 33.66 15.34 34 15 C32.68 13.68 31.36 12.36 30 11 C29.01 11.33 28.02 11.66 27 12 C27 13.65 27 15.3 27 17 C25.6078125 16.9071875 25.6078125 16.9071875 24.1875 16.8125 C21.04545578 16.70063043 21.04545578 16.70063043 19.1875 18.375 C17.93012827 20.00086797 17.93012827 20.00086797 17 22 C15 22.5 15 22.5 12 23 C10.39426109 23.34696871 8.790162 23.70158556 7.1875 24.0625 C6.39730469 24.23910156 5.60710938 24.41570313 4.79296875 24.59765625 C4.20128906 24.73042969 3.60960937 24.86320312 3 25 C3 25.66 3 26.32 3 27 C3 27.66 3 28.32 3 29 C2.34 29 1.68 29 1 29 C0.67 28.34 0.34 27.68 0 27 C-0.33 27.99 -0.66 28.98 -1 30 C-1.66 30 -2.32 30 -3 30 C-3 31.32 -3 32.64 -3 34 C-3.99 34 -4.98 34 -6 34 C-6.09796875 33.1028125 -6.1959375 32.205625 -6.296875 31.28125 C-7.24583843 23.36231383 -8.6278379 15.79491921 -10.76660156 8.10546875 C-12.09953793 3.19907587 -12.09953793 3.19907587 -11 1 C-9.35 1.33 -7.7 1.66 -6 2 C-5.67 3.65 -5.34 5.3 -5 7 C-3.68 7 -2.36 7 -1 7 C-1.020625 6.030625 -1.04125 5.06125 -1.0625 4.0625 C-1 1 -1 1 0 0 Z M8 0 C8.99 0.33 9.98 0.66 11 1 C11 2.65 11 4.3 11 6 C9.68 5.67 8.36 5.34 7 5 C7.33 3.35 7.66 1.7 8 0 Z " fill="#171714" transform="translate(23,5)"/>
<path d="M0 0 C0.66 0 1.32 0 2 0 C2.33 0.99 2.66 1.98 3 3 C3.66 2.01 4.32 1.02 5 0 C5.66 0 6.32 0 7 0 C7 1.65 7 3.3 7 5 C7.99 5 8.98 5 10 5 C10.33 6.32 10.66 7.64 11 9 C11.33 7.68 11.66 6.36 12 5 C12.66 5 13.32 5 14 5 C14.33 4.34 14.66 3.68 15 3 C14.34 3 13.68 3 13 3 C13 2.01 13 1.02 13 0 C15.64 0 18.28 0 21 0 C22.125 4.75 22.125 4.75 21 7 C21.66 7 22.32 7 23 7 C23 6.34 23 5.68 23 5 C25.97 5.33 28.94 5.66 32 6 C32.495 7.98 32.495 7.98 33 10 C33.66 8.68 34.32 7.36 35 6 C35.33 6 35.66 6 36 6 C36 9.63 36 13.26 36 17 C32.625 16.3125 32.625 16.3125 29 15 C27.6875 12.4375 27.6875 12.4375 27 10 C26.34 9.67 25.68 9.34 25 9 C25 11.31 25 13.62 25 16 C24.34 16 23.68 16 23 16 C22.505 14.515 22.505 14.515 22 13 C21.01 13 20.02 13 19 13 C19 12.34 19 11.68 19 11 C19.66 11 20.32 11 21 11 C21 10.34 21 9.68 21 9 C19.35 9 17.7 9 16 9 C16 10.32 16 11.64 16 13 C16.66 13 17.32 13 18 13 C17.67 13.99 17.34 14.98 17 16 C16.01 16.33 15.02 16.66 14 17 C13.34 17.99 12.68 18.98 12 20 C10.68 20 9.36 20 8 20 C7.957279 18.33388095 7.95936168 16.66617115 8 15 C8.33 14.67 8.66 14.34 9 14 C7.68 12.68 6.36 11.36 5 10 C4.01 10.33 3.02 10.66 2 11 C2 12.65 2 14.3 2 16 C1.071875 15.938125 0.14375 15.87625 -0.8125 15.8125 C-3.95454422 15.70063043 -3.95454422 15.70063043 -5.8125 17.375 C-7.06987173 19.00086797 -7.06987173 19.00086797 -8 21 C-9.65 20.67 -11.3 20.34 -13 20 C-13 18.68 -13 17.36 -13 16 C-12.34 16 -11.68 16 -11 16 C-11 16.66 -11 17.32 -11 18 C-10.34 18 -9.68 18 -9 18 C-9 17.01 -9 16.02 -9 15 C-10.32 14.67 -11.64 14.34 -13 14 C-13 11.69 -13 9.38 -13 7 C-11.02 6.34 -9.04 5.68 -7 5 C-7 3.68 -7 2.36 -7 1 C-6.34 1 -5.68 1 -5 1 C-4.67 2.65 -4.34 4.3 -4 6 C-3.01 5.67 -2.02 5.34 -1 5 C-0.67 3.35 -0.34 1.7 0 0 Z " fill="#C8C7C3" transform="translate(48,6)"/>
<path d="M0 0 C0.33 0 0.66 0 1 0 C1 1.98 1 3.96 1 6 C2.65 6 4.3 6 6 6 C3 8 3 8 -1 8 C-1.33 9.32 -1.66 10.64 -2 12 C-1.505 11.835 -1.01 11.67 -0.5 11.5 C4.39339641 10.52132072 8.72141938 10.14761292 13 13 C11.49759766 13.05607422 11.49759766 13.05607422 9.96484375 13.11328125 C-1.46578958 13.34861256 -1.46578958 13.34861256 -11 19 C-11.05832307 21.63534559 -11.05832307 21.63534559 -10.6875 24.625 C-10.57921875 25.69492187 -10.4709375 26.76484375 -10.359375 27.8671875 C-9.93314545 31.58279731 -9.49896688 35.29338889 -9 39 C-9.74765625 39.54269531 -10.4953125 40.08539063 -11.265625 40.64453125 C-12.74289063 41.71767578 -12.74289063 41.71767578 -14.25 42.8125 C-15.22453125 43.52019531 -16.1990625 44.22789063 -17.203125 44.95703125 C-18.12609375 45.63121094 -19.0490625 46.30539063 -20 47 C-20.763125 47.5259375 -21.52625 48.051875 -22.3125 48.59375 C-24.59065389 50.49221157 -24.6890646 52.1238476 -25 55 C-24.34 55.33 -23.68 55.66 -23 56 C-24.485 56.495 -24.485 56.495 -26 57 C-27.83333333 58.75 -27.83333333 58.75 -29 61 C-29.08675654 63.06038305 -29.08675654 63.06038305 -28 65 C-25.33262287 66.39909436 -25.33262287 66.39909436 -21.99609375 67.359375 C-20.78115234 67.75253906 -19.56621094 68.14570312 -18.31445312 68.55078125 C-17.0222462 68.95087879 -15.72992694 69.35061372 -14.4375 69.75 C-13.14079067 70.16384684 -11.84455902 70.5791936 -10.54882812 70.99609375 C-7.37028713 72.01228158 -4.18763163 73.01277275 -1 74 C-1.99 74.495 -1.99 74.495 -3 75 C-3 75.66 -3 76.32 -3 77 C-1.4221875 77.2165625 -1.4221875 77.2165625 0.1875 77.4375 C4 78 4 78 6.625 78.6875 C9.68777627 79.09049688 11.28636099 78.42823106 14 77 C16.43984498 74.99584162 16.97123955 74.08628136 18 71 C18.763125 70.54625 19.52625 70.0925 20.3125 69.625 C23.34965074 67.78858327 24.82895358 65.78165323 27 63 C31.54054054 59 31.54054054 59 34 59 C30.82911917 66.83169362 19.87149358 78.65270467 12 82 C6.6440005 82.33665092 2.22542376 81.41615927 -2.796875 79.69921875 C-3.51232483 79.46217728 -4.22777466 79.2251358 -4.96490479 78.98091125 C-6.46578263 78.48074506 -7.96493979 77.97538824 -9.46240234 77.46508789 C-11.75282106 76.68654108 -14.04949635 75.92917597 -16.34765625 75.17382812 C-17.81031387 74.68353701 -19.27256863 74.19204208 -20.734375 73.69921875 C-21.41876648 73.47409103 -22.10315796 73.24896332 -22.80828857 73.01701355 C-28.90849957 70.91302922 -28.90849957 70.91302922 -31 68 C-31.9375 64.6875 -31.9375 64.6875 -32 61 C-30.1875 57.9375 -30.1875 57.9375 -28 55 C-27.73058594 54.04996094 -27.46117187 53.09992188 -27.18359375 52.12109375 C-25.74759046 48.33440522 -23.94673932 46.72416404 -20.875 44.125 C-19.50988281 42.95324219 -19.50988281 42.95324219 -18.1171875 41.7578125 C-17.06917969 40.88769531 -17.06917969 40.88769531 -16 40 C-16.99 39.67 -17.98 39.34 -19 39 C-18.67 38.01 -18.34 37.02 -18 36 C-15.4375 34.8125 -15.4375 34.8125 -13 34 C-13.14179688 32.90300781 -13.28359375 31.80601563 -13.4296875 30.67578125 C-13.57980412 29.22152652 -13.72814864 27.76708809 -13.875 26.3125 C-14.02195312 25.2306543 -14.02195312 25.2306543 -14.171875 24.12695312 C-14.37211159 21.93436246 -14.45562684 20.15785313 -14 18 C-12.20020628 15.93149166 -10.24756469 14.61999793 -8 13 C-8 12.01 -8 11.02 -8 10 C-6.68 10.33 -5.36 10.66 -4 11 C-3.34 9.35 -2.68 7.7 -2 6 C-1.34 6 -0.68 6 0 6 C0 4.02 0 2.04 0 0 Z M-12 35 C-12 38 -12 38 -12 38 Z M-15 38 C-14.67 38.66 -14.34 39.32 -14 40 C-13.67 39.34 -13.34 38.68 -13 38 C-13.66 38 -14.32 38 -15 38 Z M13 11 C16 12 16 12 16 12 Z " fill="#171916" transform="translate(44,16)"/>
<path d="M0 0 C1.093125 0.474375 2.18625 0.94875 3.3125 1.4375 C8.43476513 3.38708745 13.56561888 3.71029954 19 4 C19.33 5.32 19.66 6.64 20 8 C20.226875 7.05125 20.45375 6.1025 20.6875 5.125 C22 2 22 2 24.625 0.625 C25.800625 0.315625 25.800625 0.315625 27 0 C26.71572583 1.58467728 26.42225182 3.1677057 26.125 4.75 C25.96257813 5.63171875 25.80015625 6.5134375 25.6328125 7.421875 C25.01389507 9.94339044 24.42951495 11.83435609 23 14 C21.16015625 15.046875 21.16015625 15.046875 19.0625 15.75 C18.02802734 16.11351562 18.02802734 16.11351562 16.97265625 16.484375 C15 17 15 17 12 17 C11.67 18.32 11.34 19.64 11 21 C12.58560393 20.74279326 14.16845924 20.46861201 15.75 20.1875 C16.63171875 20.03667969 17.5134375 19.88585937 18.421875 19.73046875 C22.13028186 18.67975347 24.33532399 17.16318301 26.25 13.8125 C26.4975 13.214375 26.745 12.61625 27 12 C27 12.66 27 13.32 27 14 C29.475 14.495 29.475 14.495 32 15 C31.34 15.33 30.68 15.66 30 16 C29.773125 16.61875 29.54625 17.2375 29.3125 17.875 C27.75708432 20.39329206 26.20310382 21.41462618 23.4453125 22.453125 C14.26600618 24.50600501 5.78067378 23.84722368 -2.33984375 19.09375 C-2.88769531 18.7328125 -3.43554688 18.371875 -4 18 C-4 16.68 -4 15.36 -4 14 C-3.01 14 -2.02 14 -1 14 C-1 12.02 -1 10.04 -1 8 C0.99097846 10.98646769 1.94124926 13.59687262 3 17 C4.72082924 17 6.34228586 16.4277972 8 16 C7.38640625 15.75894531 6.7728125 15.51789062 6.140625 15.26953125 C2.37508873 13.03632087 1.33055703 9.01939103 0 5 C-0.25 1.9375 -0.25 1.9375 0 0 Z " fill="#1B120A" transform="translate(36,48)"/>
<path d="M0 0 C0.33 0 0.66 0 1 0 C1 2.97 1 5.94 1 9 C1.99 8.67 2.98 8.34 4 8 C8.83105392 7.72654412 12.49302254 8.24117953 17 10 C16.49122941 14.14182257 15.45849193 16.0254538 12.4375 18.875 C11.72335938 19.55433594 11.00921875 20.23367187 10.2734375 20.93359375 C7.40209135 23.54345992 4.50967756 26.12377994 1.56640625 28.65234375 C0.68751602 29.40849619 -0.18017851 30.18017851 -1 31 C-7.13583124 30.94629469 -12.38768414 29.34696845 -18 27 C-18 26.67 -18 26.34 -18 26 C-16.5225254 25.63883954 -15.04295325 25.28624952 -13.5625 24.9375 C-12.32693359 24.64166016 -12.32693359 24.64166016 -11.06640625 24.33984375 C-10.04353516 24.17162109 -10.04353516 24.17162109 -9 24 C-8.67 24.33 -8.34 24.66 -8 25 C-7.34 24.34 -6.68 23.68 -6 23 C-5.01 23 -4.02 23 -3 23 C-3 22.34 -3 21.68 -3 21 C-2.01 21 -1.02 21 0 21 C0.433125 20.1028125 0.433125 20.1028125 0.875 19.1875 C2 17 2 17 4 14 C2.68 13.67 1.36 13.34 0 13 C-0.556875 13.78375 -1.11375 14.5675 -1.6875 15.375 C-4.17307943 18.19646854 -5.40319699 19.0798876 -9 20 C-11.3320802 20.07646165 -13.66845878 20.09143299 -16 20 C-15.83203125 18.09375 -15.83203125 18.09375 -15 16 C-12.63671875 15.15625 -12.63671875 15.15625 -9.6875 14.5 C-5.79656718 13.26702908 -4.38863244 12.70216682 -2.3828125 9.078125 C-1.41345517 6.06391899 -0.61040046 3.10571752 0 0 Z " fill="#868279" transform="translate(63,49)"/>
<path d="M0 0 C4.54899046 -0.42915004 7.89210262 0.00829218 12 2 C10.68 4.64 9.36 7.28 8 10 C8.66 9.67 9.32 9.34 10 9 C10.65213292 6.97536745 10.65213292 6.97536745 11 5 C17.61832929 4.41170406 22.95054492 6.39391987 29 9 C29.495 9.495 29.495 9.495 30 10 C30.66 9.34 31.32 8.68 32 8 C32.99 8.66 33.98 9.32 35 10 C34.01 10.66 33.02 11.32 32 12 C32 12.99 32 13.98 32 15 C33.32 14.67 34.64 14.34 36 14 C36 12.68 36 11.36 36 10 C38.31 10.66 40.62 11.32 43 12 C39.125 17.875 39.125 17.875 38 19 C32.3181033 19.30798489 27.96934058 18.66606756 22.5078125 16.8828125 C21.83579803 16.6655954 21.16378357 16.4483783 20.47140503 16.22457886 C19.06635495 15.76775094 17.66312373 15.30529287 16.26171875 14.83740234 C14.11366048 14.1212193 11.95996137 13.42459803 9.8046875 12.73046875 C-0.70734742 9.29265258 -0.70734742 9.29265258 -3 7 C-2.61121812 3.98694043 -1.73543126 2.60314689 0 0 Z " fill="#969389" transform="translate(17,73)"/>
<path d="M0 0 C0.7734375 0.27457031 1.546875 0.54914062 2.34375 0.83203125 C3.1171875 1.09371094 3.890625 1.35539062 4.6875 1.625 C6.9980648 2.71749532 8.31749317 3.5948466 9.84375 5.64453125 C9.84375 6.96453125 9.84375 8.28453125 9.84375 9.64453125 C10.50375 8.32453125 11.16375 7.00453125 11.84375 5.64453125 C12.50375 5.64453125 13.16375 5.64453125 13.84375 5.64453125 C13.84375 6.96453125 13.84375 8.28453125 13.84375 9.64453125 C14.483125 10.05703125 15.1225 10.46953125 15.78125 10.89453125 C18.42850365 13.14068586 18.73235401 15.17479229 19.02734375 18.5703125 C18.71686028 22.07811514 17.05205423 23.96779885 14.84375 26.64453125 C15.83375 27.30453125 16.82375 27.96453125 17.84375 28.64453125 C14.35933574 29.80600267 11.50241885 29.64453125 7.84375 29.64453125 C5.53338085 30.0730812 5.53338085 30.0730812 3.84375 30.64453125 C3.988125 29.57203125 4.1325 28.49953125 4.28125 27.39453125 C4.87209143 22.73437348 5.22270456 18.06322909 5.5625 13.37890625 C5.8045329 11.0258086 6.23911683 8.92198286 6.84375 6.64453125 C6.84375 5.98453125 6.84375 5.32453125 6.84375 4.64453125 C0.90375 3.15953125 0.90375 3.15953125 -5.15625 1.64453125 C-2.15625 -0.35546875 -2.15625 -0.35546875 0 0 Z M8.84375 16.64453125 C8.51375 17.63453125 8.18375 18.62453125 7.84375 19.64453125 C8.50375 20.30453125 9.16375 20.96453125 9.84375 21.64453125 C10.50375 20.32453125 11.16375 19.00453125 11.84375 17.64453125 C10.85375 17.31453125 9.86375 16.98453125 8.84375 16.64453125 Z " fill="#131310" transform="translate(59.15625,28.35546875)"/>
<path d="M0 0 C0.33 0 0.66 0 1 0 C1 1.98 1 3.96 1 6 C2.65 6 4.3 6 6 6 C3 8 3 8 -1 8 C-1.33 9.32 -1.66 10.64 -2 12 C-1.505 11.835 -1.01 11.67 -0.5 11.5 C4.39339641 10.52132072 8.72141938 10.14761292 13 13 C11.49759766 13.05607422 11.49759766 13.05607422 9.96484375 13.11328125 C-1.46578958 13.34861256 -1.46578958 13.34861256 -11 19 C-11.05832307 21.63534559 -11.05832307 21.63534559 -10.6875 24.625 C-10.57921875 25.69492187 -10.4709375 26.76484375 -10.359375 27.8671875 C-9.93314545 31.58279731 -9.49896688 35.29338889 -9 39 C-9.74765625 39.54269531 -10.4953125 40.08539063 -11.265625 40.64453125 C-12.74289063 41.71767578 -12.74289063 41.71767578 -14.25 42.8125 C-15.22453125 43.52019531 -16.1990625 44.22789063 -17.203125 44.95703125 C-18.12609375 45.63121094 -19.0490625 46.30539063 -20 47 C-20.763125 47.5259375 -21.52625 48.051875 -22.3125 48.59375 C-24.59065389 50.49221157 -24.6890646 52.1238476 -25 55 C-24.34 55.33 -23.68 55.66 -23 56 C-24.485 56.495 -24.485 56.495 -26 57 C-27.85302042 58.69276643 -27.85302042 58.69276643 -29 61 C-28.77802187 63.6984589 -28.77802187 63.6984589 -28 66 C-29.485 66.495 -29.485 66.495 -31 67 C-32 66 -32 66 -32.3125 63.8125 C-31.89616176 60.06545583 -30.13323947 58.07437453 -28 55 C-27.731875 54.04738281 -27.46375 53.09476563 -27.1875 52.11328125 C-25.74658927 48.33563043 -23.94194647 46.72010855 -20.875 44.125 C-19.50988281 42.95324219 -19.50988281 42.95324219 -18.1171875 41.7578125 C-17.06917969 40.88769531 -17.06917969 40.88769531 -16 40 C-16.99 39.67 -17.98 39.34 -19 39 C-18.67 38.01 -18.34 37.02 -18 36 C-15.4375 34.8125 -15.4375 34.8125 -13 34 C-13.14179688 32.90300781 -13.28359375 31.80601563 -13.4296875 30.67578125 C-13.57980412 29.22152652 -13.72814864 27.76708809 -13.875 26.3125 C-14.02195312 25.2306543 -14.02195312 25.2306543 -14.171875 24.12695312 C-14.37211159 21.93436246 -14.45562684 20.15785313 -14 18 C-12.20020628 15.93149166 -10.24756469 14.61999793 -8 13 C-8 12.01 -8 11.02 -8 10 C-6.68 10.33 -5.36 10.66 -4 11 C-3.34 9.35 -2.68 7.7 -2 6 C-1.34 6 -0.68 6 0 6 C0 4.02 0 2.04 0 0 Z M-12 35 C-12 38 -12 38 -12 38 Z M-15 38 C-14.67 38.66 -14.34 39.32 -14 40 C-13.67 39.34 -13.34 38.68 -13 38 C-13.66 38 -14.32 38 -15 38 Z M13 11 C16 12 16 12 16 12 Z " fill="#10100D" transform="translate(44,16)"/>
<path d="M0 0 C0.66 0 1.32 0 2 0 C2.33 0.99 2.66 1.98 3 3 C3.66 2.34 4.32 1.68 5 1 C6.23076923 6.41538462 6.23076923 6.41538462 5.0625 9.375 C4.5365625 10.179375 4.5365625 10.179375 4 11 C3.34 11 2.68 11 2 11 C2 12.65 2 14.3 2 16 C1.071875 15.938125 0.14375 15.87625 -0.8125 15.8125 C-3.95454422 15.70063043 -3.95454422 15.70063043 -5.8125 17.375 C-7.06987173 19.00086797 -7.06987173 19.00086797 -8 21 C-9.65 20.67 -11.3 20.34 -13 20 C-13 18.68 -13 17.36 -13 16 C-12.34 16 -11.68 16 -11 16 C-11 16.66 -11 17.32 -11 18 C-10.34 18 -9.68 18 -9 18 C-9 17.01 -9 16.02 -9 15 C-10.32 14.67 -11.64 14.34 -13 14 C-13 11.69 -13 9.38 -13 7 C-11.02 6.34 -9.04 5.68 -7 5 C-7 3.68 -7 2.36 -7 1 C-6.34 1 -5.68 1 -5 1 C-4.67 2.65 -4.34 4.3 -4 6 C-3.01 5.67 -2.02 5.34 -1 5 C-0.67 3.35 -0.34 1.7 0 0 Z " fill="#9E9D9A" transform="translate(48,6)"/>
<path d="M0 0 C1.43088528 2.86177057 0.59991697 4.93375773 0 8 C-0.50015625 7.68289062 -1.0003125 7.36578125 -1.515625 7.0390625 C-4.87241148 5.6351235 -8.16286294 5.53774346 -11.75 5.375 C-12.44738281 5.33632813 -13.14476562 5.29765625 -13.86328125 5.2578125 C-15.57510818 5.16401376 -17.28751682 5.08093826 -19 5 C-18.67 5.66 -18.34 6.32 -18 7 C-15.67843403 7.40729228 -13.3431213 7.74438677 -11 8 C-11 8.66 -11 9.32 -11 10 C-15.16138263 10.08159574 -18.9472484 9.98248524 -23 9 C-23 8.34 -23 7.68 -23 7 C-24.32 7 -25.64 7 -27 7 C-26.42655063 4.13275314 -26.1385485 3.1385485 -24 1 C-23.67 0.34 -23.34 -0.32 -23 -1 C-15.70017512 -3.43327496 -7.19129159 -2.44232545 0 0 Z " fill="#A8A397" transform="translate(62,31)"/>
<path d="M0 0 C8.25 0 16.5 0 25 0 C24.34 2.31 23.68 4.62 23 7 C22.60161154 8.80750322 22.2236115 10.61974004 21.875 12.4375 C21.70742188 13.30246094 21.53984375 14.16742188 21.3671875 15.05859375 C21.24601562 15.69925781 21.12484375 16.33992188 21 17 C20.67 17 20.34 17 20 17 C20 15.02 20 13.04 20 11 C18.87851562 11.01740234 18.87851562 11.01740234 17.734375 11.03515625 C16.74953125 11.04417969 15.7646875 11.05320312 14.75 11.0625 C13.28820312 11.07990234 13.28820312 11.07990234 11.796875 11.09765625 C9.30269 11.01056878 7.31562737 10.92201181 5 10 C4.28293018 8.01751285 3.61709587 6.01584651 3 4 C2.01 3.34 1.02 2.68 0 2 C0 1.34 0 0.68 0 0 Z " fill="#D48C3A" transform="translate(35,41)"/>
<path d="M0 0 C2 3.75 2 3.75 2 6 C3.32 6.33 4.64 6.66 6 7 C5.67 8.32 5.34 9.64 5 11 C5 10.01 5 9.02 5 8 C4.34 8 3.68 8 3 8 C3 9.65 3 11.3 3 13 C4.94074861 12.72382467 4.94074861 12.72382467 7 12 C7.66 11.01 8.32 10.02 9 9 C9.99 8.67 10.98 8.34 12 8 C12.33 7.34 12.66 6.68 13 6 C12.34 6 11.68 6 11 6 C11 4.68 11 3.36 11 2 C12.65 2 14.3 2 16 2 C16 2.66 16 3.32 16 4 C15.34 4 14.68 4 14 4 C14 4.66 14 5.32 14 6 C15.32 5.67 16.64 5.34 18 5 C18 6.32 18 7.64 18 9 C18.66 9 19.32 9 20 9 C20 6.69 20 4.38 20 2 C21.5625 3.6875 21.5625 3.6875 23 6 C22.6875 8.75 22.6875 8.75 22 11 C23.32 11.66 24.64 12.32 26 13 C26 13.66 26 14.32 26 15 C25.06027344 14.98259766 25.06027344 14.98259766 24.1015625 14.96484375 C22.87566406 14.95130859 22.87566406 14.95130859 21.625 14.9375 C20.40683594 14.92009766 20.40683594 14.92009766 19.1640625 14.90234375 C16.95062858 14.85533666 16.95062858 14.85533666 15 16 C15 15.34 15 14.68 15 14 C13.75283203 14.16048828 13.75283203 14.16048828 12.48046875 14.32421875 C11.39378906 14.44410156 10.30710937 14.56398438 9.1875 14.6875 C8.10855469 14.81511719 7.02960937 14.94273438 5.91796875 15.07421875 C3 15 3 15 1.3125 13.5 C0.879375 13.005 0.44625 12.51 0 12 C-3.14921909 12.23283149 -3.14921909 12.23283149 -6 13 C-6 12.01 -6 11.02 -6 10 C-5.01 10 -4.02 10 -3 10 C-3 8.02 -3 6.04 -3 4 C-2.34 3.67 -1.68 3.34 -1 3 C-0.67 2.01 -0.34 1.02 0 0 Z " fill="#1E1E1A" transform="translate(53,13)"/>
<path d="M0 0 C0.99 0.33 1.98 0.66 3 1 C4.125 5.75 4.125 5.75 3 8 C2.7724985 9.87056791 2.59037189 11.74685958 2.4375 13.625 C2.35371094 14.62789062 2.26992187 15.63078125 2.18359375 16.6640625 C2.09271484 17.82035156 2.09271484 17.82035156 2 19 C1.01 18.34 0.02 17.68 -1 17 C-3.67145537 17.80161791 -3.67145537 17.80161791 -6 19 C-5.70703125 16.94921875 -5.4140625 14.8984375 -5.12109375 12.84765625 C-5.08113281 12.23792969 -5.04117188 11.62820312 -5 11 C-6.12431998 9.64209699 -6.12431998 9.64209699 -9.0546875 9.97265625 C-11.59641972 10.03243114 -14.13808959 10.09492016 -16.6796875 10.16015625 C-20 10 -20 10 -23 8 C-19.37 8.33 -15.74 8.66 -12 9 C-12 8.34 -12 7.68 -12 7 C-14.31 7 -16.62 7 -19 7 C-19.33 6.01 -19.66 5.02 -20 4 C-17.5622037 3.94602665 -15.12560315 3.90634384 -12.6875 3.875 C-11.99720703 3.85824219 -11.30691406 3.84148438 -10.59570312 3.82421875 C-6.82864604 3.78782206 -5.21568296 3.85621136 -2 6 C-1.34 4.02 -0.68 2.04 0 0 Z " fill="#9E7748" transform="translate(63,32)"/>
<path d="M0 0 C0.66 0 1.32 0 2 0 C2.33 1.65 2.66 3.3 3 5 C3.78375 4.835 4.5675 4.67 5.375 4.5 C8 4 8 4 10 4 C10 7.3 10 10.6 10 14 C8.0085944 14.38133299 6.00720923 14.71325582 4 15 C3.67 14.67 3.34 14.34 3 14 C2.67 15.32 2.34 16.64 2 18 C1.01 17.67 0.02 17.34 -1 17 C-1.33 16.34 -1.66 15.68 -2 15 C-2.33 15.99 -2.66 16.98 -3 18 C-3.99 18 -4.98 18 -6 18 C-6.70005949 15.92085336 -7.38462244 13.83648414 -8.0625 11.75 C-8.44535156 10.58984375 -8.82820312 9.4296875 -9.22265625 8.234375 C-9.95211763 5.19922915 -10.11889082 3.84296787 -9 1 C-8.01 3.31 -7.02 5.62 -6 8 C-5.01 7.34 -4.02 6.68 -3 6 C-2.34 7.32 -1.68 8.64 -1 10 C-0.67 6.7 -0.34 3.4 0 0 Z " fill="#BDBCB9" transform="translate(24,8)"/>
<path d="M0 0 C0.33 0 0.66 0 1 0 C1 1.65 1 3.3 1 5 C0.01 5 -0.98 5 -2 5 C-2.20625 5.721875 -2.4125 6.44375 -2.625 7.1875 C-4.09876429 10.20201787 -5.778092 11.64529485 -8.4140625 13.6640625 C-10.09516066 15.08015997 -11.34354352 16.57757436 -12.6875 18.3125 C-13.450625 19.199375 -14.21375 20.08625 -15 21 C-15.99 21 -16.98 21 -18 21 C-18.0825 21.5775 -18.165 22.155 -18.25 22.75 C-19.26464292 25.79392875 -20.44695292 27.05162197 -23 29 C-29.02496376 30.77204816 -33.39346792 29.25024076 -39 27 C-39 26.34 -39 25.68 -39 25 C-36 24 -36 24 -33 25 C-28.95196194 25.40891577 -28.95196194 25.40891577 -25 25 C-22.4595774 22.66169042 -22.4595774 22.66169042 -21 20 C-22.32 19.01 -23.64 18.02 -25 17 C-24.00613281 17.31839844 -23.01226562 17.63679688 -21.98828125 17.96484375 C-17.5234002 18.00420117 -17.151946 17.73272489 -14.10546875 14.81640625 C-12.77859885 13.41795695 -11.47306752 11.99900977 -10.1875 10.5625 C-8.87254596 9.14336602 -7.55373076 7.72779671 -6.23046875 6.31640625 C-5.65707764 5.68162354 -5.08368652 5.04684082 -4.49291992 4.39282227 C-3 3 -3 3 -1 3 C-0.67 2.01 -0.34 1.02 0 0 Z " fill="#363833" transform="translate(80,66)"/>
<path d="M0 0 C1.99097846 2.98646769 2.94124926 5.59687262 4 9 C5.2236068 9.0745356 5.2236068 9.0745356 7 8 C8.54023996 7.93049459 10.08334988 7.91547643 11.625 7.9375 C12.85089844 7.95103516 12.85089844 7.95103516 14.1015625 7.96484375 C15.04128906 7.98224609 15.04128906 7.98224609 16 8 C15.01 8.33 14.02 8.66 13 9 C12.26676204 11.01508358 12.26676204 11.01508358 12 13 C13.58560393 12.74279326 15.16845924 12.46861201 16.75 12.1875 C17.63171875 12.03667969 18.5134375 11.88585937 19.421875 11.73046875 C23.13028186 10.67975347 25.33532399 9.16318301 27.25 5.8125 C27.4975 5.214375 27.745 4.61625 28 4 C28 4.66 28 5.32 28 6 C30.475 6.495 30.475 6.495 33 7 C32.34 7.33 31.68 7.66 31 8 C30.773125 8.61875 30.54625 9.2375 30.3125 9.875 C28.75708432 12.39329206 27.20310382 13.41462618 24.4453125 14.453125 C15.26600618 16.50600501 6.78067378 15.84722368 -1.33984375 11.09375 C-2.16162109 10.55234375 -2.16162109 10.55234375 -3 10 C-3 8.68 -3 7.36 -3 6 C-2.01 6 -1.02 6 0 6 C0 4.02 0 2.04 0 0 Z " fill="#191A17" transform="translate(35,56)"/>
<path d="M0 0 C1.98 0 3.96 0 6 0 C5.49122941 4.14182257 4.45849193 6.0254538 1.4375 8.875 C0.72335938 9.55433594 0.00921875 10.23367187 -0.7265625 10.93359375 C-3.59790865 13.54345992 -6.49032244 16.12377994 -9.43359375 18.65234375 C-10.31248398 19.40849619 -11.18017851 20.18017851 -12 21 C-18.13583124 20.94629469 -23.38768414 19.34696845 -29 17 C-25.28233332 15.76077777 -23.56110463 16.42981058 -19.8125 17.4375 C-18.18248047 17.86869141 -18.18248047 17.86869141 -16.51953125 18.30859375 C-15.68808594 18.53675781 -14.85664062 18.76492187 -14 19 C-13.67 17.68 -13.34 16.36 -13 15 C-11.35 15 -9.7 15 -8 15 C-7.67 14.01 -7.34 13.02 -7 12 C-6.34 11.67 -5.68 11.34 -5 11 C-4.65259077 9.00239695 -4.32033957 7.00212229 -4 5 C-3.34 4.01 -2.68 3.02 -2 2 C-1.34 2 -0.68 2 0 2 C0 1.34 0 0.68 0 0 Z " fill="#9B978D" transform="translate(74,59)"/>
<path d="M0 0 C6.66500865 -0.59244521 11.86952975 1.51677155 18 4 C17.67 5.65 17.34 7.3 17 9 C12.7061659 10.23248942 9.95850607 9.70669721 5.75 8.3125 C4.16445313 7.81169922 4.16445313 7.81169922 2.546875 7.30078125 C0 6 0 6 -0.921875 3.98046875 C-1 2 -1 2 0 0 Z " fill="#5B605C" transform="translate(28,78)"/>
<path d="M0 0 C0.93423645 3.01031744 1.04449911 3.86650268 0 7 C-4.34285714 11 -4.34285714 11 -8 11 C-8.33 12.32 -8.66 13.64 -9 15 C-14.94 13.515 -14.94 13.515 -21 12 C-19.68 11.01 -18.36 10.02 -17 9 C-16.01 9.33 -15.02 9.66 -14 10 C-13.34 9.34 -12.68 8.68 -12 8 C-11.01 8 -10.02 8 -9 8 C-9 7.34 -9 6.68 -9 6 C-8.01 6 -7.02 6 -6 6 C-5.62875 5.071875 -5.62875 5.071875 -5.25 4.125 C-3.79371361 1.64931313 -2.62187494 1.04874998 0 0 Z " fill="#8E897D" transform="translate(69,64)"/>
<path d="M0 0 C0.66 0.33 1.32 0.66 2 1 C1.67 5.29 1.34 9.58 1 14 C1.66 14.33 2.32 14.66 3 15 C2.525625 15.45375 2.05125 15.9075 1.5625 16.375 C-0.09027808 17.93258204 -0.09027808 17.93258204 -1 20 C-2.65 19.67 -4.3 19.34 -6 19 C-6 17.68 -6 16.36 -6 15 C-5.34 15 -4.68 15 -4 15 C-4 15.66 -4 16.32 -4 17 C-3.34 17 -2.68 17 -2 17 C-2 16.01 -2 15.02 -2 14 C-3.32 13.67 -4.64 13.34 -6 13 C-6 10.69 -6 8.38 -6 6 C-4.02 5.34 -2.04 4.68 0 4 C0 2.68 0 1.36 0 0 Z " fill="#D1D0CC" transform="translate(41,7)"/>
<path d="M0 0 C2.97 0.33 5.94 0.66 9 1 C9.33 2.32 9.66 3.64 10 5 C10.66 3.68 11.32 2.36 12 1 C12.33 1 12.66 1 13 1 C13 4.63 13 8.26 13 12 C9.625 11.3125 9.625 11.3125 6 10 C4.6875 7.4375 4.6875 7.4375 4 5 C3.34 4.67 2.68 4.34 2 4 C2 6.31 2 8.62 2 11 C1.34 11 0.68 11 0 11 C-0.19491452 9.54263913 -0.38069358 8.08405407 -0.5625 6.625 C-0.66691406 5.81289063 -0.77132812 5.00078125 -0.87890625 4.1640625 C-1 2 -1 2 0 0 Z " fill="#BAB9B5" transform="translate(71,11)"/>
<path d="M0 0 C2 1 2 1 3.125 4.0625 C3.41375 5.031875 3.7025 6.00125 4 7 C4.99 6.34 5.98 5.68 7 5 C7.66 6.32 8.32 7.64 9 9 C9.33 6.03 9.66 3.06 10 0 C10.33 0 10.66 0 11 0 C11 5.61 11 11.22 11 17 C10.01 16.01 9.02 15.02 8 14 C7.67 14.99 7.34 15.98 7 17 C6.01 17 5.02 17 4 17 C3.32635339 14.91891315 2.66133202 12.8350329 2 10.75 C1.62875 9.58984375 1.2575 8.4296875 0.875 7.234375 C0 4 0 4 0 0 Z " fill="#C8C7C3" transform="translate(14,9)"/>
<path d="M0 0 C2.4178712 -0.10826289 4.83087556 -0.18739789 7.25 -0.25 C8.27287109 -0.30027344 8.27287109 -0.30027344 9.31640625 -0.3515625 C12.92181813 -0.4215705 14.64068812 -0.29151719 17.484375 2.015625 C17.98453125 2.67046875 18.4846875 3.3253125 19 4 C14.85549905 5.9855784 11.4482341 6.26941925 6.875 6.25 C5.65554687 6.25515625 4.43609375 6.2603125 3.1796875 6.265625 C0 6 0 6 -3 4 C0.63 4.33 4.26 4.66 8 5 C8 4.34 8 3.68 8 3 C5.69 3 3.38 3 1 3 C0.67 2.01 0.34 1.02 0 0 Z " fill="#855D2D" transform="translate(43,36)"/>
<path d="M0 0 C6.6 1.98 13.2 3.96 20 6 C19.67 6.99 19.34 7.98 19 9 C17.906875 8.938125 16.81375 8.87625 15.6875 8.8125 C12.11995134 8.67467344 12.11995134 8.67467344 10.0625 10.3125 C8.73359337 12.09076108 8.73359337 12.09076108 9 15 C8.01 15 7.02 15 6 15 C6.61277612 12.03824877 7.25372522 10.61941217 9 8 C5.73454239 6.11608215 2.71888239 5.50712033 -1 5 C-0.67 3.35 -0.34 1.7 0 0 Z " fill="#20211E" transform="translate(19,68)"/>
<path d="M0 0 C0.33 0 0.66 0 1 0 C1 1.98 1 3.96 1 6 C2.65 6 4.3 6 6 6 C3 8 3 8 -1 8 C-1.33 9.32 -1.66 10.64 -2 12 C-1.505 11.835 -1.01 11.67 -0.5 11.5 C4.39339641 10.52132072 8.72141938 10.14761292 13 13 C11.49759766 13.05607422 11.49759766 13.05607422 9.96484375 13.11328125 C3.10537809 13.43110431 -2.81351039 13.76615316 -9 17 C-9.99 17 -10.98 17 -12 17 C-11.01 16.1028125 -11.01 16.1028125 -10 15.1875 C-7.6626154 13.12498166 -7.6626154 13.12498166 -8 10 C-6.68 10.33 -5.36 10.66 -4 11 C-3.34 9.35 -2.68 7.7 -2 6 C-1.34 6 -0.68 6 0 6 C0 4.02 0 2.04 0 0 Z M13 11 C16 12 16 12 16 12 Z " fill="#11110E" transform="translate(44,16)"/>
<path d="M0 0 C3 2 3 2 3.6875 4.125 C3.8421875 5.053125 3.8421875 5.053125 4 6 C5.32 6 6.64 6 8 6 C8 6.66 8 7.32 8 8 C8.66 8 9.32 8 10 8 C10 6.02 10 4.04 10 2 C10.99 3.485 10.99 3.485 12 5 C12.66 4.01 13.32 3.02 14 2 C15.29922995 4.5984599 14.81286289 5.75961451 14.1875 8.5625 C14.01605469 9.36816406 13.84460938 10.17382812 13.66796875 11.00390625 C13 13 13 13 11 14 C10.67 14.99 10.34 15.98 10 17 C9.01 17 8.02 17 7 17 C6.87625 15.329375 6.87625 15.329375 6.75 13.625 C6.43177141 9.96407698 6.43177141 9.96407698 4.0625 8.6875 C3.381875 8.460625 2.70125 8.23375 2 8 C0 6 0 6 -0.125 2.875 C-0.08375 1.92625 -0.0425 0.9775 0 0 Z " fill="#272724" transform="translate(74,15)"/>
<path d="M0 0 C3.96 0 7.92 0 12 0 C11.67 0.99 11.34 1.98 11 3 C11 2.34 11 1.68 11 1 C10.34 1 9.68 1 9 1 C8.855625 1.928125 8.71125 2.85625 8.5625 3.8125 C8 7 8 7 7 10 C5.02 10 3.04 10 1 10 C0.67 6.7 0.34 3.4 0 0 Z " fill="#090906" transform="translate(43,52)"/>
<path d="M0 0 C-0.33 1.65 -0.66 3.3 -1 5 C0.65 5 2.3 5 4 5 C4.33 6.65 4.66 8.3 5 10 C-0.66442374 9.63495936 -5.00703705 8.9445679 -10 6 C-8.26240984 0.78722952 -5.3189028 -0.4432419 0 0 Z " fill="#8E8A7F" transform="translate(29,62)"/>
<path d="M0 0 C1.65 0 3.3 0 5 0 C5 0.66 5 1.32 5 2 C4.34 2 3.68 2 3 2 C3 2.66 3 3.32 3 4 C4.32 3.67 5.64 3.34 7 3 C7 4.32 7 5.64 7 7 C7.66 7 8.32 7 9 7 C9 4.69 9 2.38 9 0 C10.5625 1.5625 10.5625 1.5625 12 4 C11.6875 7.75 11.6875 7.75 11 11 C9.68 11 8.36 11 7 11 C7 10.34 7 9.68 7 9 C5.329375 9.2784375 5.329375 9.2784375 3.625 9.5625 C0 10 0 10 -2 9 C-2 9.66 -2 10.32 -2 11 C-2.66 10.67 -3.32 10.34 -4 10 C-2 7 -2 7 1 6 C1.33 5.34 1.66 4.68 2 4 C1.34 4 0.68 4 0 4 C0 2.68 0 1.36 0 0 Z " fill="#080908" transform="translate(64,15)"/>
<path d="M0 0 C5.4 -0.36 5.4 -0.36 7.875 1.125 C9.59272195 3.98786991 9.51581456 5.71168219 9 9 C6.875 12.375 6.875 12.375 4 15 C0.6875 15.375 0.6875 15.375 -2 15 C-2 14.34 -2 13.68 -2 13 C3.41176471 9 3.41176471 9 6 9 C4.8321734 5.18586998 4.8321734 5.18586998 1.875 2.6875 C0.946875 2.3471875 0.946875 2.3471875 0 2 C0 1.34 0 0.68 0 0 Z " fill="#8D897F" transform="translate(67,40)"/>
<path d="M0 0 C1.18414294 3.55242882 0.69535532 4.69830562 -0.4375 8.1875 C-0.72496094 9.08855469 -1.01242188 9.98960938 -1.30859375 10.91796875 C-1.53675781 11.60503906 -1.76492187 12.29210938 -2 13 C-3.65 13.33 -5.3 13.66 -7 14 C-7.33 12.02 -7.66 10.04 -8 8 C-8.66 8 -9.32 8 -10 8 C-10 7.01 -10 6.02 -10 5 C-9.34 5 -8.68 5 -8 5 C-7.01 6.485 -7.01 6.485 -6 8 C-5.7525 7.05125 -5.505 6.1025 -5.25 5.125 C-4 2 -4 2 -1.875 0.625 C-1.25625 0.41875 -0.6375 0.2125 0 0 Z " fill="#2D1F13" transform="translate(62,48)"/>
<path d="M0 0 C0.99 0.33 1.98 0.66 3 1 C2.2884375 1.6496875 2.2884375 1.6496875 1.5625 2.3125 C-0.23686957 4.02309613 -0.23686957 4.02309613 -1 7 C0.32 7 1.64 7 3 7 C3.33 7.99 3.66 8.98 4 10 C2.35 10.66 0.7 11.32 -1 12 C-0.360625 12.226875 0.27875 12.45375 0.9375 12.6875 C3 14 3 14 3.75 16.625 C3.8325 17.40875 3.915 18.1925 4 19 C1.625 18.4375 1.625 18.4375 -1 17 C-2.25 13.5625 -2.25 13.5625 -3 10 C-3.33 9.01 -3.66 8.02 -4 7 C-3.58789525 3.70316202 -2.48440102 2.16034872 0 0 Z " fill="#5C564A" transform="translate(36,31)"/>
<path d="M0 0 C2.31 0.66 4.62 1.32 7 2 C3.125 7.875 3.125 7.875 2 9 C-6.38167939 9.41221374 -6.38167939 9.41221374 -10 7 C-6.86501708 5.14223235 -4.62528568 4.79859524 -1 5 C-0.67 3.35 -0.34 1.7 0 0 Z " fill="#9D998F" transform="translate(53,83)"/>
<path d="M0 0 C0.33 0.66 0.66 1.32 1 2 C3.52733235 2.65555119 3.52733235 2.65555119 6 3 C5.01 3.495 5.01 3.495 4 4 C3.773125 4.61875 3.54625 5.2375 3.3125 5.875 C1.76641325 8.37818807 0.20664285 9.3965461 -2.515625 10.47265625 C-8.20141407 11.67954544 -14.21616411 11.20098271 -20 11 C-20 10.67 -20 10.34 -20 10 C-15.05 9.67 -10.1 9.34 -5 9 C-5 8.34 -5 7.68 -5 7 C-4.360625 6.54625 -3.72125 6.0925 -3.0625 5.625 C-0.7323843 3.78915127 -0.39598702 2.87090587 0 0 Z " fill="#383933" transform="translate(62,60)"/>
<path d="M0 0 C2.0792671 3.64571048 3.03912096 7.52735145 4.0625 11.5625 C5.41041167 16.81567537 5.41041167 16.81567537 7 22 C10.51190809 23.22969878 10.51190809 23.22969878 14 24 C14 24.33 14 24.66 14 25 C12.02 25 10.04 25 8 25 C8.66 25.66 9.32 26.32 10 27 C7.13275314 26.42655063 6.1385485 26.1385485 4 24 C3.20291703 21.26839085 2.50706914 18.58189921 1.875 15.8125 C1.69324219 15.06935547 1.51148438 14.32621094 1.32421875 13.56054688 C0.24340739 8.92443498 -0.18905724 4.75794058 0 0 Z " fill="#7E7A6F" transform="translate(33,40)"/>
<path d="M0 0 C0.66 0 1.32 0 2 0 C1.95875 1.11375 1.9175 2.2275 1.875 3.375 C1.85981791 7.64116643 2.61158706 11.55608802 3.5625 15.703125 C4 18 4 18 4 22 C2 21 2 21 1 19 C0.67 19.66 0.34 20.32 0 21 C-0.66 21 -1.32 21 -2 21 C-2.33 21.66 -2.66 22.32 -3 23 C-3.99 22.67 -4.98 22.34 -6 22 C-5.505 20.515 -5.505 20.515 -5 19 C-2.4375 17.8125 -2.4375 17.8125 0 17 C-0.08378906 15.85660156 -0.16757812 14.71320312 -0.25390625 13.53515625 C-0.35704794 12.04428998 -0.45989747 10.55340347 -0.5625 9.0625 C-0.61857422 8.30775391 -0.67464844 7.55300781 -0.73242188 6.77539062 C-0.86176157 4.85254042 -0.93516912 2.92610452 -1 1 C-0.67 0.67 -0.34 0.34 0 0 Z " fill="#0C0C0A" transform="translate(31,33)"/>
<path d="M0 0 C4.54805635 -0.17835515 7.8794254 0.00214565 12 2 C10.68 4.31 9.36 6.62 8 9 C7.67 8.34 7.34 7.68 7 7 C5.35 7 3.7 7 2 7 C2 5.02 2 3.04 2 1 C1.34 0.67 0.68 0.34 0 0 Z " fill="#7B786D" transform="translate(17,73)"/>
<path d="M0 0 C0.33 0 0.66 0 1 0 C1 1.65 1 3.3 1 5 C0.01 5 -0.98 5 -2 5 C-2.185625 5.70125 -2.37125 6.4025 -2.5625 7.125 C-4.52067514 11.04135028 -7.40676231 13.5338864 -11 16 C-11.66 16 -12.32 16 -13 16 C-12.46960703 11.942959 -10.42356448 10.05155434 -7.5625 7.25 C-6.75941406 6.45078125 -5.95632812 5.6515625 -5.12890625 4.828125 C-3 3 -3 3 -1 3 C-0.67 2.01 -0.34 1.02 0 0 Z " fill="#3F413C" transform="translate(80,66)"/>
<path d="M0 0 C-1.29603412 2.82868857 -2.69189598 4.9701021 -4.8203125 7.234375 C-5.35527344 7.80800781 -5.89023438 8.38164063 -6.44140625 8.97265625 C-6.99699219 9.55917969 -7.55257812 10.14570312 -8.125 10.75 C-8.68832031 11.35199219 -9.25164062 11.95398438 -9.83203125 12.57421875 C-11.21724146 14.05334151 -12.6080729 15.52719641 -14 17 C-14.33 16.01 -14.66 15.02 -15 14 C-15.33 13.34 -15.66 12.68 -16 12 C-15.2575 11.608125 -14.515 11.21625 -13.75 10.8125 C-10.77050448 8.84874159 -9.18343081 6.79752073 -7 4 C-2.45945946 0 -2.45945946 0 0 0 Z " fill="#0F110F" transform="translate(78,75)"/>
<path d="M0 0 C1.12438477 0.36448242 1.12438477 0.36448242 2.27148438 0.73632812 C4.12107501 1.33715056 5.96714327 1.94879678 7.8125 2.5625 C7.8125 3.2225 7.8125 3.8825 7.8125 4.5625 C8.4725 4.8925 9.1325 5.2225 9.8125 5.5625 C2.93171989 4.92242743 -3.74370454 3.03729101 -10.1875 0.5625 C-10.5175 -0.0975 -10.8475 -0.7575 -11.1875 -1.4375 C-7.01643888 -2.82785371 -4.00543141 -1.33980806 0 0 Z " fill="#363733" transform="translate(30.1875,85.4375)"/>
<path d="M0 0 C0.99 0.33 1.98 0.66 3 1 C-2.20805461 7.71520868 -2.20805461 7.71520868 -6.1875 8.34765625 C-11.42086986 7.82977069 -16.17597893 6.0173179 -21 4 C-17.28233332 2.76077777 -15.56110463 3.42981058 -11.8125 4.4375 C-10.72582031 4.72496094 -9.63914062 5.01242188 -8.51953125 5.30859375 C-7.68808594 5.53675781 -6.85664062 5.76492187 -6 6 C-5.67 4.68 -5.34 3.36 -5 2 C-3.35 2 -1.7 2 0 2 C0 1.34 0 0.68 0 0 Z " fill="#B0ACA2" transform="translate(66,72)"/>
<path d="M0 0 C0.33 0.99 0.66 1.98 1 3 C1.66 3 2.32 3 3 3 C4.2423696 6.58906773 3.71978657 9.32109087 3 13 C3 13.66 3 14.32 3 15 C2.34 15.66 1.68 16.32 1 17 C1 17.66 1 18.32 1 19 C-0.32 19.33 -1.64 19.66 -3 20 C-3.33 19.01 -3.66 18.02 -4 17 C-3.01 16.67 -2.02 16.34 -1 16 C-1 15.34 -1 14.68 -1 14 C-0.34 14 0.32 14 1 14 C0.67 13.01 0.34 12.02 0 11 C-0.0685495 9.10529184 -0.08480372 7.2083166 -0.0625 5.3125 C-0.05347656 4.31863281 -0.04445313 3.32476562 -0.03515625 2.30078125 C-0.02355469 1.54152344 -0.01195313 0.78226563 0 0 Z M1 5 C2 7 2 7 2 7 Z " fill="#23221C" transform="translate(82,60)"/>
<path d="M0 0 C1.32 0 2.64 0 4 0 C4.33 1.65 4.66 3.3 5 5 C5.99 5.33 6.98 5.66 8 6 C4.125 9 4.125 9 3 9 C3 7.02 3 5.04 3 3 C1.68 3.33 0.36 3.66 -1 4 C-0.67 2.68 -0.34 1.36 0 0 Z M8 0 C8.99 0.33 9.98 0.66 11 1 C11 2.65 11 4.3 11 6 C9.68 5.67 8.36 5.34 7 5 C7.33 3.35 7.66 1.7 8 0 Z " fill="#0C0E0B" transform="translate(23,5)"/>
<path d="M0 0 C0.99 0.33 1.98 0.66 3 1 C2.67 2.98 2.34 4.96 2 7 C1.01 7 0.02 7 -1 7 C-1.33 7.99 -1.66 8.98 -2 10 C-2.33 9.01 -2.66 8.02 -3 7 C-3.99 7.33 -4.98 7.66 -6 8 C-6.66 7.34 -7.32 6.68 -8 6 C-6.7391988 4.96680187 -5.46596742 3.94875621 -4.1875 2.9375 C-3.47980469 2.36902344 -2.77210937 1.80054688 -2.04296875 1.21484375 C-1.36878906 0.81394531 -0.69460937 0.41304687 0 0 Z " fill="#605E55" transform="translate(33,55)"/>
<path d="M0 0 C0.66 1.32 1.32 2.64 2 4 C2.99 3.67 3.98 3.34 5 3 C5 6.63 5 10.26 5 14 C3.35 13.67 1.7 13.34 0 13 C0 8.71 0 4.42 0 0 Z " fill="#CBCAC6" transform="translate(42,8)"/>
<path d="M0 0 C0.66 0.99 1.32 1.98 2 3 C5.40611192 5.27074128 8.99510097 5.53789627 13 6 C13 6.66 13 7.32 13 8 C8.83861737 8.08159574 5.0527516 7.98248524 1 7 C1 6.34 1 5.68 1 5 C-0.32 5 -1.64 5 -3 5 C-2.625 3.0625 -2.625 3.0625 -2 1 C-1.34 0.67 -0.68 0.34 0 0 Z " fill="#CB9552" transform="translate(38,33)"/>
<path d="M0 0 C2.69082872 0.17635452 5.32851446 0.61835921 8 1 C7.34 1.66 6.68 2.32 6 3 C7.98 3.66 9.96 4.32 12 5 C11.67 5.99 11.34 6.98 11 8 C9.1827669 7.41022253 7.37127957 6.80271547 5.5625 6.1875 C4.55316406 5.85105469 3.54382813 5.51460938 2.50390625 5.16796875 C1.67761719 4.78253906 0.85132813 4.39710937 0 4 C-0.33 3.01 -0.66 2.02 -1 1 C-0.67 0.67 -0.34 0.34 0 0 Z " fill="#1C1E1A" transform="translate(14,82)"/>
<path d="M0 0 C2.64 0 5.28 0 8 0 C8.625 2.375 8.625 2.375 9 5 C8.34 5.66 7.68 6.32 7 7 C7 6.34 7 5.68 7 5 C5.68 5.33 4.36 5.66 3 6 C2.67 5.01 2.34 4.02 2 3 C1.34 3 0.68 3 0 3 C0 2.01 0 1.02 0 0 Z " fill="#D2D1CD" transform="translate(61,6)"/>
<path d="M0 0 C0.99 0.33 1.98 0.66 3 1 C4.125 5.75 4.125 5.75 3 8 C2.64830932 9.32860925 2.31229724 10.66158328 2 12 C2 11.01 2 10.02 2 9 C0.35 9.33 -1.3 9.66 -3 10 C-3 9.34 -3 8.68 -3 8 C-2.34 8 -1.68 8 -1 8 C-1.020625 6.865625 -1.04125 5.73125 -1.0625 4.5625 C-1 1 -1 1 0 0 Z " fill="#5E5C54" transform="translate(63,32)"/>
<path d="M0 0 C0.33 0 0.66 0 1 0 C1.33 1.98 1.66 3.96 2 6 C2.99 6.33 3.98 6.66 5 7 C5 7.99 5 8.98 5 10 C4.34 10 3.68 10 3 10 C3 9.34 3 8.68 3 8 C2.34 8 1.68 8 1 8 C0.67 9.32 0.34 10.64 0 12 C-0.5775 11.814375 -1.155 11.62875 -1.75 11.4375 C-4.20692525 10.95976454 -5.64397534 11.24270636 -8 12 C-8 10.35 -8 8.7 -8 7 C-6.8553125 7.2475 -6.8553125 7.2475 -5.6875 7.5 C-2.96403764 8.09145396 -2.96403764 8.09145396 0 8 C0 5.36 0 2.72 0 0 Z " fill="#2C2C2B" transform="translate(34,14)"/>
<path d="M0 0 C0.66 0.66 1.32 1.32 2 2 C-4.40717489 9.63408072 -4.40717489 9.63408072 -8.3125 10.53125 C-10.5 10.5 -10.5 10.5 -14 10 C-13.67 9.01 -13.34 8.02 -13 7 C-12.154375 7.144375 -11.30875 7.28875 -10.4375 7.4375 C-5.39020851 6.79511745 -3.21862074 3.73283825 0 0 Z " fill="#353631" transform="translate(69,72)"/>
<path d="M0 0 C5.28 1.65 10.56 3.3 16 5 C16 5.66 16 6.32 16 7 C13.91631462 6.68985608 11.83306332 6.3767948 9.75 6.0625 C8.58984375 5.88847656 7.4296875 5.71445313 6.234375 5.53515625 C3.76893039 5.1272264 1.40575438 4.66098697 -1 4 C-0.67 2.68 -0.34 1.36 0 0 Z " fill="#2D2E2A" transform="translate(19,68)"/>
<path d="M0 0 C6.93 0 13.86 0 21 0 C20.01 3.3 19.02 6.6 18 10 C17.67 10 17.34 10 17 10 C17 7.36 17 4.72 17 2 C15.94039062 2.02320313 14.88078125 2.04640625 13.7890625 2.0703125 C12.4010487 2.08906944 11.0130273 2.10726972 9.625 2.125 C8.57699219 2.15013672 8.57699219 2.15013672 7.5078125 2.17578125 C5.67102514 2.19344267 3.83398037 2.10303261 2 2 C1.34 1.34 0.68 0.68 0 0 Z " fill="#BFB19D" transform="translate(39,41)"/>
<path d="M0 0 C0.66 0 1.32 0 2 0 C2 1.65 2 3.3 2 5 C2.99 5 3.98 5 5 5 C5.33 7.31 5.66 9.62 6 12 C4.68 12.33 3.36 12.66 2 13 C-0.28571429 4.57142857 -0.28571429 4.57142857 0 0 Z " fill="#CBCAC6" transform="translate(53,6)"/>
<path d="M0 0 C0.66 0.33 1.32 0.66 2 1 C1.67 5.29 1.34 9.58 1 14 C1.66 14.33 2.32 14.66 3 15 C2.01 15.33 1.02 15.66 0 16 C-0.33 13.69 -0.66 11.38 -1 9 C-1.99 9.99 -2.98 10.98 -4 12 C-3.979375 11.21625 -3.95875 10.4325 -3.9375 9.625 C-3.81315937 7.01885039 -3.81315937 7.01885039 -5 5 C-3.35 4.67 -1.7 4.34 0 4 C0 2.68 0 1.36 0 0 Z " fill="#868583" transform="translate(41,7)"/>
<path d="M0 0 C1.84651134 3.11598788 2.38079379 5.38245897 2 9 C1.34 9.66 0.68 10.32 0 11 C-2.125 10.625 -2.125 10.625 -4 10 C-3.855625 9.443125 -3.71125 8.88625 -3.5625 8.3125 C-2.95647335 5.95054589 -2.95647335 5.95054589 -2.5625 3.3125 C-2.376875 2.549375 -2.19125 1.78625 -2 1 C-1.34 0.67 -0.68 0.34 0 0 Z " fill="#42433D" transform="translate(52,78)"/>
<path d="M0 0 C4.62 0 9.24 0 14 0 C14.33 0.99 14.66 1.98 15 3 C12.69 3.33 10.38 3.66 8 4 C8 3.34 8 2.68 8 2 C5.69 2 3.38 2 1 2 C0.67 1.34 0.34 0.68 0 0 Z " fill="#C77923" transform="translate(43,37)"/>
<path d="M0 0 C0.33 0 0.66 0 1 0 C1 3.63 1 7.26 1 11 C-1.97 10.505 -1.97 10.505 -5 10 C-5 7.69 -5 5.38 -5 3 C-4.67 4.32 -4.34 5.64 -4 7 C-3.34 7 -2.68 7 -2 7 C-1.855625 6.030625 -1.71125 5.06125 -1.5625 4.0625 C-1 1 -1 1 0 0 Z " fill="#CECDC9" transform="translate(83,12)"/>
<path d="M0 0 C1.2065625 0.0309375 1.2065625 0.0309375 2.4375 0.0625 C2.7675 2.0425 3.0975 4.0225 3.4375 6.0625 C1.7875 6.3925 0.1375 6.7225 -1.5625 7.0625 C-2.2225 5.0825 -2.8825 3.1025 -3.5625 1.0625 C-2.5625 0.0625 -2.5625 0.0625 0 0 Z " fill="#BBB8AF" transform="translate(41.5625,29.9375)"/>
<path d="M0 0 C1.98 0 3.96 0 6 0 C6 0.66 6 1.32 6 2 C9.465 1.505 9.465 1.505 13 1 C13.33 1.99 13.66 2.98 14 4 C13.06027344 3.98259766 13.06027344 3.98259766 12.1015625 3.96484375 C10.87566406 3.95130859 10.87566406 3.95130859 9.625 3.9375 C8.40683594 3.92009766 8.40683594 3.92009766 7.1640625 3.90234375 C4.95062858 3.85533666 4.95062858 3.85533666 3 5 C3 4.34 3 3.68 3 3 C1.68 3 0.36 3 -1 3 C-0.67 2.01 -0.34 1.02 0 0 Z " fill="#272723" transform="translate(65,24)"/>
<path d="M0 0 C1.32 0.33 2.64 0.66 4 1 C4 1.99 4 2.98 4 4 C5.65 2.68 7.3 1.36 9 0 C9 1.65 9 3.3 9 5 C5.535 6.485 5.535 6.485 2 8 C2 7.34 2 6.68 2 6 C1.01 6.33 0.02 6.66 -1 7 C-1.33 6.01 -1.66 5.02 -2 4 C-0.68 4.33 0.64 4.66 2 5 C2 3.68 2 2.36 2 1 C1.34 0.67 0.68 0.34 0 0 Z " fill="#070807" transform="translate(32,6)"/>
<path d="M0 0 C0.886875 0.78375 1.77375 1.5675 2.6875 2.375 C5.30720519 4.57156991 7.71715601 5.93790341 11 7 C10.01 7.33 9.02 7.66 8 8 C7.34 7.67 6.68 7.34 6 7 C6 7.66 6 8.32 6 9 C6.66 9.33 7.32 9.66 8 10 C6.68 10.33 5.36 10.66 4 11 C3.34 10.01 2.68 9.02 2 8 C2.66 8 3.32 8 4 8 C4 7.01 4 6.02 4 5 C2.35 5 0.7 5 -1 5 C-0.67 3.35 -0.34 1.7 0 0 Z " fill="#726E65" transform="translate(29,62)"/>
<path d="M0 0 C0.7734375 0.495 0.7734375 0.495 1.5625 1 C0.2425 1 -1.0775 1 -2.4375 1 C-2.4375 1.66 -2.4375 2.32 -2.4375 3 C-3.0975 3 -3.7575 3 -4.4375 3 C-4.7675 3.66 -5.0975 4.32 -5.4375 5 C-5.7675 4.34 -6.0975 3.68 -6.4375 3 C-9.46684491 2.34227572 -9.46684491 2.34227572 -12.4375 2 C-12.4375 1.34 -12.4375 0.68 -12.4375 0 C-8.17949462 -1.41933513 -4.20838462 -1.72651677 0 0 Z " fill="#7E7A6F" transform="translate(76.4375,58)"/>
<path d="M0 0 C1.32 0 2.64 0 4 0 C4 0.99 4 1.98 4 3 C7.63 3 11.26 3 15 3 C14.67 5.31 14.34 7.62 14 10 C13.67 10 13.34 10 13 10 C13 8.02 13 6.04 13 4 C12.25234375 4.02320313 11.5046875 4.04640625 10.734375 4.0703125 C9.74953125 4.08835937 8.7646875 4.10640625 7.75 4.125 C6.77546875 4.14820313 5.8009375 4.17140625 4.796875 4.1953125 C1.9803502 3.99862781 0.39050964 3.44568916 -2 2 C-1.34 2 -0.68 2 0 2 C0 1.34 0 0.68 0 0 Z " fill="#9E6932" transform="translate(42,48)"/>
<path d="M0 0 C-0.99 0 -1.98 0 -3 0 C-2.67 0.99 -2.34 1.98 -2 3 C-5 4 -5 4 -7 4 C-7.99 4.495 -7.99 4.495 -9 5 C-9 4.34 -9 3.68 -9 3 C-9.556875 3.33 -10.11375 3.66 -10.6875 4 C-13.30284522 5.1309601 -15.1806646 5.15662974 -18 5 C-15.66828982 2.66828982 -14.1450503 2.31061716 -11 1.4375 C-2.83925889 -0.85177767 -2.83925889 -0.85177767 0 0 Z " fill="#837E72" transform="translate(63,70)"/>
<path d="M0 0 C1.5625 1.5625 1.5625 1.5625 3 4 C2.6875 7.75 2.6875 7.75 2 11 C0.68 11 -0.64 11 -2 11 C-2 10.34 -2 9.68 -2 9 C-4.31 9.33 -6.62 9.66 -9 10 C-9 9.34 -9 8.68 -9 8 C-4.545 7.505 -4.545 7.505 0 7 C0 4.69 0 2.38 0 0 Z " fill="#353533" transform="translate(73,15)"/>
<path d="M0 0 C2.64 0 5.28 0 8 0 C8.33 0.66 8.66 1.32 9 2 C8.67 2.66 8.34 3.32 8 4 C6.35 4 4.7 4 3 4 C3 4.66 3 5.32 3 6 C2.34 6 1.68 6 1 6 C0.67 4.02 0.34 2.04 0 0 Z " fill="#D59D59" transform="translate(39,44)"/>
<path d="M0 0 C0.33 0 0.66 0 1 0 C1 1.98 1 3.96 1 6 C2.65 6 4.3 6 6 6 C3 8 3 8 -1 8 C-1.33 9.32 -1.66 10.64 -2 12 C-4.31 12 -6.62 12 -9 12 C-8.67 11.34 -8.34 10.68 -8 10 C-6.02 10.495 -6.02 10.495 -4 11 C-3.34 9.35 -2.68 7.7 -2 6 C-1.34 6 -0.68 6 0 6 C0 4.02 0 2.04 0 0 Z " fill="#0A0B09" transform="translate(44,16)"/>
<path d="M0 0 C0.66 0 1.32 0 2 0 C2 3.3 2 6.6 2 10 C-0.97 9.505 -0.97 9.505 -4 9 C-4 8.34 -4 7.68 -4 7 C-3.34 6.67 -2.68 6.34 -2 6 C-1.27306096 4.02111039 -0.60183749 2.02045442 0 0 Z " fill="#9F9E9B" transform="translate(32,12)"/>
<path d="M0 0 C1.36511719 0.29197266 1.36511719 0.29197266 2.7578125 0.58984375 C3.45648438 0.74582031 4.15515625 0.90179688 4.875 1.0625 C4.875 2.3825 4.875 3.7025 4.875 5.0625 C0.79121717 4.31999403 -3.14439223 3.23326699 -7.125 2.0625 C-7.125 1.4025 -7.125 0.7425 -7.125 0.0625 C-4.4030754 -1.2984623 -2.9418043 -0.64116248 0 0 Z " fill="#3F403B" transform="translate(48.125,90.9375)"/>
<path d="M0 0 C0.66 0.33 1.32 0.66 2 1 C0.49283703 4.83641483 -1.48413488 6.85990819 -5 9 C-7.76146771 9.32789227 -10.20333676 9.18960429 -13 9 C-10 7 -10 7 -7.625 6.1875 C-4.35210788 4.70690595 -2.4153732 2.62240519 0 0 Z " fill="#0C0E0C" transform="translate(63,88)"/>
<path d="M0 0 C-0.33 1.65 -0.66 3.3 -1 5 C-3.31 5 -5.62 5 -8 5 C-7.6875 3.0625 -7.6875 3.0625 -7 1 C-4 0 -4 0 0 0 Z " fill="#999489" transform="translate(55,64)"/>
<path d="M0 0 C1.65 0 3.3 0 5 0 C5.33 1.65 5.66 3.3 6 5 C3.36 6.65 0.72 8.3 -2 10 C-3 7 -3 7 -2.0625 4.8125 C-1.711875 4.214375 -1.36125 3.61625 -1 3 C-0.67 3.99 -0.34 4.98 0 6 C0.99 5.34 1.98 4.68 3 4 C3 3.34 3 2.68 3 2 C2.01 1.34 1.02 0.68 0 0 Z " fill="#0A0B08" transform="translate(67,44)"/>
<path d="M0 0 C3.96 0 7.92 0 12 0 C12.33 0.99 12.66 1.98 13 3 C9.37 3 5.74 3 2 3 C2 2.34 2 1.68 2 1 C1.34 0.67 0.68 0.34 0 0 Z " fill="#96938B" transform="translate(42,29)"/>
<path d="M0 0 C0.99 0.33 1.98 0.66 3 1 C3 1.66 3 2.32 3 3 C3.8971875 2.6596875 3.8971875 2.6596875 4.8125 2.3125 C5.8953125 2.1578125 5.8953125 2.1578125 7 2 C8.75 3.4375 8.75 3.4375 10 5 C6.50448721 6.21405922 4.30906703 5.777272 0.8125 4.6875 C-0.06792969 4.42324219 -0.94835938 4.15898438 -1.85546875 3.88671875 C-4 3 -4 3 -5 1 C-2.525 1.495 -2.525 1.495 0 2 C0 1.34 0 0.68 0 0 Z " fill="#4A4D48" transform="translate(34,82)"/>
<path d="M0 0 C2.875 -0.125 2.875 -0.125 6 0 C8 2 8 2 8.125 5.125 C8.08375 6.07375 8.0425 7.0225 8 8 C7.13375 7.071875 7.13375 7.071875 6.25 6.125 C4.19750179 4.18652947 2.56633418 3.09985751 0 2 C0 1.34 0 0.68 0 0 Z " fill="#9D998E" transform="translate(67,40)"/>
<path d="M0 0 C0 3 0 3 -1.3125 4.38671875 C-2.875 5.59114583 -4.4375 6.79557292 -6 8 C-8.64 7.01 -11.28 6.02 -14 5 C-14 4.01 -14 3.02 -14 2 C-13.34 2 -12.68 2 -12 2 C-12 2.99 -12 3.98 -12 5 C-6.26133714 4.75873003 -6.26133714 4.75873003 -1.5 1.9375 C-1.005 1.298125 -0.51 0.65875 0 0 Z " fill="#141613" transform="translate(67,77)"/>
<path d="M0 0 C2.97 0.99 5.94 1.98 9 3 C9 3.99 9 4.98 9 6 C7.35 6.66 5.7 7.32 4 8 C4.33 7.01 4.66 6.02 5 5 C3.68 4.67 2.36 4.34 1 4 C0.67 2.68 0.34 1.36 0 0 Z " fill="#55544C" transform="translate(62,58)"/>
<path d="M0 0 C0.66 0 1.32 0 2 0 C2 2.31 2 4.62 2 7 C2.66 7.33 3.32 7.66 4 8 C3.67 8.66 3.34 9.32 3 10 C2.34 10 1.68 10 1 10 C1 11.65 1 13.3 1 15 C0.67 15 0.34 15 0 15 C0 10.05 0 5.1 0 0 Z " fill="#D5D3CF" transform="translate(48,6)"/>
<path d="M0 0 C1.46015291 0.28241641 2.91809793 0.57626614 4.375 0.875 C5.18710937 1.03742188 5.99921875 1.19984375 6.8359375 1.3671875 C9 2 9 2 11 4 C8.83032311 4.95465783 7.43671207 5.14401212 5.17578125 4.3984375 C3.4315257 3.64129615 1.71372869 2.82390802 0 2 C0 1.34 0 0.68 0 0 Z " fill="#0B0E0B" transform="translate(26,88)"/>
<path d="M0 0 C1.32 0.66 2.64 1.32 4 2 C3.01 2.66 2.02 3.32 1 4 C0.731875 4.680625 0.46375 5.36125 0.1875 6.0625 C-0.204375 6.701875 -0.59625 7.34125 -1 8 C-4.125 8.75 -4.125 8.75 -7 9 C-6.57847656 8.51789063 -6.15695313 8.03578125 -5.72265625 7.5390625 C-5.17480469 6.90742187 -4.62695312 6.27578125 -4.0625 5.625 C-3.51722656 4.99851562 -2.97195312 4.37203125 -2.41015625 3.7265625 C-0.93041376 2.04367666 -0.93041376 2.04367666 0 0 Z " fill="#8D897E" transform="translate(48,81)"/>
<path d="M0 0 C-0.33 1.98 -0.66 3.96 -1 6 C-0.34 6.33 0.32 6.66 1 7 C-1.97 6.505 -1.97 6.505 -5 6 C-5 4.68 -5 3.36 -5 2 C-2 0 -2 0 0 0 Z " fill="#A6A298" transform="translate(25,63)"/>
<path d="M0 0 C3 2 3 2 3.6875 4.125 C3.8421875 5.053125 3.8421875 5.053125 4 6 C5.32 6 6.64 6 8 6 C8 6.66 8 7.32 8 8 C7.34 8 6.68 8 6 8 C6 8.66 6 9.32 6 10 C3.53199953 8.84826645 1.95216435 7.95216435 0 6 C-0.125 2.875 -0.125 2.875 0 0 Z " fill="#090A09" transform="translate(74,15)"/>
<path d="M0 0 C-2.31 2.31 -4.62 4.62 -7 7 C-7.33 6.01 -7.66 5.02 -8 4 C-8.33 3.34 -8.66 2.68 -9 2 C-4.5 -1.125 -4.5 -1.125 0 0 Z " fill="#191B18" transform="translate(71,85)"/>
<path d="M0 0 C3.63 0 7.26 0 11 0 C10.01 0.33 9.02 0.66 8 1 C7.26676204 3.01508358 7.26676204 3.01508358 7 5 C4.625 4.75 4.625 4.75 2 4 C1.34 2.68 0.68 1.36 0 0 Z " fill="#48463F" transform="translate(40,64)"/>
<path d="M0 0 C2 1 2 1 4 3 C4.36933645 5.75372909 4.18336678 8.20365661 4 11 C3.34 11 2.68 11 2 11 C0.57741188 7.17679443 -0.24042276 4.08718695 0 0 Z " fill="#26180D" transform="translate(36,48)"/>
<path d="M0 0 C1.15957207 3.47871621 0.77456651 4.34219645 -0.4375 7.6875 C-0.72496094 8.49574219 -1.01242188 9.30398437 -1.30859375 10.13671875 C-1.65083984 11.05904297 -1.65083984 11.05904297 -2 12 C-2.33 12 -2.66 12 -3 12 C-3.36923077 4.61538462 -3.36923077 4.61538462 -1.5 1.5 C-1.005 1.005 -0.51 0.51 0 0 Z " fill="#130D08" transform="translate(62,48)"/>
<path d="M0 0 C1.65 0 3.3 0 5 0 C5.33 0.99 5.66 1.98 6 3 C5.67 3.66 5.34 4.32 5 5 C2.525 4.01 2.525 4.01 0 3 C0 2.01 0 1.02 0 0 Z " fill="#878C88" transform="translate(29,79)"/>
<path d="M0 0 C1.65 0 3.3 0 5 0 C5 1.32 5 2.64 5 4 C3.35 4.33 1.7 4.66 0 5 C0 3.35 0 1.7 0 0 Z " fill="#3D3E39" transform="translate(19,75)"/>
<path d="M0 0 C1.65 0.33 3.3 0.66 5 1 C4.01 1.495 4.01 1.495 3 2 C2.731875 2.66 2.46375 3.32 2.1875 4 C1 6 1 6 -1.625 6.75 C-2.800625 6.87375 -2.800625 6.87375 -4 7 C-2.71034824 5.62437146 -1.37310707 4.29233607 0 3 C0.66 3 1.32 3 2 3 C2 2.34 2 1.68 2 1 C1.34 0.67 0.68 0.34 0 0 Z " fill="#3B3B35" transform="translate(63,62)"/>
<path d="M0 0 C2.125 0.9375 2.125 0.9375 4 2 C2.71034824 3.37562854 1.37310707 4.70766393 0 6 C-0.66 6 -1.32 6 -2 6 C-2 4.35 -2 2.7 -2 1 C-1.34 0.67 -0.68 0.34 0 0 Z " fill="#68655C" transform="translate(57,62)"/>
<path d="M0 0 C0.66 0 1.32 0 2 0 C1.49396008 2.16874252 1.00016187 3.99967627 0 6 C-0.66 6 -1.32 6 -2 6 C-2.33 6.66 -2.66 7.32 -3 8 C-3.99 7.67 -4.98 7.34 -6 7 C-5.67 6.01 -5.34 5.02 -5 4 C-2.4375 2.8125 -2.4375 2.8125 0 2 C0 1.34 0 0.68 0 0 Z " fill="#49453B" transform="translate(31,48)"/>
<path d="M0 0 C1.32 0.33 2.64 0.66 4 1 C4.33 2.65 4.66 4.3 5 6 C2.525 5.01 2.525 5.01 0 4 C0 2.68 0 1.36 0 0 Z " fill="#844C16" transform="translate(35,44)"/>
<path d="M0 0 C4.455 0.99 4.455 0.99 9 2 C8.67 3.32 8.34 4.64 8 6 C7.67 5.34 7.34 4.68 7 4 C4.6859378 3.26924352 2.35171131 2.59861742 0 2 C0 1.34 0 0.68 0 0 Z " fill="#41423D" transform="translate(39,78)"/>
<path d="M0 0 C0.66 0 1.32 0 2 0 C1.34 2.31 0.68 4.62 0 7 C-0.99 6.67 -1.98 6.34 -3 6 C-2.42655063 3.13275314 -2.1385485 2.1385485 0 0 Z " fill="#A09D93" transform="translate(17,74)"/>
<path d="M0 0 C2.31 0.33 4.62 0.66 7 1 C7 1.66 7 2.32 7 3 C4.69 3.66 2.38 4.32 0 5 C0 3.35 0 1.7 0 0 Z " fill="#2D2C27" transform="translate(63,54)"/>
<path d="M0 0 C0.99 0.33 1.98 0.66 3 1 C1.38405168 3.04119788 -0.2856382 5.04072937 -2 7 C-2.66 7 -3.32 7 -4 7 C-3.43628586 3.73045798 -2.50037734 2.17424117 0 0 Z " fill="#5F5D54" transform="translate(36,31)"/>
<path d="M0 0 C0.99 0.33 1.98 0.66 3 1 C3 2.65 3 4.3 3 6 C1.68 5.67 0.36 5.34 -1 5 C-0.67 3.35 -0.34 1.7 0 0 Z M-2 5 C-1.34 5.66 -0.68 6.32 0 7 C-0.66 7 -1.32 7 -2 7 C-2 6.34 -2 5.68 -2 5 Z " fill="#51514F" transform="translate(31,5)"/>
<path d="M0 0 C2.475 0.99 2.475 0.99 5 2 C4.505 2.4125 4.01 2.825 3.5 3.25 C1.56613908 5.12202338 1.56613908 5.12202338 2 9 C1.34 9 0.68 9 0 9 C-1.125 3.375 -1.125 3.375 0 0 Z " fill="#2D2C26" transform="translate(66,41)"/>
<path d="M0 0 C1.98 0 3.96 0 6 0 C6 1.32 6 2.64 6 4 C3.03 3.505 3.03 3.505 0 3 C0 2.01 0 1.02 0 0 Z " fill="#B0AA9E" transform="translate(55,33)"/>
<path d="M0 0 C1.65 0 3.3 0 5 0 C5 0.66 5 1.32 5 2 C4.34 2 3.68 2 3 2 C3 2.66 3 3.32 3 4 C3.66 4.33 4.32 4.66 5 5 C4.01 5.33 3.02 5.66 2 6 C2 5.34 2 4.68 2 4 C1.34 4 0.68 4 0 4 C0 2.68 0 1.36 0 0 Z " fill="#515150" transform="translate(64,15)"/>
<path d="M0 0 C0.66 0 1.32 0 2 0 C2.33 2.31 2.66 4.62 3 7 C2.34 7 1.68 7 1 7 C0.34 7.66 -0.32 8.32 -1 9 C-1.80967438 6.08517222 -2.21845993 4.53886783 -1.0625 1.6875 C-0.711875 1.130625 -0.36125 0.57375 0 0 Z " fill="#949491" transform="translate(78,12)"/>
<path d="M0 0 C1.9375 0.75 1.9375 0.75 4 2 C4.75 4.125 4.75 4.125 5 6 C4.34 6 3.68 6 3 6 C2.67 6.99 2.34 7.98 2 9 C2 7.02 2 5.04 2 3 C1.01 2.67 0.02 2.34 -1 2 C-0.67 1.34 -0.34 0.68 0 0 Z " fill="#1E1F1D" transform="translate(41,4)"/>
<path d="M0 0 C0.99 0.33 1.98 0.66 3 1 C0.64722731 3.72426311 -1.62496331 4.8141763 -5 6 C-5 4.68 -5 3.36 -5 2 C-3.35 2 -1.7 2 0 2 C0 1.34 0 0.68 0 0 Z " fill="#AAA69A" transform="translate(66,72)"/>
<path d="M0 0 C1.98 0.495 1.98 0.495 4 1 C4.33 2.32 4.66 3.64 5 5 C4.34 5 3.68 5 3 5 C2.67 4.34 2.34 3.68 2 3 C1.67 3.99 1.34 4.98 1 6 C0.34 6 -0.32 6 -1 6 C-0.67 4.02 -0.34 2.04 0 0 Z " fill="#2C2B24" transform="translate(21,29)"/>
<path d="M0 0 C2.475 0.99 2.475 0.99 5 2 C4.67 4.31 4.34 6.62 4 9 C3.01 8.34 2.02 7.68 1 7 C1.66 7 2.32 7 3 7 C3 5.68 3 4.36 3 3 C1.68 2.34 0.36 1.68 -1 1 C-0.67 0.67 -0.34 0.34 0 0 Z " fill="#89857C" transform="translate(58,30)"/>
<path d="M0 0 C1.65 0.33 3.3 0.66 5 1 C4.67 1.99 4.34 2.98 4 4 C3.01 3.67 2.02 3.34 1 3 C0.67 3.66 0.34 4.32 0 5 C-0.33 4.01 -0.66 3.02 -1 2 C-0.67 1.34 -0.34 0.68 0 0 Z " fill="#141511" transform="translate(12,6)"/>
<path d="M0 0 C3.1875 0.875 3.1875 0.875 6 2 C5.01 2.66 4.02 3.32 3 4 C-0.1875 3.125 -0.1875 3.125 -3 2 C-2.01 1.34 -1.02 0.68 0 0 Z " fill="#2D2F2A" transform="translate(22,83)"/>
<path d="M0 0 C0.66 0 1.32 0 2 0 C2 1.65 2 3.3 2 5 C0.68 5.33 -0.64 5.66 -2 6 C-2.33 5.01 -2.66 4.02 -3 3 C-2.01 2.67 -1.02 2.34 0 2 C0 1.34 0 0.68 0 0 Z " fill="#423F38" transform="translate(81,74)"/>
<path d="M0 0 C2.31 0.66 4.62 1.32 7 2 C7 2.66 7 3.32 7 4 C2.545 3.01 2.545 3.01 -2 2 C-1.34 1.34 -0.68 0.68 0 0 Z " fill="#3D3D38" transform="translate(28,71)"/>
<path d="M0 0 C0.33 0.66 0.66 1.32 1 2 C0.01 3.485 0.01 3.485 -1 5 C-3.625 5.1875 -3.625 5.1875 -6 5 C-2.25 1.125 -2.25 1.125 0 0 Z " fill="#868277" transform="translate(69,64)"/>
<path d="M0 0 C5.94 0.99 5.94 0.99 12 2 C12 2.33 12 2.66 12 3 C10.56465159 3.2226746 9.12654475 3.42761906 7.6875 3.625 C6.88699219 3.74101563 6.08648437 3.85703125 5.26171875 3.9765625 C3 4 3 4 0 2 C0 1.34 0 0.68 0 0 Z " fill="#AA7A3D" transform="translate(35,41)"/>
<path d="M0 0 C0.33 0.99 0.66 1.98 1 3 C0.01 3.99 -0.98 4.98 -2 6 C-2.66 4.68 -3.32 3.36 -4 2 C-2.68 1.34 -1.36 0.68 0 0 Z " fill="#0D0F0B" transform="translate(21,26)"/>
<path d="M0 0 C0.66 0 1.32 0 2 0 C2 0.66 2 1.32 2 2 C2.99 2 3.98 2 5 2 C5 2.99 5 3.98 5 5 C3.35 4.67 1.7 4.34 0 4 C0 2.68 0 1.36 0 0 Z " fill="#BBBAB6" transform="translate(35,22)"/>
<path d="M0 0 C2.31 0 4.62 0 7 0 C6.34 1.32 5.68 2.64 5 4 C4.01 3.67 3.02 3.34 2 3 C2 2.34 2 1.68 2 1 C1.34 0.67 0.68 0.34 0 0 Z " fill="#747472" transform="translate(61,8)"/>
<path d="M0 0 C1.32 0.66 2.64 1.32 4 2 C3.67 2.99 3.34 3.98 3 5 C1.35 4.67 -0.3 4.34 -2 4 C-1.34 2.68 -0.68 1.36 0 0 Z " fill="#707773" transform="translate(37,80)"/>
<path d="M0 0 C1.32 0 2.64 0 4 0 C2.25 3.875 2.25 3.875 0 5 C-0.66 4.34 -1.32 3.68 -2 3 C-1.34 2.01 -0.68 1.02 0 0 Z " fill="#1F201D" transform="translate(78,71)"/>
<path d="M0 0 C0.33 0.99 0.66 1.98 1 3 C1.66 3 2.32 3 3 3 C3 3.66 3 4.32 3 5 C0.625 6.6875 0.625 6.6875 -2 8 C-2.66 7.67 -3.32 7.34 -4 7 C-3.525625 6.5875 -3.05125 6.175 -2.5625 5.75 C-0.83733482 3.817815 -0.43415125 2.51807725 0 0 Z " fill="#0A0B09" transform="translate(62,60)"/>
<path d="M0 0 C1.134375 0.020625 2.26875 0.04125 3.4375 0.0625 C2.1175 0.3925 0.7975 0.7225 -0.5625 1.0625 C-0.5625 1.7225 -0.5625 2.3825 -0.5625 3.0625 C-1.2225 3.0625 -1.8825 3.0625 -2.5625 3.0625 C-2.8925 3.7225 -3.2225 4.3825 -3.5625 5.0625 C-4.125 3.125 -4.125 3.125 -4.5625 1.0625 C-3.5625 0.0625 -3.5625 0.0625 0 0 Z " fill="#8B867B" transform="translate(74.5625,57.9375)"/>
<path d="M0 0 C2.9375 0.375 2.9375 0.375 6 1 C6.33 1.66 6.66 2.32 7 3 C4.69 3 2.38 3 0 3 C0 2.01 0 1.02 0 0 Z " fill="#CD812A" transform="translate(46,48)"/>
<path d="M0 0 C0.66 1.32 1.32 2.64 2 4 C0.35 4.33 -1.3 4.66 -3 5 C-2.625 3.0625 -2.625 3.0625 -2 1 C-1.34 0.67 -0.68 0.34 0 0 Z " fill="#A19C8F" transform="translate(38,33)"/>
<path d="M0 0 C0.99 0 1.98 0 3 0 C3.33 1.98 3.66 3.96 4 6 C3.01 6 2.02 6 1 6 C0.67 4.02 0.34 2.04 0 0 Z " fill="#D9D7CD" transform="translate(41,30)"/>
<path d="M0 0 C1.98 0 3.96 0 6 0 C6 0.66 6 1.32 6 2 C3.69 2.33 1.38 2.66 -1 3 C-0.67 2.01 -0.34 1.02 0 0 Z " fill="#131411" transform="translate(65,24)"/>
<path d="M0 0 C0.33 0.66 0.66 1.32 1 2 C3.02463255 2.65213292 3.02463255 2.65213292 5 3 C4.67 4.32 4.34 5.64 4 7 C4 6.01 4 5.02 4 4 C3.34 4 2.68 4 2 4 C1.67 5.32 1.34 6.64 1 8 C0.67 5.36 0.34 2.72 0 0 Z " fill="#656563" transform="translate(54,17)"/>
<path d="M0 0 C0.33 0.66 0.66 1.32 1 2 C-0.375 4 -0.375 4 -2 6 C-2.66 6 -3.32 6 -4 6 C-2.84826645 3.53199953 -1.95216435 1.95216435 0 0 Z " fill="#34322B" transform="translate(67,89)"/>
<path d="M0 0 C0 0.66 0 1.32 0 2 C-1.32 2 -2.64 2 -4 2 C-4 2.66 -4 3.32 -4 4 C-4.66 4 -5.32 4 -6 4 C-6 3.01 -6 2.02 -6 1 C-4 0 -4 0 0 0 Z " fill="#2D2B24" transform="translate(24,58)"/>
<path d="M0 0 C0.99 0 1.98 0 3 0 C2.67 0.99 2.34 1.98 2 3 C1.01 3 0.02 3 -1 3 C-0.67 2.01 -0.34 1.02 0 0 Z " fill="#25241E" transform="translate(13,69)"/>
<path d="M0 0 C0.99 0 1.98 0 3 0 C3 0.66 3 1.32 3 2 C1.02 2.99 1.02 2.99 -1 4 C-0.67 2.68 -0.34 1.36 0 0 Z " fill="#262520" transform="translate(78,81)"/>
<path d="M0 0 C0.66 0 1.32 0 2 0 C2 0.99 2 1.98 2 3 C1.01 3 0.02 3 -1 3 C-0.67 2.01 -0.34 1.02 0 0 Z " fill="#2B2A25" transform="translate(74,84)"/>
<path d="M0 0 C0.99 0 1.98 0 3 0 C2.67 0.99 2.34 1.98 2 3 C1.34 3 0.68 3 0 3 C0 2.01 0 1.02 0 0 Z " fill="#262520" transform="translate(26,48)"/>
<path d="M0 0 C0.99 0 1.98 0 3 0 C3 0.99 3 1.98 3 3 C2.01 2.67 1.02 2.34 0 2 C0 1.34 0 0.68 0 0 Z " fill="#1F1E1A" transform="translate(78,42)"/>
<path d="M0 0 C0.66 0 1.32 0 2 0 C2 1.65 2 3.3 2 5 C1.34 4.34 0.68 3.68 0 3 C0 2.01 0 1.02 0 0 Z " fill="#34312A" transform="translate(28,43)"/>
<path d="M0 0 C0.99 0.495 0.99 0.495 2 1 C2 1.99 2 2.98 2 4 C1.34 4 0.68 4 0 4 C0 2.68 0 1.36 0 0 Z " fill="#46453F" transform="translate(32,93)"/>
<path d="M0 0 C0.99 0.33 1.98 0.66 3 1 C2.67 1.66 2.34 2.32 2 3 C1.34 3 0.68 3 0 3 C0 2.01 0 1.02 0 0 Z " fill="#32302B" transform="translate(69,88)"/>
<path d="M0 0 C0.66 0 1.32 0 2 0 C1.67 0.99 1.34 1.98 1 3 C0.34 2.34 -0.32 1.68 -1 1 C-0.67 0.67 -0.34 0.34 0 0 Z " fill="#282622" transform="translate(19,89)"/>
<path d="M0 0 C0.99 0 1.98 0 3 0 C3 0.66 3 1.32 3 2 C2.01 2 1.02 2 0 2 C0 1.34 0 0.68 0 0 Z " fill="#23211B" transform="translate(26,40)"/>
<path d="M0 0 C0.33 0.99 0.66 1.98 1 3 C0.34 3 -0.32 3 -1 3 C-0.67 2.01 -0.34 1.02 0 0 Z " fill="#1E1D18" transform="translate(77,52)"/>
<path d="M0 0 C0.66 0 1.32 0 2 0 C1.67 0.99 1.34 1.98 1 3 C0.67 2.01 0.34 1.02 0 0 Z " fill="#2E2C25" transform="translate(23,49)"/>
<path d="M0 0 C0.66 0 1.32 0 2 0 C2 0.66 2 1.32 2 2 C1.01 1.67 0.02 1.34 -1 1 C-0.67 0.67 -0.34 0.34 0 0 Z " fill="#181814" transform="translate(80,48)"/>
<path d="M0 0 C0.99 0.495 0.99 0.495 2 1 C2 1.66 2 2.32 2 3 C1.34 3 0.68 3 0 3 C0 2.01 0 1.02 0 0 Z " fill="#181711" transform="translate(13,24)"/>
<path d="M0 0 C0.33 1.32 0.66 2.64 1 4 C0.34 3.34 -0.32 2.68 -1 2 C-0.67 1.34 -0.34 0.68 0 0 Z " fill="#34322C" transform="translate(89,0)"/>
<path d="M0 0 C0.66 0 1.32 0 2 0 C2 0.66 2 1.32 2 2 C1.34 2 0.68 2 0 2 C0 1.34 0 0.68 0 0 Z " fill="#32302A" transform="translate(20,92)"/>
<path d="M0 0 C0.66 0 1.32 0 2 0 C2 0.66 2 1.32 2 2 C1.34 2 0.68 2 0 2 C0 1.34 0 0.68 0 0 Z " fill="#302F26" transform="translate(14,64)"/>
<path d="M0 0 C0.66 0 1.32 0 2 0 C2 0.66 2 1.32 2 2 C1.34 2 0.68 2 0 2 C0 1.34 0 0.68 0 0 Z " fill="#2A2823" transform="translate(24,56)"/>
<path d="M0 0 C0.66 0 1.32 0 2 0 C2 0.66 2 1.32 2 2 C1.34 2 0.68 2 0 2 C0 1.34 0 0.68 0 0 Z " fill="#26241F" transform="translate(21,53)"/>
<path d="M0 0 C0.66 0 1.32 0 2 0 C2 0.66 2 1.32 2 2 C1.34 2 0.68 2 0 2 C0 1.34 0 0.68 0 0 Z " fill="#1A1915" transform="translate(24,43)"/>
<path d="M0 0 C0.66 0 1.32 0 2 0 C2 0.66 2 1.32 2 2 C1.34 2 0.68 2 0 2 C0 1.34 0 0.68 0 0 Z " fill="#24231E" transform="translate(78,39)"/>
<path d="M0 0 C0.66 0 1.32 0 2 0 C2 0.66 2 1.32 2 2 C1.34 2 0.68 2 0 2 C0 1.34 0 0.68 0 0 Z " fill="#25241E" transform="translate(74,36)"/>
<path d="M0 0 C0.66 0 1.32 0 2 0 C2 0.66 2 1.32 2 2 C1.34 2 0.68 2 0 2 C0 1.34 0 0.68 0 0 Z " fill="#1C1B17" transform="translate(44,25)"/>
<path d="" fill="#857F73" transform="translate(0,0)"/>
<path d="" fill="#918F84" transform="translate(0,0)"/>
<path d="" fill="#918F88" transform="translate(0,0)"/>
<path d="" fill="#9D9789" transform="translate(0,0)"/>
<path d="" fill="#5D594B" transform="translate(0,0)"/>
</svg>
