<?xml version="1.0" encoding="UTF-8"?>
<svg version="1.1" xmlns="http://www.w3.org/2000/svg" width="1024" height="1024">
<path d="M0 0 C337.92 0 675.84 0 1024 0 C1024 337.92 1024 675.84 1024 1024 C686.08 1024 348.16 1024 0 1024 C0 686.08 0 348.16 0 0 Z " fill="#F2E3D3" transform="translate(0,0)"/>
<path d="M0 0 C1.21697067 0.00323273 1.21697067 0.00323273 2.45852661 0.00653076 C35.57538189 0.14724415 66.30553714 7.72784854 96.0625 22.3125 C96.13315937 25.3508529 96.16342797 27.94849748 95.34765625 30.890625 C94.82347117 33.4019232 94.82347117 33.4019232 96.30859375 35.734375 C101.91081543 41.68611141 105.89827842 42.75340981 113.91235352 42.99902344 C116.02254302 42.99966488 118.13312213 42.96367697 120.24194336 42.88769531 C127.04387766 42.74581782 130.98376711 43.78124421 136.51342773 47.81567383 C137.28021851 48.55660278 137.28021851 48.55660278 138.0625 49.3125 C138.0625 49.9725 138.0625 50.6325 138.0625 51.3125 C138.87654297 51.65087891 138.87654297 51.65087891 139.70703125 51.99609375 C142.77899918 53.71293155 145.20176946 55.98157803 147.75 58.375 C148.28036865 58.86959717 148.8107373 59.36419434 149.35717773 59.8737793 C150.9309001 61.34785393 152.49683113 62.82988233 154.0625 64.3125 C155.24972656 65.41851562 155.24972656 65.41851562 156.4609375 66.546875 C177.72039706 86.9620961 194.65302044 115.25654946 203.40478516 143.26757812 C204.08089155 145.36968175 204.81843577 147.44092662 205.57421875 149.515625 C231.25571435 220.89258274 218.08221504 306.80496941 187.12695312 374.35400391 C185.25153531 378.30606037 183.25928166 382.19251073 181.22998047 386.06738281 C179.91567589 388.59484933 178.63166348 391.13670068 177.34765625 393.6796875 C155.09907185 437.43746613 123.65893592 481.74420136 84.640625 512.29296875 C81.85673539 514.47368228 79.18563649 516.76209825 76.5 519.0625 C61.0864549 531.85455981 44.3978513 542.32460258 27.0625 552.3125 C26.33434082 552.73402344 25.60618164 553.15554688 24.85595703 553.58984375 C-19.81653696 579.20161791 -74.13414418 592.13497408 -125.55859375 586.79296875 C-132.10240564 586.11456853 -138.61706282 586.2919372 -145.1875 586.375 C-207.34925379 586.69463683 -265.48569986 566.11158592 -315.9375 530.3125 C-316.92363281 529.62414062 -317.90976562 528.93578125 -318.92578125 528.2265625 C-326.29208947 523.00298648 -333.11722577 517.21807599 -339.9375 511.3125 C-340.68 510.67183594 -341.4225 510.03117187 -342.1875 509.37109375 C-344.1146836 507.69646445 -346.02693297 506.00604522 -347.9375 504.3125 C-348.64519531 503.69761719 -349.35289062 503.08273437 -350.08203125 502.44921875 C-355.62227034 497.57050075 -360.89603095 492.45910763 -366.125 487.25 C-366.79015625 486.58943604 -367.4553125 485.92887207 -368.140625 485.24829102 C-372.60855721 480.76647979 -376.83378571 476.12903 -380.9375 471.3125 C-381.48204834 470.67465576 -382.02659668 470.03681152 -382.58764648 469.37963867 C-396.50832521 452.94979545 -408.67962374 435.65507426 -419.9375 417.3125 C-420.76025808 415.9894847 -421.58316645 414.66656284 -422.40625 413.34375 C-427.38625752 405.27064176 -431.79402176 396.99884932 -435.90625 388.453125 C-436.97995674 386.22437009 -438.06806258 384.00296599 -439.15625 381.78125 C-444.29306247 371.2055893 -448.84196272 360.46979768 -453.08251953 349.50585938 C-453.8271271 347.59564965 -454.59695469 345.69530865 -455.37109375 343.796875 C-458.68150492 335.58788032 -461.05244416 327.22195216 -463.30810547 318.67724609 C-463.93050253 316.33879071 -464.57405944 314.00709092 -465.22265625 311.67578125 C-469.95896887 294.46856098 -473.25781796 277.08176795 -474.9375 259.3125 C-475.04964844 258.21292969 -475.16179687 257.11335938 -475.27734375 255.98046875 C-480.35204004 196.26589184 -468.83509257 134.64654052 -431.9375 86.3125 C-430.98423828 85.02279297 -430.98423828 85.02279297 -430.01171875 83.70703125 C-424.81233315 76.98638252 -418.85341348 71.02400879 -412.875 65 C-412.02373535 64.13938965 -411.1724707 63.2787793 -410.29541016 62.39208984 C-405.45567497 57.57675511 -400.55027195 53.20729609 -394.9375 49.3125 C-392.46949953 50.46423355 -390.88966435 51.36033565 -388.9375 53.3125 C-383.85809881 54.055827 -380.34431401 52.3688987 -375.890625 50.1875 C-373.9375 49.3125 -373.9375 49.3125 -371.9375 49.3125 C-371.380625 47.4871875 -371.380625 47.4871875 -370.8125 45.625 C-364.74207991 27.75413712 -364.74207991 27.75413712 -359.6875 24.75 C-358.45512301 24.2271734 -357.20284864 23.74952804 -355.9375 23.3125 C-355.25429688 23.02890625 -354.57109375 22.7453125 -353.8671875 22.453125 C-352.24815983 21.78356102 -350.61948542 21.13708227 -348.984375 20.5078125 C-346.66377698 19.59742405 -344.37070698 18.65632296 -342.078125 17.6796875 C-292.48297337 -3.37660097 -235.90333186 -4.54269315 -185.01220703 13.57470703 C-182.56598213 14.44461662 -180.10888017 15.28075703 -177.65234375 16.12109375 C-165.55273613 20.32661677 -154.26036558 25.31918903 -142.98291016 31.359375 C-141.69073159 32.04836551 -140.39569904 32.73203433 -139.09765625 33.40991211 C-137.36697341 34.31390118 -135.64598429 35.23638094 -133.92578125 36.16015625 C-130.49512261 37.48308997 -129.40776503 37.28063148 -125.9375 36.3125 C-124.21495424 35.51040765 -122.52298944 34.64075375 -120.859375 33.72265625 C-119.87614258 33.190354 -118.89291016 32.65805176 -117.87988281 32.10961914 C-116.82639648 31.53719482 -115.77291016 30.96477051 -114.6875 30.375 C-79.62214125 11.77887982 -39.88736298 -0.19103681 0 0 Z " fill="#B68265" transform="translate(641.9375,256.6875)"/>
<path d="M0 0 C1.27308014 0.00054382 2.54616028 0.00108765 3.8578186 0.00164795 C24.7978373 0.04264026 45.26982208 0.97461807 65.9375 4.375 C66.60706726 4.48390564 67.27663452 4.59281128 67.9664917 4.70501709 C136.21517452 15.90357861 202.4992563 43.34701218 256.9375 86.375 C257.75347656 87.01179688 258.56945312 87.64859375 259.41015625 88.3046875 C274.71435804 100.38312251 289.00508628 113.37342216 302.8125 127.125 C303.60930176 127.91712891 304.40610352 128.70925781 305.22705078 129.52539062 C310.00264797 134.31401125 314.54755831 139.23186857 318.9375 144.375 C319.82649575 145.39611826 320.71579518 146.41697225 321.60546875 147.4375 C335.08207217 163.14975702 346.69125325 180.00905465 357.9375 197.375 C358.38722168 198.06916016 358.83694336 198.76332031 359.30029297 199.47851562 C389.06970537 245.96123754 408.16333159 299.6017447 416.75 353.9375 C416.94505127 355.17169678 417.14010254 356.40589355 417.34106445 357.67749023 C417.92326453 361.57106559 418.4532464 365.46825592 418.9375 369.375 C419.03039307 370.12053131 419.12328613 370.86606262 419.21899414 371.63418579 C421.11020234 387.38513838 421.33757344 403.08753933 421.3125 418.9375 C421.31168427 420.88263489 421.31168427 420.88263489 421.31085205 422.86706543 C421.27029734 443.95875821 420.35365816 464.55786688 416.9375 485.375 C416.82859436 486.04349976 416.71968872 486.71199951 416.60748291 487.40075684 C405.40203535 555.65267521 377.96901744 621.93229069 334.9375 676.375 C334.30070313 677.19097656 333.66390625 678.00695312 333.0078125 678.84765625 C320.92937749 694.15185804 307.93907784 708.44258628 294.1875 722.25 C293.39537109 723.04680176 292.60324219 723.84360352 291.78710938 724.66455078 C286.99848875 729.44014797 282.08063143 733.98505831 276.9375 738.375 C275.91638174 739.26399575 274.89552775 740.15329518 273.875 741.04296875 C258.16274298 754.51957217 241.30344535 766.12875325 223.9375 777.375 C223.24333984 777.82472168 222.54917969 778.27444336 221.83398438 778.73779297 C170.78111779 811.43411059 110.93173773 831.24736165 50.9375 838.375 C50.2215567 838.46187073 49.5056134 838.54874146 48.76797485 838.63824463 C33.14422718 840.4854053 17.59569527 840.77534997 1.875 840.75 C0.60191986 840.74945618 -0.67116028 840.74891235 -1.9828186 840.74835205 C-22.9228373 840.70735974 -43.39482208 839.77538193 -64.0625 836.375 C-64.73206726 836.26609436 -65.40163452 836.15718872 -66.0914917 836.04498291 C-134.34017452 824.84642139 -200.6242563 797.40298782 -255.0625 754.375 C-255.87847656 753.73820313 -256.69445312 753.10140625 -257.53515625 752.4453125 C-272.83935804 740.36687749 -287.13008628 727.37657784 -300.9375 713.625 C-302.13270264 712.43680664 -302.13270264 712.43680664 -303.35205078 711.22460938 C-308.12764797 706.43598875 -312.67255831 701.51813143 -317.0625 696.375 C-317.95149575 695.35388174 -318.84079518 694.33302775 -319.73046875 693.3125 C-333.20707217 677.60024298 -344.81625325 660.74094535 -356.0625 643.375 C-356.51222168 642.68083984 -356.96194336 641.98667969 -357.42529297 641.27148438 C-390.12161059 590.21861779 -409.93486165 530.36923773 -417.0625 470.375 C-417.14937073 469.6590567 -417.23624146 468.9431134 -417.32574463 468.20547485 C-419.1729053 452.58172718 -419.46284997 437.03319527 -419.4375 421.3125 C-419.43695618 420.03941986 -419.43641235 418.76633972 -419.43585205 417.4546814 C-419.39485974 396.5146627 -418.46288193 376.04267792 -415.0625 355.375 C-414.95359436 354.70543274 -414.84468872 354.03586548 -414.73248291 353.3460083 C-403.53392139 285.09732548 -376.09048782 218.8132437 -333.0625 164.375 C-332.10730469 163.15103516 -332.10730469 163.15103516 -331.1328125 161.90234375 C-319.05437749 146.59814196 -306.06407784 132.30741372 -292.3125 118.5 C-291.52037109 117.70319824 -290.72824219 116.90639648 -289.91210938 116.08544922 C-285.12348875 111.30985203 -280.20563143 106.76494169 -275.0625 102.375 C-274.04138174 101.48600425 -273.02052775 100.59670482 -272 99.70703125 C-256.28774298 86.23042783 -239.42844535 74.62124675 -222.0625 63.375 C-221.02125977 62.70041748 -221.02125977 62.70041748 -219.95898438 62.01220703 C-168.90611779 29.31588941 -109.05673773 9.50263835 -49.0625 2.375 C-48.3465567 2.28812927 -47.6306134 2.20125854 -46.89297485 2.11175537 C-31.26922718 0.2645947 -15.72069527 -0.02534997 0 0 Z M91.43066406 168.83251953 C89.10300513 169.33898821 86.77272929 169.78623854 84.4296875 170.21484375 C57.70693369 175.31939325 31.63682271 186.14214133 8.19873047 199.82226562 C5.55433483 201.31080117 3.52899524 202.37779447 0.45703125 202.36328125 C-3.09092331 200.97160295 -6.37027061 199.17128571 -9.6875 197.3125 C-18.88686672 192.31158257 -28.33563475 188.22990504 -38.0625 184.375 C-39.20259521 183.91480469 -39.20259521 183.91480469 -40.36572266 183.4453125 C-94.84523403 161.59280655 -156.67613539 159.52093652 -211.0625 182.375 C-213.77218121 183.62071466 -216.4217848 184.91739001 -219.0546875 186.31640625 C-222.62033684 188.19634977 -226.357862 189.7084272 -230.11035156 191.17578125 C-232.64498171 192.73282268 -233.23763478 194.16571559 -234.421875 196.875 C-234.81503906 197.761875 -235.20820313 198.64875 -235.61328125 199.5625 C-236.00902344 200.490625 -236.40476562 201.41875 -236.8125 202.375 C-237.42931641 203.7671875 -237.42931641 203.7671875 -238.05859375 205.1875 C-240.22284579 209.62433536 -240.22284579 209.62433536 -241.0625 214.375 C-241.68898438 214.57996094 -242.31546875 214.78492188 -242.9609375 214.99609375 C-243.77820313 215.26550781 -244.59546875 215.53492188 -245.4375 215.8125 C-246.24960937 216.07933594 -247.06171875 216.34617187 -247.8984375 216.62109375 C-250.07281799 217.32679729 -250.07281799 217.32679729 -252.0625 218.375 C-254.9375 218.6875 -254.9375 218.6875 -258.0625 218.375 C-260.4375 216.375 -260.4375 216.375 -262.0625 214.375 C-266.59238169 215.81029218 -269.568171 218.33671328 -272.9375 221.5625 C-273.4955835 222.09004883 -274.05366699 222.61759766 -274.62866211 223.16113281 C-275.82629304 224.29965213 -277.01977584 225.44254791 -278.20947266 226.58935547 C-279.44625943 227.78116818 -280.6881558 228.96770079 -281.93505859 230.14892578 C-323.74959048 269.82355658 -343.36214527 326.29161159 -345.18066406 383.06396484 C-345.91004567 418.61439348 -342.184513 453.80799721 -331.21875 487.71875 C-330.21859782 490.88139339 -329.32965615 494.03959141 -328.5 497.25 C-327.59793909 500.65222369 -326.52770555 503.87332249 -325.19140625 507.12890625 C-323.87814315 510.35787959 -322.58641849 513.59085793 -321.34375 516.84765625 C-315.99066227 530.72106271 -309.6864555 544.06741373 -303.0625 557.375 C-302.48097168 558.5520752 -302.48097168 558.5520752 -301.88769531 559.75292969 C-287.42510805 588.82365632 -268.25586365 616.10041919 -246.2578125 639.96875 C-244.41164221 641.99231032 -242.61985617 644.04646289 -240.83203125 646.12109375 C-236.9417624 650.57735207 -232.81786305 654.76728068 -228.625 658.9375 C-227.55668945 660.01161133 -227.55668945 660.01161133 -226.46679688 661.10742188 C-221.82984119 665.73595439 -217.05532729 670.13376791 -212.0625 674.375 C-211.40419189 674.93469482 -210.74588379 675.49438965 -210.06762695 676.07104492 C-200.71108032 683.96595031 -191.21116737 691.52329275 -181.0625 698.375 C-180.08893555 699.03363037 -180.08893555 699.03363037 -179.09570312 699.70556641 C-128.48260953 733.708977 -71.96994228 751.90729936 -10.93261719 751.33886719 C-4.55295268 751.2941383 1.65880442 751.47657602 8.00146484 752.13476562 C52.56232882 755.78085661 97.75029491 746.72510112 137.9375 727.375 C138.94103516 726.89595215 138.94103516 726.89595215 139.96484375 726.40722656 C178.01900505 708.14048734 210.89566506 683.40630942 240.75 653.6875 C241.45543945 652.9867334 242.16087891 652.2859668 242.88769531 651.56396484 C269.52506178 624.84488866 290.55416904 592.68759279 307.9375 559.375 C308.51322754 558.27333496 308.51322754 558.27333496 309.10058594 557.14941406 C311.46336257 552.59705981 313.73482559 548.00682421 315.9375 543.375 C316.26169922 542.69614746 316.58589844 542.01729492 316.91992188 541.31787109 C351.19345596 468.84571495 360.73036221 381.83550987 333.6796875 305.67578125 C321.31116709 271.91246514 299.62572596 238.63804554 270.9375 216.375 C270.2775 216.375 269.6175 216.375 268.9375 216.375 C268.9375 215.715 268.9375 215.055 268.9375 214.375 C264.56785606 210.15273255 260.24370169 207.99461521 254.16015625 207.88671875 C252.10640258 207.93054534 250.05292364 207.98949715 248 208.0625 C234.95260906 208.00499193 234.95260906 208.00499193 229.375 203.5 C226.89805685 200.66725286 226.01755775 199.07573024 225.58984375 195.33203125 C225.79434304 192.55873381 226.20643266 190.05391114 226.9375 187.375 C196.55169047 172.84122342 165.59629704 164.92076453 131.875 165 C131.07411957 164.99987915 130.27323914 164.9997583 129.4480896 164.99963379 C116.50202966 165.02726782 104.10900925 166.05341501 91.43066406 168.83251953 Z " fill="#E7D5C1" transform="translate(511.0625,91.625)"/>
<path d="M0 0 C2.90669885 2.52652968 4.32114096 5.31122436 6.00390625 8.75 C6.86918945 10.50183594 6.86918945 10.50183594 7.75195312 12.2890625 C8.35586921 13.5258462 8.95938545 14.76282523 9.5625 16 C10.72818979 18.37616315 11.89518179 20.75157116 13.06640625 23.125 C13.37220612 23.74491821 13.67800598 24.36483643 13.99307251 25.00354004 C16.91305575 30.88859346 19.97796206 36.69388551 23.05091858 42.50012207 C28.6119151 53.02168693 33.99268956 63.63540789 39.39550781 74.23876953 C44.67185021 84.58994019 49.98537974 94.91783696 55.41226196 105.190979 C59.10090875 112.17658064 62.72586405 119.19377089 66.33340454 126.2215271 C68.15828462 129.77542104 69.98746692 133.32710008 71.81640625 136.87890625 C72.17709702 137.57941605 72.53778778 138.27992584 72.90940857 139.00166321 C80.2458822 153.24691426 87.62370289 167.46151483 95.35400391 181.49804688 C98.14096362 186.56260976 100.87445209 191.64941394 103.55078125 196.7734375 C104.45884521 198.49856567 104.45884521 198.49856567 105.38525391 200.25854492 C106.5473648 202.46957818 107.70011743 204.6855678 108.84130859 206.9074707 C115.45916263 219.4403891 124.79342006 229.10482106 134.77514648 238.98095703 C136.56883491 240.75627001 138.35427196 242.53957456 140.13867188 244.32421875 C145.43564573 249.60438323 150.74743941 254.80070561 156.44116211 259.65722656 C158.39767933 261.34255855 160.20692772 263.14288942 162 265 C164.58009215 267.62040609 167.21103607 270.10323412 170 272.5 C173.51141648 275.51762353 176.75307402 278.73359081 180 282.03125 C181.93891002 283.93986455 183.93699551 285.72710552 186 287.5 C189.42782597 290.44578795 192.61134817 293.56175347 195.75 296.8125 C197.6290155 298.63932062 199.54085134 300.3410355 201.52734375 302.046875 C206.55701789 306.42090975 211.3157845 311.05812676 216.0456543 315.75048828 C217.05421986 316.74752831 218.06723766 317.74008529 219.0847168 318.72802734 C220.58889516 320.18881362 222.07870522 321.66308057 223.56640625 323.140625 C224.88040405 324.43274902 224.88040405 324.43274902 226.22094727 325.75097656 C233.18996592 333.41208153 237.4887444 342.66212982 241.25390625 352.1953125 C241.95018883 353.93266159 241.95018883 353.93266159 242.66053772 355.70510864 C248.00733357 369.24753272 252.65593138 383.02729654 257.25695801 396.83703613 C258.1750697 399.58643069 259.10100789 402.33316054 260.02722836 405.07983208 C264.16214097 417.34422442 268.23153686 429.61696597 272 442 C272.73211968 444.35356733 273.4661479 446.70654291 274.203125 449.05859375 C274.62831963 450.41778584 275.05344386 451.77699995 275.47851562 453.13623047 C275.71513916 453.89264832 275.9517627 454.64906616 276.19555664 455.42840576 C276.46102295 456.27703186 276.72648926 457.12565796 277 458 C277.31187256 458.99686829 277.62374512 459.99373657 277.94506836 461.02081299 C280.1648206 468.11894057 282.37798849 475.2190851 284.58544922 482.32104492 C285.36702155 484.83207134 286.15057655 487.34248143 286.93603516 489.85229492 C288.08219345 493.51586559 289.22146281 497.18151721 290.359375 500.84765625 C290.71038269 501.96439224 291.06139038 503.08112823 291.42303467 504.23170471 C293.04921321 509.4943016 294.45444411 514.51266594 295 520 C288.44879518 522.88253012 288.44879518 522.88253012 285.08984375 523.76171875 C279.08163456 526.16955985 275.34052897 531.64634622 272 537 C271.22821013 540.08335756 270.98907605 542.65390459 271.0625 545.8203125 C271 548 271 548 269 550 C266.77270508 550.65429688 266.77270508 550.65429688 264.01953125 551.21875 C263.01986328 551.42886719 262.02019531 551.63898437 260.99023438 551.85546875 C259.94158203 552.06816406 258.89292969 552.28085937 257.8125 552.5 C255.7560656 552.92493635 253.70006364 553.35197161 251.64453125 553.78125 C250.16968262 554.08796631 250.16968262 554.08796631 248.66503906 554.40087891 C246.53604857 554.8794922 244.43434462 555.47890635 242.34765625 556.1171875 C238.085642 557.24112591 234.01553417 557.46257709 229.625 557.625 C228.74432861 557.66149658 227.86365723 557.69799316 226.95629883 557.7355957 C224.30444827 557.83759914 221.65266785 557.92241289 219 558 C218.2692627 558.02336426 217.53852539 558.04672852 216.78564453 558.07080078 C155.62534213 559.79342232 96.31535114 536.99269576 47 502 C46.01386719 501.31164062 45.02773438 500.62328125 44.01171875 499.9140625 C36.64541053 494.69048648 29.82027423 488.90557599 23 483 C22.2575 482.35933594 21.515 481.71867187 20.75 481.05859375 C18.8228164 479.38396445 16.91056703 477.69354522 15 476 C14.29230469 475.38511719 13.58460938 474.77023437 12.85546875 474.13671875 C7.31522966 469.25800075 2.04146905 464.14660763 -3.1875 458.9375 C-3.85265625 458.27693604 -4.5178125 457.61637207 -5.203125 456.93579102 C-9.67105721 452.45397979 -13.89628571 447.81653 -18 443 C-18.54454834 442.36215576 -19.08909668 441.72431152 -19.65014648 441.06713867 C-33.57082521 424.63729545 -45.74212374 407.34257426 -57 389 C-57.82275808 387.6769847 -58.64566645 386.35406284 -59.46875 385.03125 C-64.44875752 376.95814176 -68.85652176 368.68634932 -72.96875 360.140625 C-74.04245674 357.91187009 -75.13056258 355.69046599 -76.21875 353.46875 C-81.35556247 342.8930893 -85.90446272 332.15729768 -90.14501953 321.19335938 C-90.8896271 319.28314965 -91.65945469 317.38280865 -92.43359375 315.484375 C-95.74400492 307.27538032 -98.11494416 298.90945216 -100.37060547 290.36474609 C-100.99300253 288.02629071 -101.63655944 285.69459092 -102.28515625 283.36328125 C-107.02146887 266.15606098 -110.32031796 248.76926795 -112 231 C-112.11214844 229.90042969 -112.22429687 228.80085937 -112.33984375 227.66796875 C-117.41454004 167.95339184 -105.89759257 106.33404052 -69 58 C-68.04673828 56.71029297 -68.04673828 56.71029297 -67.07421875 55.39453125 C-61.87483315 48.67388252 -55.91591348 42.71150879 -49.9375 36.6875 C-49.08623535 35.82688965 -48.2349707 34.9662793 -47.35791016 34.07958984 C-42.51817497 29.26425511 -37.61277195 24.89479609 -32 21 C-29.53199953 22.15173355 -27.95216435 23.04783565 -26 25 C-20.92059881 25.743327 -17.40681401 24.0563987 -12.953125 21.875 C-11 21 -11 21 -9 21 C-8.443125 19.14375 -8.443125 19.14375 -7.875 17.25 C-5.87666889 11.19708401 -2.94698158 5.63645991 0 0 Z " fill="#A97661" transform="translate(279,285)"/>
<path d="M0 0 C1.21697067 0.00323273 1.21697067 0.00323273 2.45852661 0.00653076 C35.57538189 0.14724415 66.30553714 7.72784854 96.0625 22.3125 C96.13315937 25.3508529 96.16342797 27.94849748 95.34765625 30.890625 C94.82347117 33.4019232 94.82347117 33.4019232 96.30859375 35.734375 C101.95721293 41.73540358 106.25215739 42.85035768 114.35180664 43.29199219 C119.25911317 43.41410916 124.15515348 43.43497856 129.0625 43.3125 C125.4561053 48.15355817 121.80827825 52.95357166 118.0625 57.6875 C113.7064464 63.21165735 109.37759031 68.75629184 105.0625 74.3125 C100.47525719 80.21764528 95.8719279 86.10942837 91.24609375 91.984375 C87.49994268 96.74624633 83.77945789 101.52781987 80.0625 106.3125 C75.91035525 111.65737747 71.74943181 116.99482498 67.5625 122.3125 C61.63545822 129.84188838 55.75699191 137.40882148 49.87841797 144.97607422 C48.05692692 147.31967053 46.23381223 149.66199427 44.41015625 152.00390625 C40.95776144 156.43764044 37.50862504 160.87389095 34.0625 165.3125 C33.58264648 165.9302832 33.10279297 166.54806641 32.60839844 167.18457031 C26.95817217 174.46645592 21.43548555 181.82333857 16.0625 189.3125 C11.63583885 187.83694628 10.66716426 184.30401698 8.625 180.375 C-2.54215122 159.64220426 -16.70678333 140.24332651 -31.9375 122.3125 C-32.89207751 121.17200089 -33.84649436 120.03136729 -34.80078125 118.890625 C-40.32086146 112.33453613 -45.95163056 106.11040116 -52.171875 100.203125 C-53.9375 98.3125 -53.9375 98.3125 -53.9375 96.3125 C-54.47246094 96.10753906 -55.00742187 95.90257812 -55.55859375 95.69140625 C-58.90696973 93.75055777 -61.34672018 91.02152638 -64 88.25 C-69.65951349 82.47234873 -75.58055586 77.31944794 -81.9375 72.3125 C-83.03336684 71.40619937 -84.1270067 70.4972012 -85.21875 69.5859375 C-97.94225841 59.05024543 -111.64830051 49.67914675 -126.1081543 41.68505859 C-126.71183838 41.23211426 -127.31552246 40.77916992 -127.9375 40.3125 C-127.9375 39.3225 -127.9375 38.3325 -127.9375 37.3125 C-88.25660445 15.84097988 -45.71173235 -0.21893209 0 0 Z " fill="#A87560" transform="translate(641.9375,256.6875)"/>
<path d="M0 0 C2.90669885 2.52652968 4.32114096 5.31122436 6.00390625 8.75 C6.58076172 9.91789062 7.15761719 11.08578125 7.75195312 12.2890625 C8.35586921 13.5258462 8.95938545 14.76282523 9.5625 16 C10.72818979 18.37616315 11.89518179 20.75157116 13.06640625 23.125 C13.52510605 24.05487732 13.52510605 24.05487732 13.99307251 25.00354004 C16.91305575 30.88859346 19.97796206 36.69388551 23.05091858 42.50012207 C28.6119151 53.02168693 33.99268956 63.63540789 39.39550781 74.23876953 C44.67185021 84.58994019 49.98537974 94.91783696 55.41226196 105.190979 C59.10090875 112.17658064 62.72586405 119.19377089 66.33340454 126.2215271 C68.15828462 129.77542104 69.98746692 133.32710008 71.81640625 136.87890625 C72.17709702 137.57941605 72.53778778 138.27992584 72.90940857 139.00166321 C80.2458822 153.24691426 87.62370289 167.46151483 95.35400391 181.49804688 C98.14096362 186.56260976 100.87445209 191.64941394 103.55078125 196.7734375 C104.45884521 198.49856567 104.45884521 198.49856567 105.38525391 200.25854492 C106.5473648 202.46957818 107.70011743 204.6855678 108.84130859 206.9074707 C115.45916263 219.4403891 124.79342006 229.10482106 134.77514648 238.98095703 C136.56883491 240.75627001 138.35427196 242.53957456 140.13867188 244.32421875 C145.43564573 249.60438323 150.74743941 254.80070561 156.44116211 259.65722656 C158.39767933 261.34255855 160.20692772 263.14288942 162 265 C164.58009215 267.62040609 167.21103607 270.10323412 170 272.5 C173.51141648 275.51762353 176.75307402 278.73359081 180 282.03125 C181.93891002 283.93986455 183.93699551 285.72710552 186 287.5 C189.42782597 290.44578795 192.61134817 293.56175347 195.75 296.8125 C197.6290155 298.63932062 199.54085134 300.3410355 201.52734375 302.046875 C206.55701789 306.42090975 211.3157845 311.05812676 216.0456543 315.75048828 C217.05421986 316.74752831 218.06723766 317.74008529 219.0847168 318.72802734 C220.58889516 320.18881362 222.07870522 321.66308057 223.56640625 323.140625 C224.44240479 324.00204102 225.31840332 324.86345703 226.22094727 325.75097656 C233.18996592 333.41208153 237.4887444 342.66212982 241.25390625 352.1953125 C241.95018883 353.93266159 241.95018883 353.93266159 242.66053772 355.70510864 C248.00733357 369.24753272 252.65593138 383.02729654 257.25695801 396.83703613 C258.1750697 399.58643069 259.10100789 402.33316054 260.02722836 405.07983208 C264.16214097 417.34422442 268.23153686 429.61696597 272 442 C272.73211968 444.35356733 273.4661479 446.70654291 274.203125 449.05859375 C274.62831963 450.41778584 275.05344386 451.77699995 275.47851562 453.13623047 C275.71513916 453.89264832 275.9517627 454.64906616 276.19555664 455.42840576 C276.46102295 456.27703186 276.72648926 457.12565796 277 458 C277.31187256 458.99686829 277.62374512 459.99373657 277.94506836 461.02081299 C280.1648206 468.11894057 282.37798849 475.2190851 284.58544922 482.32104492 C285.36702155 484.83207134 286.15057655 487.34248143 286.93603516 489.85229492 C288.08219345 493.51586559 289.22146281 497.18151721 290.359375 500.84765625 C290.71038269 501.96439224 291.06139038 503.08112823 291.42303467 504.23170471 C293.04921321 509.4943016 294.45444411 514.51266594 295 520 C288.43159702 522.89009731 288.43159702 522.89009731 285.0546875 523.75 C281.19775591 525.32828403 279.73194754 527.3128838 277.25 530.625 C275.87281694 532.44719119 274.46511154 534.2477266 273 536 C272.34 536 271.68 536 271 536 C264.63553455 520.75320033 258.36231372 505.47467618 252.25 490.125 C244.63898835 471.02589396 236.86122399 451.99740328 229 433 C228.63158997 432.10937866 228.26317993 431.21875732 227.88360596 430.30114746 C220.03445592 411.33493137 212.17373989 392.37249471 203.8125 373.625 C203.32048096 372.51624512 202.82846191 371.40749023 202.3215332 370.26513672 C195.32280059 354.46337184 195.32280059 354.46337184 184.8125 340.9375 C184.23226074 340.33808594 183.65202148 339.73867188 183.05419922 339.12109375 C181.05201611 337.06448941 179.02683721 335.03230161 177 333 C175.30829782 331.28284358 173.61690769 329.56537969 171.92578125 327.84765625 C161.62717564 317.38835914 161.62717564 317.38835914 150.75341797 307.5390625 C148.92052383 305.93023979 147.20710168 304.24103957 145.5 302.5 C143.24202057 300.20673964 140.94003496 298.03571972 138.5 295.9375 C134.3948976 292.40165985 130.4500009 288.70669323 126.5 285 C122.09197816 280.86620499 117.66771381 276.77746559 113.0859375 272.8359375 C110.17636823 270.27508065 107.34155922 267.63586456 104.5 265 C101.01557554 261.76866468 97.52958295 258.54963867 93.9375 255.4375 C93.32648438 254.89996094 92.71546875 254.36242187 92.0859375 253.80859375 C90.46479255 252.40299429 88.81910486 251.02568018 87.1640625 249.66015625 C79.07754894 242.8254489 73.91953329 235.30685359 69 226 C68.29593018 224.68249756 68.29593018 224.68249756 67.57763672 223.33837891 C50.11170471 190.56800118 33.99387007 157.03632107 18.78140259 123.16752625 C16.59328003 118.30095742 14.37647557 113.44817589 12.14453125 108.6015625 C3.92131889 90.73496089 -4.10346404 72.79066089 -11.97387695 54.765625 C-12.3362999 53.93611328 -12.69872284 53.10660156 -13.0721283 52.25195312 C-13.77133031 50.64976843 -14.46902069 49.04692304 -15.16505432 47.44335938 C-17.41497365 42.27457605 -19.77904597 37.17423482 -22.29614258 32.12890625 C-23.12869771 29.61073743 -23.03604221 28.42595083 -22 26 C-19.56640625 24.515625 -19.56640625 24.515625 -16.5625 23.25 C-15.57378906 22.82203125 -14.58507812 22.3940625 -13.56640625 21.953125 C-11 21 -11 21 -9 21 C-8.62875 19.7625 -8.2575 18.525 -7.875 17.25 C-5.87666889 11.19708401 -2.94698158 5.63645991 0 0 Z " fill="#6D4B3D" transform="translate(279,285)"/>
<path d="M0 0 C337.92 0 675.84 0 1024 0 C1024 337.92 1024 675.84 1024 1024 C686.08 1024 348.16 1024 0 1024 C0 686.08 0 348.16 0 0 Z M2 2 C2 338.6 2 675.2 2 1022 C338.6 1022 675.2 1022 1022 1022 C1022 685.4 1022 348.8 1022 2 C685.4 2 348.8 2 2 2 Z " fill="#EAD9C4" transform="translate(0,0)"/>
<path d="M0 0 C11.83721011 21.25575951 23.63184555 42.531522 35.13623047 63.96948242 C39.11319668 71.37355405 43.15700506 78.73603051 47.25390625 86.07421875 C50.79283645 92.41374119 54.30336744 98.76895359 57.8125 105.125 C58.15679047 105.74841278 58.50108093 106.37182556 58.85580444 107.01412964 C64.0518835 116.42616216 69.18274805 125.87169038 74.28320312 135.3359375 C78.38566913 142.92372912 82.62846437 150.4251619 86.90600586 157.9152832 C90.04250061 163.44045866 93.08949125 169.00476078 96.05859375 174.62109375 C96.40662552 175.27871704 96.75465729 175.93634033 97.11323547 176.6138916 C98.81216651 179.82828062 100.50259172 183.04677444 102.1809082 186.27197266 C108.02653777 197.43316843 114.16293201 208.88810633 123.125 217.875 C124.08714731 218.87122883 125.04807017 219.86864157 126.0078125 220.8671875 C126.74294067 221.6247937 126.74294067 221.6247937 127.49291992 222.39770508 C129.07224773 224.07681222 130.56365822 225.81186151 132.05859375 227.56640625 C136.8421348 233.07377259 142.03206663 238.18138634 147.19702148 243.32739258 C148.933936 245.058947 150.66543889 246.79578359 152.39648438 248.53320312 C157.53210054 253.67158112 162.67847559 258.710574 168.20922852 263.42749023 C172.12803807 266.86866983 175.70843022 270.67071296 179.35546875 274.39453125 C182.38522186 277.46239447 185.44463723 280.4302055 188.71728516 283.23925781 C195.54350175 289.18063451 201.98152558 295.52482999 208.43505859 301.86523438 C210.04914172 303.44281732 211.67210242 305.01137301 213.30419922 306.5703125 C224.58832776 317.35846051 232.76439346 327.64870663 239 342 C239.5254541 343.17868652 240.0509082 344.35737305 240.59228516 345.57177734 C241.92955797 348.71148208 243.17035094 351.86976223 244.375 355.0625 C244.82794434 356.24199219 245.28088867 357.42148437 245.74755859 358.63671875 C247.1908883 362.41500538 248.60043151 366.20531494 250 370 C250.45568359 371.23476074 250.91136719 372.46952148 251.38085938 373.74169922 C258.28992278 392.57624017 264.57174635 411.6232007 270.8125 430.6875 C271.34716888 432.31921143 271.34716888 432.31921143 271.89263916 433.98388672 C278.0847057 452.91010847 283.95885727 471.92255763 289.53515625 491.0390625 C290.77071899 495.24892521 292.03847449 499.44890312 293.30859375 503.6484375 C293.72414463 505.0246511 294.1396718 506.40087185 294.55517578 507.77709961 C295.18177623 509.85223856 295.80932752 511.92706544 296.43988037 514.00100708 C297.0313453 515.94655353 297.61925999 517.89317821 298.20703125 519.83984375 C298.72487183 521.54708618 298.72487183 521.54708618 299.25317383 523.28881836 C300 526 300 526 300 528 C298.24788218 527.74322411 296.49832064 527.46897047 294.75 527.1875 C293.77546875 527.03667969 292.8009375 526.88585937 291.796875 526.73046875 C288.7587756 525.93699865 287.31621453 525.08930801 285 523 C284.09375 520.9675293 284.09375 520.9675293 283.5 518.57421875 C283.25894531 517.65157227 283.01789063 516.72892578 282.76953125 515.77832031 C282.51558594 514.75834961 282.26164062 513.73837891 282 512.6875 C278.98158802 501.26602029 275.57886105 490.00624884 272 478.75 C271.73863251 477.9259668 271.47726501 477.10193359 271.20797729 476.25292969 C268.0006962 466.14895748 264.77264004 456.05117404 261.31835938 446.02832031 C259.90655889 441.89430832 258.6255946 437.73829117 257.41853333 433.53953552 C253.93499634 421.44624809 249.92955151 409.53712568 245.875 397.625 C245.31307953 395.97272903 245.31307953 395.97272903 244.73980713 394.28707886 C240.36282124 381.4507731 235.95317693 368.64114978 230.875 356.0625 C230.27534424 354.56033936 230.27534424 354.56033936 229.66357422 353.02783203 C223.97191468 339.39774282 215.47312197 329.91669672 205.0625 319.75 C203.81227584 318.51129939 202.56292131 317.27172042 201.31445312 316.03125 C195.85926552 310.63109046 190.37832227 305.31061026 184.53686523 300.32519531 C182.58854515 298.64521415 180.78632252 296.85011975 179 295 C176.41990785 292.37959391 173.78896393 289.89676588 171 287.5 C167.48858352 284.48237647 164.24692598 281.26640919 161 277.96875 C159.06108998 276.06013545 157.06300449 274.27289448 155 272.5 C151.57217403 269.55421205 148.38865183 266.43824653 145.25 263.1875 C143.39122179 261.38035452 141.50281668 259.70335263 139.53515625 258.01953125 C134.16910383 253.35420899 129.13418288 248.35656239 124.09985352 243.34008789 C122.44406531 241.69402674 120.77788193 240.05897918 119.11132812 238.42382812 C109.84723188 229.2557517 103.09829978 219.66751402 97 208.125 C96.16662109 206.56543579 96.16662109 206.56543579 95.31640625 204.97436523 C94.13567424 202.76427289 92.95733265 200.552902 91.78125 198.34033203 C90.05518684 195.10349045 88.31203122 191.87655085 86.5625 188.65234375 C77.99703849 172.83123691 69.74754866 156.85814737 61.58398438 140.82641602 C56.99290263 131.81423767 52.35292161 122.83182121 47.62904358 113.88847351 C43.92784138 106.87792354 40.28942512 99.83625753 36.66906738 92.78369141 C31.5631038 82.83801699 26.44088587 72.90167351 21.25 63 C15.40882574 51.84866733 9.6749477 40.64244356 3.9375 29.4375 C3.46775757 28.52025146 2.99801514 27.60300293 2.51403809 26.65795898 C1.16382737 24.02091551 -0.18582109 21.38358534 -1.53515625 18.74609375 C-1.94091385 17.95327499 -2.34667145 17.16045624 -2.76472473 16.34361267 C-4.86330625 12.23894093 -6.94602527 8.12725296 -9 4 C-2.25 0 -2.25 0 0 0 Z " fill="#DBA292" transform="translate(288,280)"/>
<path d="M0 0 C3.19916685 1.39416047 5.08924653 3.04525002 7.46875 5.56640625 C12.66537362 10.21468484 17.78752499 10.00574885 24.5 9.9375 C25.60859375 9.95361328 26.7171875 9.96972656 27.859375 9.98632812 C30.57419119 10.02143351 33.28518686 10.02521992 36 10 C32.3936053 14.84105817 28.74577825 19.64107166 25 24.375 C20.6439464 29.89915735 16.31509031 35.44379184 12 41 C7.41275719 46.90514528 2.8094279 52.79692837 -1.81640625 58.671875 C-5.56255732 63.43374633 -9.28304211 68.21531987 -13 73 C-17.15214475 78.34487747 -21.31306819 83.68232498 -25.5 89 C-31.42704178 96.52938838 -37.30550809 104.09632148 -43.18408203 111.66357422 C-45.00557308 114.00717053 -46.82868777 116.34949427 -48.65234375 118.69140625 C-52.10473856 123.12514044 -55.55387496 127.56139095 -59 132 C-59.47985352 132.6177832 -59.95970703 133.23556641 -60.45410156 133.87207031 C-66.10432783 141.15395592 -71.62701445 148.51083857 -77 156 C-81.42593625 154.52468792 -82.39676578 150.99199022 -84.4375 147.0625 C-89.67483406 137.27648475 -95.7018516 128.12921665 -102 119 C-100.71076019 116.21176763 -99.31380469 114.01003398 -97.27734375 111.71484375 C-96.74334961 111.10729248 -96.20935547 110.49974121 -95.65917969 109.8737793 C-95.09102539 109.23480713 -94.52287109 108.59583496 -93.9375 107.9375 C-89.96140639 103.41428277 -86.03337013 98.87486123 -82.25 94.1875 C-78.72214035 89.82917704 -75.02264204 85.67042013 -71.24609375 81.52734375 C-68.93812402 78.93037607 -66.74444137 76.26595987 -64.5625 73.5625 C-60.69941783 68.78571491 -56.62088565 64.26053118 -52.4609375 59.7421875 C-50.08960105 57.09984117 -47.84747003 54.39305833 -45.625 51.625 C-41.75716454 46.82779065 -37.64890505 42.32795793 -33.43969727 37.83422852 C-30.34249154 34.50880245 -27.40392933 31.11298325 -24.5625 27.5625 C-19.9917855 21.86783932 -15.03623747 16.58237842 -10.04296875 11.26171875 C-6.60051913 7.5895598 -3.26878215 3.82744674 0 0 Z " fill="#6D4B3D" transform="translate(735,290)"/>
<path d="M0 0 C3.98264458 0.44251606 6.7971409 2.74344018 10 5 C5.71269176 11.63928932 1.08220514 17.93687777 -3.75 24.1875 C-8.2775179 30.08453166 -12.78343096 35.98210465 -17.0625 42.0625 C-21.02108111 47.68395447 -25.11475207 53.19478467 -29.25 58.6875 C-34.21992467 65.28904143 -39.16567528 71.90651462 -44.0625 78.5625 C-44.63653564 79.34270508 -45.21057129 80.12291016 -45.80200195 80.92675781 C-47.53534578 83.28400797 -49.26784187 85.64187846 -51 88 C-60.01373311 100.27109572 -69.09107479 112.4911234 -78.2421875 124.66015625 C-79.88301066 126.84427419 -81.52050026 129.03083093 -83.15625 131.21875 C-90.36986789 140.86464886 -97.66754862 150.44416014 -105 160 C-107.0976643 157.27118008 -109.0382048 154.51284102 -110.8125 151.5625 C-111.27269531 150.82128906 -111.73289062 150.08007812 -112.20703125 149.31640625 C-113 147 -113 147 -112.54296875 144.74609375 C-110.25757857 140.67867781 -107.40766392 137.13917095 -104.5 133.5 C-103.21845598 131.87523187 -101.93720726 130.25023077 -100.65625 128.625 C-100.02847656 127.83222656 -99.40070312 127.03945313 -98.75390625 126.22265625 C-96.47544429 123.33525122 -94.23538062 120.42089734 -92 117.5 C-86.30976173 110.08967337 -80.56792049 102.71973186 -74.82763672 95.34814453 C-73.01013402 93.01302017 -71.19424212 90.6766529 -69.37890625 88.33984375 C-63.66615447 80.98697434 -57.94303147 73.64293821 -52.18286133 66.32714844 C-48.43689969 61.56564533 -44.71674192 56.78433274 -41 52 C-35.46554613 44.87666823 -29.90691813 37.77303273 -24.32666016 30.68554688 C-22.50940197 28.3766859 -20.69421889 26.06619776 -18.87915039 23.75561523 C-17.9683231 22.59616063 -17.05735575 21.43681602 -16.14624023 20.27758789 C-13.72821747 17.20101386 -11.31212648 14.1229443 -8.8984375 11.04296875 C-8.39248047 10.39779297 -7.88652344 9.75261719 -7.36523438 9.08789062 C-6.38943441 7.84352187 -5.41415388 6.59874557 -4.43945312 5.35351562 C-1.1124622 1.1124622 -1.1124622 1.1124622 0 0 Z " fill="#D9A090" transform="translate(770,301)"/>
<path d="M0 0 C0.66 0.33 1.32 0.66 2 1 C0.35 4.3 -1.3 7.6 -3 11 C-4.3968009 6.80959731 -2.86445675 4.87233324 -1 1 C-0.67 0.67 -0.34 0.34 0 0 Z " fill="#D7A392" transform="translate(277,286)"/>
</svg>
