<?xml version="1.0" encoding="UTF-8"?>
<svg version="1.1" xmlns="http://www.w3.org/2000/svg" width="512" height="512">
<path d="M0 0 C2.56959745 2.31195571 5.10319105 4.65598709 7.62060547 7.02490234 C9.54513194 8.80011211 11.46246866 10.47968032 13.48388672 12.13427734 C15.73759391 14.02726806 17.63571428 15.80187805 19.52685547 18.03271484 C20.11466797 18.72494141 20.70248047 19.41716797 21.30810547 20.13037109 C21.97841797 20.92314453 22.64873047 21.71591797 23.33935547 22.53271484 C24.56138672 23.92296875 24.56138672 23.92296875 25.80810547 25.34130859 C43.27060697 45.31715843 56.37614795 67.97452016 66.33935547 92.53271484 C66.64180176 93.27521484 66.94424805 94.01771484 67.25585938 94.78271484 C74.69325516 113.31472183 79.79375755 132.72142391 82.33935547 152.53271484 C82.43361816 153.22324951 82.52788086 153.91378418 82.625 154.62524414 C83.66064308 163.28555469 83.5831005 172.01085908 83.58935547 180.72021484 C83.59003021 181.56486298 83.59070496 182.40951111 83.59140015 183.27975464 C83.52087035 238.98181433 63.25949178 291.83075365 26.33935547 333.53271484 C25.54529297 334.43763672 24.75123047 335.34255859 23.93310547 336.27490234 C15.99646357 345.21721462 7.71843613 353.10864044 -1.66064453 360.53271484 C-3.12630859 361.72380859 -3.12630859 361.72380859 -4.62158203 362.93896484 C-13.4735764 369.9848848 -22.87538043 375.87069409 -32.66064453 381.53271484 C-33.33546875 381.92845703 -34.01029297 382.32419922 -34.70556641 382.73193359 C-59.6361924 397.2109691 -88.13757947 405.86728913 -116.66064453 409.53271484 C-117.3504541 409.62697754 -118.04026367 409.72124023 -118.75097656 409.81835938 C-127.43427441 410.85752947 -136.17806558 410.77645729 -144.91064453 410.78271484 C-145.75723633 410.78338959 -146.60382813 410.78406433 -147.47607422 410.78475952 C-160.7570815 410.76796997 -173.60550956 410.14986981 -186.66064453 407.53271484 C-187.55025879 407.3611084 -188.43987305 407.18950195 -189.35644531 407.01269531 C-235.60111088 397.91338447 -274.63953653 375.72614394 -308.66064453 343.53271484 C-309.34126953 342.89462891 -310.02189453 342.25654297 -310.72314453 341.59912109 C-315.84981633 336.65045874 -320.23584407 331.10549309 -324.66064453 325.53271484 C-325.85367188 324.06511719 -325.85367188 324.06511719 -327.07080078 322.56787109 C-334.11415554 313.71623825 -339.99952967 304.31641336 -345.66064453 294.53271484 C-346.05638672 293.85789062 -346.45212891 293.18306641 -346.85986328 292.48779297 C-372.91713965 247.62125396 -381.62561203 190.4364366 -371.66064453 139.53271484 C-371.49435547 138.67581055 -371.32806641 137.81890625 -371.15673828 136.93603516 C-366.7821377 115.24935785 -359.38282947 94.37691483 -349.66064453 74.53271484 C-349.30389648 73.80004395 -348.94714844 73.06737305 -348.57958984 72.3125 C-335.77036033 46.31316268 -317.24643725 20.9218231 -294.66064453 2.53271484 C-293.53490314 1.57264599 -292.40998758 0.61160843 -291.28564453 -0.35009766 C-218.33016122 -62.02658514 -111.29764795 -69.49711281 0 0 Z " fill="#2D77E7" transform="translate(401.66064453125,82.46728515625)"/>
<path d="M0 0 C2.56959745 2.31195571 5.10319105 4.65598709 7.62060547 7.02490234 C9.54513194 8.80011211 11.46246866 10.47968032 13.48388672 12.13427734 C15.73759391 14.02726806 17.63571428 15.80187805 19.52685547 18.03271484 C20.11466797 18.72494141 20.70248047 19.41716797 21.30810547 20.13037109 C21.97841797 20.92314453 22.64873047 21.71591797 23.33935547 22.53271484 C24.56138672 23.92296875 24.56138672 23.92296875 25.80810547 25.34130859 C43.27060697 45.31715843 56.37614795 67.97452016 66.33935547 92.53271484 C66.64180176 93.27521484 66.94424805 94.01771484 67.25585938 94.78271484 C74.69325516 113.31472183 79.79375755 132.72142391 82.33935547 152.53271484 C82.43361816 153.22324951 82.52788086 153.91378418 82.625 154.62524414 C83.66064308 163.28555469 83.5831005 172.01085908 83.58935547 180.72021484 C83.59003021 181.56486298 83.59070496 182.40951111 83.59140015 183.27975464 C83.52087035 238.98181433 63.25949178 291.83075365 26.33935547 333.53271484 C25.54529297 334.43763672 24.75123047 335.34255859 23.93310547 336.27490234 C15.99646357 345.21721462 7.71843613 353.10864044 -1.66064453 360.53271484 C-3.12630859 361.72380859 -3.12630859 361.72380859 -4.62158203 362.93896484 C-13.4735764 369.9848848 -22.87538043 375.87069409 -32.66064453 381.53271484 C-33.33546875 381.92845703 -34.01029297 382.32419922 -34.70556641 382.73193359 C-59.6361924 397.2109691 -88.13757947 405.86728913 -116.66064453 409.53271484 C-117.3504541 409.62697754 -118.04026367 409.72124023 -118.75097656 409.81835938 C-127.43427441 410.85752947 -136.17806558 410.77645729 -144.91064453 410.78271484 C-145.75723633 410.78338959 -146.60382813 410.78406433 -147.47607422 410.78475952 C-160.7570815 410.76796997 -173.60550956 410.14986981 -186.66064453 407.53271484 C-187.55025879 407.3611084 -188.43987305 407.18950195 -189.35644531 407.01269531 C-235.60111088 397.91338447 -274.63953653 375.72614394 -308.66064453 343.53271484 C-309.34126953 342.89462891 -310.02189453 342.25654297 -310.72314453 341.59912109 C-315.84981633 336.65045874 -320.23584407 331.10549309 -324.66064453 325.53271484 C-325.85367188 324.06511719 -325.85367188 324.06511719 -327.07080078 322.56787109 C-334.11415554 313.71623825 -339.99952967 304.31641336 -345.66064453 294.53271484 C-346.05638672 293.85789062 -346.45212891 293.18306641 -346.85986328 292.48779297 C-372.91713965 247.62125396 -381.62561203 190.4364366 -371.66064453 139.53271484 C-371.49435547 138.67581055 -371.32806641 137.81890625 -371.15673828 136.93603516 C-366.7821377 115.24935785 -359.38282947 94.37691483 -349.66064453 74.53271484 C-349.30389648 73.80004395 -348.94714844 73.06737305 -348.57958984 72.3125 C-335.77036033 46.31316268 -317.24643725 20.9218231 -294.66064453 2.53271484 C-293.53490314 1.57264599 -292.40998758 0.61160843 -291.28564453 -0.35009766 C-218.33016122 -62.02658514 -111.29764795 -69.49711281 0 0 Z M-185.66064453 -29.46728516 C-186.50079102 -29.30099609 -187.3409375 -29.13470703 -188.20654297 -28.96337891 C-201.92346082 -26.21694374 -214.7831573 -21.89764384 -227.66064453 -16.46728516 C-228.40797852 -16.1542041 -229.1553125 -15.84112305 -229.92529297 -15.51855469 C-250.08880656 -6.92837039 -268.31091353 5.619128 -284.38720703 20.44677734 C-286.49958693 22.38494035 -288.66062525 24.24294756 -290.84814453 26.09521484 C-294.85698536 29.6099242 -298.27323213 33.42222018 -301.66064453 37.53271484 C-302.08861328 38.04302246 -302.51658203 38.55333008 -302.95751953 39.07910156 C-328.26482074 69.33140771 -345.27255507 105.30723732 -350.66064453 144.53271484 C-350.75708252 145.2158374 -350.85352051 145.89895996 -350.95288086 146.6027832 C-351.91537304 154.57098427 -351.8467301 162.57477948 -351.84594727 170.58862305 C-351.84811858 173.06560867 -351.86628605 175.54213661 -351.88525391 178.01904297 C-351.93674064 192.22575362 -350.8922789 206.14665925 -347.41064453 219.97021484 C-347.19375977 220.84798584 -346.976875 221.72575684 -346.75341797 222.63012695 C-338.28715029 256.01648622 -322.42976896 285.7439047 -299.66064453 311.53271484 C-298.93876953 312.37705078 -298.21689453 313.22138672 -297.47314453 314.09130859 C-293.79917823 318.34650784 -289.99178847 322.18431861 -285.69189453 325.80615234 C-284.35123913 326.94570943 -283.03738134 328.11766268 -281.75439453 329.32177734 C-239.65341155 368.67000374 -183.60445369 381.37229994 -127.66064453 379.53271484 C-73.43035015 376.68831201 -24.65083664 347.82475944 11.33935547 308.53271484 C20.13570385 298.33326795 27.56441118 287.15073222 34.33935547 275.53271484 C34.68804687 274.94377441 35.03673828 274.35483398 35.39599609 273.74804688 C44.12934094 258.84876018 50.27713495 242.49975352 54.71435547 225.84521484 C54.94074707 225.00539063 55.16713867 224.16556641 55.40039062 223.30029297 C59.49455563 206.97284904 60.8984699 190.62954839 60.77685547 173.84521484 C60.77348175 172.93306213 60.77010803 172.02090942 60.76663208 171.08111572 C60.68767414 156.27738998 59.84315996 141.97278786 56.33935547 127.53271484 C56.09797852 126.53723633 55.85660156 125.54175781 55.60791016 124.51611328 C47.13573643 90.85121163 30.28411807 56.05697735 4.74560547 31.90380859 C3.33935547 30.53271484 3.33935547 30.53271484 1.40185547 28.03271484 C-1.58253262 24.41527474 -5.09131988 21.56036882 -8.66064453 18.53271484 C-9.61197266 17.69353516 -10.56330078 16.85435547 -11.54345703 15.98974609 C-38.06166059 -7.24901191 -70.41552944 -21.81249472 -104.66064453 -29.46728516 C-105.50498047 -29.65935547 -106.34931641 -29.85142578 -107.21923828 -30.04931641 C-131.80250209 -35.33734195 -161.13762896 -34.67752853 -185.66064453 -29.46728516 Z " fill="#5791E9" transform="translate(401.66064453125,82.46728515625)"/>
<path d="M0 0 C5.27741195 4.52349596 10.18473623 9.1043218 15.01757812 14.05664062 C17.79547242 16.87513752 20.61634213 19.56160271 23.62890625 22.12890625 C30.15463543 27.76714251 36.09811215 34.04355939 42.15478516 40.17529297 C49.35932929 47.53620225 49.35932929 47.53620225 56.96875 54.46875 C63.61261562 60.13089978 69.59641431 66.54413884 75.72753906 72.74804688 C81.39841995 78.4801823 87.02699795 84.16900285 93.171875 89.39892578 C96.61029599 92.41029929 99.79031971 95.68634273 103 98.9375 C103.67933594 99.62134766 104.35867188 100.30519531 105.05859375 101.00976562 C106.70808359 102.67087159 108.3551668 104.33428513 110 106 C108.70005304 108.86356097 107.32621927 110.92226181 105.10202026 113.13848877 C104.51028015 113.73297821 103.91854004 114.32746765 103.30886841 114.93997192 C102.66150726 115.58014252 102.01414612 116.22031311 101.34716797 116.87988281 C100.66412598 117.56321686 99.98108398 118.2465509 99.27734375 118.95059204 C97.02033362 121.20620976 94.7563237 123.45466222 92.4921875 125.703125 C90.92519314 127.26638892 89.35864001 128.83009523 87.79251099 130.39422607 C83.67051858 134.50858445 79.54255516 138.6169012 75.41333008 142.72399902 C71.20032416 146.91654166 66.99297842 151.11475588 62.78515625 155.3125 C54.5289751 163.54723528 46.26647643 171.77560065 38 180 C39.62084653 183.44401787 41.42536245 185.60671518 44.1875 188.25 C46.90211786 190.85527248 49.45113118 193.5077546 51.88037109 196.37597656 C57.12865816 202.3948267 62.83968341 207.96335577 68.49609375 213.59375 C69.69700203 214.79278954 70.897687 215.99205277 72.09815979 217.19152832 C75.23422285 220.32380208 78.37327889 223.4530591 81.51300049 226.58166504 C84.72600001 229.7843727 87.93611471 232.98996908 91.14648438 236.1953125 C97.42819371 242.46634789 103.71307358 248.73419523 110 255 C108.61559292 257.87702372 107.29567684 259.95257101 105.0234375 262.20703125 C104.43433594 262.79419922 103.84523438 263.38136719 103.23828125 263.98632812 C102.62339844 264.58896484 102.00851562 265.19160156 101.375 265.8125 C100.78332031 266.40353516 100.19164062 266.99457031 99.58203125 267.60351562 C96.59314501 270.56335222 93.55393803 273.40923618 90.3515625 276.13671875 C84.24660216 281.41778285 78.6703967 287.26228938 73 293 C60.33776642 305.81254839 60.33776642 305.81254839 54.10546875 311.1171875 C49.01559498 315.66880003 44.29726237 320.64328498 39.5 325.5 C27.21473772 337.93751398 27.21473772 337.93751398 20.93505859 343.28759766 C16.95733577 346.80762641 13.28610442 350.65290288 9.5625 354.4375 C7.96190783 356.06343804 6.35916813 357.68726587 4.75390625 359.30859375 C4.05595947 360.01814209 3.3580127 360.72769043 2.63891602 361.45874023 C1 363 1 363 0 363 C-0.33 316.14 -0.66 269.28 -1 221 C-12.76926852 232.74808501 -12.76926852 232.74808501 -24 245 C-26.50612631 247.57254895 -29.02321912 250.11811644 -31.578125 252.640625 C-32.61800568 253.67482574 -32.61800568 253.67482574 -33.67889404 254.72991943 C-35.86682052 256.90575553 -38.05798598 259.0782824 -40.25 261.25 C-43.15393909 264.12730908 -46.05452161 267.00794195 -48.953125 269.890625 C-49.6156427 270.54484436 -50.2781604 271.19906372 -50.96075439 271.87310791 C-51.88751984 272.79491852 -51.88751984 272.79491852 -52.83300781 273.73535156 C-53.64405975 274.53854828 -53.64405975 274.53854828 -54.47149658 275.35797119 C-56.1331572 277.14304708 -57.56940018 279.02674731 -59 281 C-62.2821443 279.56248766 -64.47282391 277.78430651 -67.00390625 275.26171875 C-68.11475586 274.15473633 -68.11475586 274.15473633 -69.24804688 273.02539062 C-70.01181641 272.25388672 -70.77558594 271.48238281 -71.5625 270.6875 C-72.33013672 269.92759766 -73.09777344 269.16769531 -73.88867188 268.38476562 C-74.62794922 267.64291016 -75.36722656 266.90105469 -76.12890625 266.13671875 C-77.13546265 265.12677856 -77.13546265 265.12677856 -78.16235352 264.09643555 C-80 262 -80 262 -83 257 C-58.25 232.25 -33.5 207.5 -8 182 C-12.55396906 176.62368873 -12.55396906 176.62368873 -17.34103394 171.53871155 C-17.92985855 170.94851227 -18.51868317 170.35831299 -19.12535095 169.75022888 C-19.74898026 169.13019485 -20.37260956 168.51016083 -21.01513672 167.87133789 C-22.02594551 166.86031006 -22.02594551 166.86031006 -23.05717468 165.82885742 C-25.2623143 163.62440874 -27.47096359 161.42351316 -29.6796875 159.22265625 C-31.21832794 157.6858829 -32.75674625 156.14888712 -34.29495239 154.61167908 C-38.32701166 150.58342204 -42.36206595 146.5581783 -46.39776611 142.53356934 C-50.52221022 138.41938884 -54.64379431 134.30234535 -58.765625 130.18554688 C-66.84096439 122.12090432 -74.91947294 114.05944443 -83 106 C-81.30145963 102.37916872 -79.28895218 100.05744646 -76.4296875 97.234375 C-75.53378906 96.34492188 -74.63789063 95.45546875 -73.71484375 94.5390625 C-72.77769531 93.61867188 -71.84054688 92.69828125 -70.875 91.75 C-69.92011363 90.80515144 -68.96568141 89.85984367 -68.01171875 88.9140625 C-65.67890913 86.60481662 -63.34155914 84.30036797 -61 82 C-58.1434483 83.28519927 -56.21899095 84.56895426 -54.12890625 86.89453125 C-53.56872803 87.50627197 -53.0085498 88.1180127 -52.43139648 88.74829102 C-51.81466064 89.42947998 -51.1979248 90.11066895 -50.5625 90.8125 C-41.37502037 100.78502462 -31.75115159 110.30658032 -22.11743164 119.8449707 C-11.09122504 130.78441335 -11.09122504 130.78441335 -6.43188477 136.34936523 C-4.71984732 138.3229518 -2.84744637 140.15255363 -1 142 C-0.67 95.14 -0.34 48.28 0 0 Z " fill="#FDFDFE" transform="translate(242,73)"/>
<path d="M0 0 C2.53355707 4.65802233 3.390653 9.54080225 4.5 14.6875 C4.81904297 16.09225586 4.81904297 16.09225586 5.14453125 17.52539062 C8.40667437 32.50523187 9.38295699 47.34007956 9.3125 62.625 C9.30976578 63.86574783 9.30976578 63.86574783 9.30697632 65.13156128 C9.1017648 120.68238679 -11.18600438 173.41792663 -48 215 C-48.7940625 215.90492188 -49.588125 216.80984375 -50.40625 217.7421875 C-58.3428919 226.68449978 -66.62091934 234.5759256 -76 242 C-77.46566406 243.19109375 -77.46566406 243.19109375 -78.9609375 244.40625 C-87.81293187 251.45216995 -97.2147359 257.33797924 -107 263 C-107.67482422 263.39574219 -108.34964844 263.79148437 -109.04492188 264.19921875 C-133.97554787 278.67825426 -162.47693494 287.33457428 -191 291 C-191.68980957 291.0942627 -192.37961914 291.18852539 -193.09033203 291.28564453 C-201.77362988 292.32481462 -210.51742105 292.24374244 -219.25 292.25 C-220.0965918 292.25067474 -220.94318359 292.25134949 -221.81542969 292.25204468 C-235.09643696 292.23525512 -247.94486503 291.61715497 -261 289 C-261.88961426 288.82839355 -262.77922852 288.65678711 -263.69580078 288.47998047 C-309.94046635 279.38066962 -348.978892 257.1934291 -383 225 C-383.680625 224.36191406 -384.36125 223.72382813 -385.0625 223.06640625 C-390.18917179 218.11774389 -394.57519954 212.57277825 -399 207 C-400.19302734 205.53240234 -400.19302734 205.53240234 -401.41015625 204.03515625 C-408.45351101 195.18352341 -414.33888513 185.78369851 -420 176 C-420.39574219 175.32517578 -420.79148437 174.65035156 -421.19921875 173.95507812 C-450.52355785 123.46317002 -456.82289932 60.05614211 -442 4 C-441.67 4 -441.34 4 -441 4 C-441.41491576 9.24859157 -441.85388996 14.46566797 -442.75390625 19.65625 C-444.75637085 31.39714429 -445.30472799 42.93052139 -445.3125 54.8125 C-445.31581329 55.53904785 -445.31912659 56.2655957 -445.32254028 57.01416016 C-445.3483636 66.59069132 -444.69947508 75.90561753 -443.42651367 85.3972168 C-443.08041659 88.32071688 -442.9107809 91.06430072 -443 94 C-442.34 94 -441.68 94 -441 94 C-440.55954762 96.08252729 -440.11924931 98.16508728 -439.6796875 100.24780273 C-439.30807399 102.00789648 -438.93567045 103.76782359 -438.5625 105.52758789 C-437.65474493 109.82304334 -436.78290941 114.11726353 -436 118.4375 C-434.53286287 125.82511972 -432.57858781 132.97281944 -428 139 C-427.8125 141.75 -427.8125 141.75 -428 144 C-427.34 144 -426.68 144 -426 144 C-422.21025857 151.88058561 -418.50584108 159.59806226 -416 168 C-415.34 168 -414.68 168 -414 168 C-412.48762511 170.30690855 -411.07856207 172.62110605 -409.6875 175 C-404.24837135 184.01080624 -397.83880763 192.02173924 -391 200 C-390.4647168 200.630271 -389.92943359 201.26054199 -389.37792969 201.90991211 C-384.69076762 207.36040037 -379.70474813 212.47869457 -374.625 217.5625 C-373.82578125 218.37396484 -373.0265625 219.18542969 -372.203125 220.02148438 C-367.67897038 224.55661995 -363.06909975 228.68804122 -357.92333984 232.50756836 C-356.12876412 233.9000844 -354.60099675 235.39535569 -353 237 C-351.33720673 238.0064275 -349.67016516 239.00585407 -348 240 C-347.21625 240.66 -346.4325 241.32 -345.625 242 C-342.58384414 244.31707113 -339.52829037 245.55088074 -336 247 C-333.0625 248.5625 -333.0625 248.5625 -331 250 C-331 250.66 -331 251.32 -331 252 C-330.34257812 252.07476562 -329.68515625 252.14953125 -329.0078125 252.2265625 C-324.89745038 253.28351276 -321.5553965 255.30173857 -317.875 257.375 C-312.22676044 260.46829888 -306.99222566 262.96589547 -300.65209961 264.33178711 C-298.07170824 264.98193267 -295.7815666 265.84223824 -293.3359375 266.8828125 C-288.1641783 268.99198707 -282.95120336 270.60729189 -277.5625 272.0625 C-276.61528076 272.31926514 -275.66806152 272.57603027 -274.69213867 272.84057617 C-244.16626488 280.85976167 -212.03192005 280.97770339 -181 276 C-180.19159668 275.8767334 -179.38319336 275.7534668 -178.55029297 275.62646484 C-166.20937835 273.67294435 -154.58787226 269.66542403 -142.87207031 265.44116211 C-141.6806543 265.01327393 -140.48923828 264.58538574 -139.26171875 264.14453125 C-138.19912842 263.75628174 -137.13653809 263.36803223 -136.04174805 262.96801758 C-133.02949272 262.00938588 -130.12658774 261.43862939 -127 261 C-127 260.34 -127 259.68 -127 259 C-124.75474054 257.82333996 -122.50455858 256.6585926 -120.25 255.5 C-119.61578125 255.16613281 -118.9815625 254.83226562 -118.328125 254.48828125 C-114.87989007 252.72824467 -112.95159931 252 -109 252 C-109 251.34 -109 250.68 -109 250 C-107.56982422 248.93774414 -107.56982422 248.93774414 -105.5546875 247.78515625 C-104.81428223 247.35203125 -104.07387695 246.91890625 -103.31103516 246.47265625 C-102.50714355 246.00730469 -101.70325195 245.54195312 -100.875 245.0625 C-88.50705662 237.6958148 -77.81735534 229.04472648 -67.42578125 219.1171875 C-65 217 -65 217 -62 216 C-61.67 215.01 -61.34 214.02 -61 213 C-60.34 213 -59.68 213 -59 213 C-58.73670898 212.40719238 -58.47341797 211.81438477 -58.20214844 211.20361328 C-56.94860107 208.90578254 -55.67060585 207.52063627 -53.765625 205.7421875 C-50.04584928 202.12434979 -46.87413831 198.26107374 -43.75 194.125 C-43.19207764 193.38813965 -42.63415527 192.6512793 -42.05932617 191.89208984 C-31.73401493 178.09080062 -20.49284353 162.47853058 -15 146 C-14.34 146 -13.68 146 -13 146 C-12.9175 144.989375 -12.835 143.97875 -12.75 142.9375 C-12.25987394 139.49981029 -10.98812193 137.20783588 -9.17578125 134.2421875 C-4.62331909 125.56074804 -2.49726221 115.78590225 -1.07592773 106.16259766 C-0.49648563 102.34174053 0.33660353 98.77964814 1.51171875 95.09375 C3.03649802 90.17154844 3.76475384 85.43866337 4.1875 80.3125 C4.26500488 79.3846167 4.34250977 78.4567334 4.42236328 77.50073242 C6.04427774 55.59419335 5.25187895 34.482984 1.45751953 12.85693359 C0.77405286 8.58909633 0.35798281 4.30595347 0 0 Z " fill="#060704" transform="translate(476,201)"/>
<path d="M0 0 C5.53040103 4.42432083 5.53040103 4.42432083 8 7.4375 C11.31504269 11.32685929 14.86699826 14.91232708 18.5 18.5 C29.76913425 29.65370138 29.76913425 29.65370138 34 36 C29.3220821 40.70317979 24.64032139 45.40250808 19.95581055 50.09912109 C18.36116229 51.69881211 16.76741078 53.29939755 15.17456055 54.90087891 C12.89083749 57.19667013 10.6039561 59.48927263 8.31640625 61.78125 C7.59973282 62.50308472 6.88305939 63.22491943 6.14466858 63.96862793 C5.4840593 64.62931274 4.82345001 65.28999756 4.14282227 65.97070312 C3.266791 66.85006531 3.266791 66.85006531 2.37306213 67.74719238 C1 69 1 69 0 69 C0 46.23 0 23.46 0 0 Z " fill="#2D77E7" transform="translate(271,147)"/>
<path d="M0 0 C0.66 0 1.32 0 2 0 C3.3112793 1.33032227 3.3112793 1.33032227 4.88671875 3.25390625 C9.40348951 8.56424285 14.30946222 13.4600254 19.24487305 18.37524414 C20.83045796 19.95539644 22.41053442 21.54091976 23.99023438 23.12695312 C24.99967892 24.13573806 26.00943299 25.14421338 27.01953125 26.15234375 C27.92807861 27.05976318 28.83662598 27.96718262 29.77270508 28.90209961 C31.81516585 31.02746534 31.81516585 31.02746534 34 32 C32.5158627 35.48654476 30.53785948 37.64191072 27.8125 40.25 C24.9973201 42.99825803 22.28962656 45.74572999 19.75 48.75 C15.8730492 53.28842108 11.6165461 57.43567605 7.35449219 61.60839844 C4.29813229 64.51252568 4.29813229 64.51252568 2 68 C1.34 68 0.68 68 0 68 C0 45.56 0 23.12 0 0 Z " fill="#3079E7" transform="translate(271,293)"/>
<path d="M0 0 C2.56959745 2.31195571 5.10319105 4.65598709 7.62060547 7.02490234 C9.54513194 8.80011211 11.46246866 10.47968032 13.48388672 12.13427734 C15.73759391 14.02726806 17.63571428 15.80187805 19.52685547 18.03271484 C20.11466797 18.72494141 20.70248047 19.41716797 21.30810547 20.13037109 C21.97841797 20.92314453 22.64873047 21.71591797 23.33935547 22.53271484 C24.56138672 23.92296875 24.56138672 23.92296875 25.80810547 25.34130859 C38.99714836 40.42862814 49.15379862 56.74678141 58.33935547 74.53271484 C58.92015869 75.59558716 58.92015869 75.59558716 59.51269531 76.67993164 C60.55602553 79.01833478 60.18340729 80.16936974 59.33935547 82.53271484 C58.86626953 81.56333984 58.39318359 80.59396484 57.90576172 79.59521484 C46.79026159 56.97354668 34.10468877 36.6063155 16.33935547 18.53271484 C15.25593031 17.41040764 14.17259917 16.28800968 13.08935547 15.16552734 C-27.72987688 -26.76295604 -84.62389504 -49.64882769 -142.82910156 -50.82080078 C-201.15148578 -51.1899829 -257.2837893 -29.64569888 -299.66064453 10.53271484 C-301.33000153 12.19668682 -302.9965012 13.86352866 -304.66064453 15.53271484 C-305.57201172 16.40927734 -306.48337891 17.28583984 -307.42236328 18.18896484 C-314.60403943 25.13011223 -320.87683858 32.39271528 -326.66064453 40.53271484 C-327.07024414 41.10860352 -327.47984375 41.68449219 -327.90185547 42.27783203 C-338.76974244 57.72702966 -347.30949479 74.16100345 -354.66064453 91.53271484 C-355.63504205 88.94775535 -355.73132887 87.74961429 -354.86303711 85.08520508 C-354.21564575 83.72697632 -354.21564575 83.72697632 -353.55517578 82.34130859 C-353.07234131 81.32335205 -352.58950684 80.30539551 -352.09204102 79.2565918 C-351.55780518 78.1720874 -351.02356934 77.08758301 -350.47314453 75.97021484 C-349.92795166 74.85283936 -349.38275879 73.73546387 -348.82104492 72.58422852 C-339.53877306 53.91167387 -327.95998678 37.22732167 -313.84423828 21.90380859 C-312.33772719 20.26793698 -310.85183461 18.61291899 -309.38330078 16.94287109 C-304.76451292 11.69245412 -300.05044174 6.9784393 -294.66064453 2.53271484 C-293.53021685 1.56682566 -292.40003108 0.60065334 -291.27001953 -0.36572266 C-218.29809069 -62.01570858 -111.30320869 -69.50037531 0 0 Z " fill="#EDF1A7" transform="translate(401.66064453125,82.46728515625)"/>
<path d="M0 0 C0 0.99 0 1.98 0 3 C-2.0291042 4.63058449 -4.02502854 6.06654354 -6.1875 7.5 C-13.54797395 12.55324846 -20.25705755 18.16269211 -27 24 C-28.05246622 24.86180087 -29.1058441 25.72248965 -30.16015625 26.58203125 C-32.51352687 28.58579523 -34.47019737 30.51031205 -36.4375 32.875 C-38.62877718 35.45381746 -40.85498391 37.86266671 -43.3125 40.1875 C-62.04605371 58.71197387 -74.86455146 84.04863278 -85 108 C-85.97439752 105.41504051 -86.07068434 104.21689945 -85.20239258 101.55249023 C-84.55500122 100.19426147 -84.55500122 100.19426147 -83.89453125 98.80859375 C-83.17027954 97.28165894 -83.17027954 97.28165894 -82.43139648 95.72387695 C-81.89716064 94.63937256 -81.3629248 93.55486816 -80.8125 92.4375 C-80.26730713 91.32012451 -79.72211426 90.20274902 -79.16040039 89.05151367 C-69.87812853 70.37895903 -58.29934225 53.69460683 -44.18359375 38.37109375 C-42.67708266 36.73522214 -41.19119007 35.08020415 -39.72265625 33.41015625 C-35.10577347 28.16190488 -30.39792971 23.43340936 -25 19 C-24.41766602 18.51595703 -23.83533203 18.03191406 -23.23535156 17.53320312 C-7.94695918 4.83440017 -7.94695918 4.83440017 0 0 Z " fill="#EAEEA0" transform="translate(132,66)"/>
<path d="M0 0 C2.40920741 2.40920741 3.09519293 4.4554136 4.3125 7.63671875 C4.74820312 8.77173828 5.18390625 9.90675781 5.6328125 11.07617188 C6.08398438 12.26791016 6.53515625 13.45964844 7 14.6875 C7.45117188 15.85990234 7.90234375 17.03230469 8.3671875 18.24023438 C11.38372619 26.14303027 13.9143846 33.77068477 15.25390625 42.1484375 C15.35968491 42.8052652 15.46546356 43.4620929 15.57444763 44.13882446 C15.79571322 45.51833358 16.01493223 46.8981724 16.23217773 48.27832031 C16.56067984 50.36344675 16.89600584 52.44738734 17.23242188 54.53125 C17.84520563 58.35069747 18.4292868 62.17401825 19 66 C19.12213867 66.80622803 19.24427734 67.61245605 19.37011719 68.44311523 C20.23962084 75.02241109 20.15099134 81.63816763 20.13037109 88.2644043 C20.12503779 90.29809112 20.13033048 92.33155447 20.13671875 94.36523438 C20.12897071 102.29535679 19.81555969 110.11099268 19 118 C18.67 118 18.34 118 18 118 C18.01047363 117.01942627 18.02094727 116.03885254 18.03173828 115.02856445 C18.38967621 78.17543457 15.69474438 43.84471658 1.87915039 9.22436523 C0.56466115 5.8670361 0 3.67288871 0 0 Z " fill="#929569" transform="translate(462,163)"/>
<path d="M0 0 C0.33 0 0.66 0 1 0 C0.68618114 5.12570805 -0.42514687 9.36362318 -2.1875 14.1875 C-4.86671679 21.74273188 -6.55057345 29.47397477 -8.1875 37.3125 C-8.43717529 38.48514404 -8.68685059 39.65778809 -8.9440918 40.8659668 C-12.32478697 57.4912337 -13.29319391 73.69771066 -13.125 90.625 C-13.11493077 92.4218699 -13.10581202 94.21874539 -13.09765625 96.015625 C-13.07599937 100.3438925 -13.04169671 104.6718811 -13 109 C-13.33 109 -13.66 109 -14 109 C-15.13660197 100.78753827 -15.24063214 92.65313612 -15.25 84.375 C-15.25167175 83.5967688 -15.25334351 82.8185376 -15.25506592 82.01672363 C-15.25662561 69.87796024 -14.45335886 58.17465942 -12.35400391 46.20019531 C-11.84296903 43.02402543 -11.60462087 39.82777097 -11.3125 36.625 C-9.69314103 24.06440692 -4.74532844 11.68747098 0 0 Z " fill="#81845F" transform="translate(45,172)"/>
<path d="M0 0 C0.99 0.99 1.98 1.98 3 3 C2.67 3.33 2.34 3.66 2 4 C1.87624831 6.02414991 1.82202689 8.05257737 1.79467773 10.08032227 C1.77473251 11.38159561 1.75478729 12.68286896 1.73423767 14.02357483 C1.71725201 15.4545174 1.70037325 16.88546125 1.68359375 18.31640625 C1.66303094 19.7722992 1.64203466 21.22818609 1.62062073 22.68406677 C1.56533039 26.52272647 1.51595198 30.36144065 1.46777344 34.20019531 C1.41760909 38.11463288 1.36189664 42.02899096 1.30664062 45.94335938 C1.19897397 53.62883901 1.09754807 61.31438457 1 69 C0.67 69 0.34 69 0 69 C0 46.23 0 23.46 0 0 Z " fill="#629AEC" transform="translate(271,147)"/>
<path d="M0 0 C0.66 0.33 1.32 0.66 2 1 C-5.59 8.59 -13.18 16.18 -21 24 C-21.66 23.67 -22.32 23.34 -23 23 C-15.33333333 15.33333333 -7.66666667 7.66666667 0 0 Z " fill="#669CE8" transform="translate(109,85)"/>
<path d="M0 0 C0 3 0 3 -1.35546875 4.6484375 C-1.96003906 5.21820313 -2.56460938 5.78796875 -3.1875 6.375 C-3.82816406 6.98730469 -4.46882813 7.59960938 -5.12890625 8.23046875 C-5.74636719 8.81441406 -6.36382812 9.39835937 -7 10 C-7.86625 10.886875 -8.7325 11.77375 -9.625 12.6875 C-11.97002486 14.97081368 -14.40993691 17.00195133 -17 19 C-16.43263362 15.3491207 -15.10048851 13.79257218 -12.40234375 11.328125 C-11.68369141 10.66425781 -10.96503906 10.00039062 -10.22460938 9.31640625 C-9.46986328 8.63449219 -8.71511719 7.95257813 -7.9375 7.25 C-7.17888672 6.55261719 -6.42027344 5.85523437 -5.63867188 5.13671875 C-3.76577219 3.41694923 -1.88616736 1.70518911 0 0 Z " fill="#ECF298" transform="translate(109,83)"/>
<path d="M0 0 C1.84036681 2.76055022 2.68344114 4.74598117 3.625 7.875 C3.88539063 8.71804687 4.14578125 9.56109375 4.4140625 10.4296875 C5.00963022 13.04224458 5.10525251 15.33041371 5 18 C4.34 18 3.68 18 3 18 C1.14256832 11.88595404 -0.42765417 6.41481258 0 0 Z " fill="#6E704C" transform="translate(471,185)"/>
<path d="M0 0 C0.33 0 0.66 0 1 0 C1.20674944 5.78898419 0.59162079 10.42932723 -1 16 C-1.33 16 -1.66 16 -2 16 C-2.2358396 10.22192976 -1.86783046 5.48675196 0 0 Z " fill="#66705E" transform="translate(479,283)"/>
</svg>
