<?xml version="1.0" encoding="UTF-8"?>
<svg version="1.1" xmlns="http://www.w3.org/2000/svg" width="128" height="128">
<path d="M0 0 C-0.35521255 5.51191882 -0.68315718 10.39921803 -4 15 C-5.90619125 16.14887825 -7.85414177 17.04692102 -9.8828125 17.9609375 C-18.11612546 22.00164091 -22.74516298 29.52396725 -26.1484375 37.7890625 C-27.19277525 41.72688651 -27.34387902 45.31903757 -27.3125 49.375 C-27.30686035 50.13232422 -27.3012207 50.88964844 -27.29541016 51.66992188 C-27.07753287 61.6534476 -23.13224267 69.3146585 -16.44140625 76.7265625 C-8.16939049 84.46298012 0.8747056 86.7754309 11.93383789 86.66186523 C22.93597791 86.14690867 31.50446487 80.88734719 39 73 C39.59296875 72.11054687 40.1859375 71.22109375 40.796875 70.3046875 C43 68 43 68 46.234375 67.51171875 C47.39453125 67.56972656 48.5546875 67.62773438 49.75 67.6875 C50.92046875 67.73261719 52.0909375 67.77773437 53.296875 67.82421875 C54.18890625 67.88222656 55.0809375 67.94023438 56 68 C54.49446659 77.88114454 46.48938899 85.92297525 38.72265625 91.69140625 C26.09836811 99.85524899 12.04466738 102.03327755 -2.5859375 99.33984375 C-15.79184231 95.71684611 -26.85197507 87.78058748 -34.25 76.25 C-37.67932182 70.20652301 -41 63.04019109 -41 56 C-41.67579102 56.02094727 -42.35158203 56.04189453 -43.04785156 56.06347656 C-46.11508254 56.14671643 -49.18207582 56.19868466 -52.25 56.25 C-53.31347656 56.28351563 -54.37695312 56.31703125 -55.47265625 56.3515625 C-56.49746094 56.36445312 -57.52226563 56.37734375 -58.578125 56.390625 C-59.52075195 56.41157227 -60.46337891 56.43251953 -61.43457031 56.45410156 C-64.79277252 55.85967293 -65.9757003 54.70105908 -68 52 C-67.875 48.3125 -67.875 48.3125 -67 45 C-64.39048764 43.69524382 -62.47298715 43.88698428 -59.5546875 43.90234375 C-58.47832031 43.90556641 -57.40195312 43.90878906 -56.29296875 43.91210938 C-55.16503906 43.92048828 -54.03710938 43.92886719 -52.875 43.9375 C-51.73933594 43.94201172 -50.60367188 43.94652344 -49.43359375 43.95117188 C-46.62234362 43.96298385 -43.8111977 43.97945493 -41 44 C-40.885354 43.27627197 -40.77070801 42.55254395 -40.65258789 41.80688477 C-38.23586543 27.43715124 -31.46547034 16.98640263 -20.25 7.6875 C-14.64733066 3.71469811 -6.92861805 0 0 0 Z " fill="#000000" transform="translate(68,21)"/>
<path d="M0 0 C0.08947492 4.11584619 -0.26875365 6.12919173 -2.96484375 9.33984375 C-3.76019531 10.15582031 -4.55554688 10.97179688 -5.375 11.8125 C-11.05508997 17.77253081 -12.9882991 23.35063649 -13.375 31.5 C-12.97126771 40.31999783 -10.31885648 46.69894517 -4.19140625 53.0859375 C2.38574746 58.83068851 9.50518678 60.37993776 18.0546875 60.27734375 C25.65864794 59.56132095 30.90942621 56.33017469 36.328125 51.1953125 C39.10227377 49.21192576 41.74685905 49.60165621 45 50 C43.62491762 55.67221484 39.59157882 58.78516252 35 62 C25.64881052 67.46284715 15.67934833 68.85506525 5.10546875 66.30078125 C-5.48099431 62.44672327 -12.33232809 55.4500437 -17.8125 45.8125 C-21.37090258 37.3847044 -21.37668374 26.62111046 -18.0390625 18.12109375 C-14.87822113 11.66869952 -8.34038997 0 0 0 Z " fill="#BB9172" transform="translate(62,39)"/>
<path d="M0 0 C5.11808983 -0.63976123 8.03956748 0.72142018 12.16796875 3.5 C16.41115638 6.97416641 18.68830889 11.28552556 19.30859375 16.6875 C19.6795268 26.21935529 17.52941014 33.82445234 14.41015625 42.75 C10.88936624 52.94536387 11.53259249 62.64570063 14 73 C11.5625 72.1875 11.5625 72.1875 9 71 C8.67 70.01 8.34 69.02 8 68 C7.34 68 6.68 68 6 68 C1.59001665 55.66254657 2.06850031 43.68990444 7.05078125 31.41015625 C9.70294479 24.676062 9.57694491 17.69573768 6.9609375 11.01171875 C4.44665627 5.64309719 4.44665627 5.64309719 0 2 C0 1.34 0 0.68 0 0 Z " fill="#000000" transform="translate(60,0)"/>
<path d="M0 0 C10.05458898 1.25682362 17.31613551 7.87980014 24 15 C31 24.27681661 31 24.27681661 31 29 C26.38 29 21.76 29 17 29 C16.34 27.35 15.68 25.7 15 24 C14.34 24 13.68 24 13 24 C11.31066078 22.3563186 9.64740076 20.6857124 8 19 C4.55336458 15.99524091 1.1455588 13.92816689 -3 12 C-2.40075776 7.80530429 -1.42500059 3.99000166 0 0 Z " fill="#000000" transform="translate(93,23)"/>
<path d="M0 0 C5.44533513 0.38895251 8.12686961 2.2148953 12 6 C15.44544378 11.33867398 14.61102579 17.93167526 14 24 C12.78676327 29.15319236 10.8547943 34.04982766 9 39 C7.03860241 45.3892233 7.63980859 52.53909079 9 59 C8.01 59 7.02 59 6 59 C0.68786697 53.21914935 0.51364422 47.88895648 0.62890625 40.328125 C0.87592181 35.68465648 2.12611422 31.52441935 3.5625 27.125 C6.37515748 18.62763937 6.37515748 18.62763937 5 10 C3.80392193 7.76368465 2.53089068 5.6934586 1.05859375 3.62890625 C0 2 0 2 0 0 Z " fill="#000000" transform="translate(76,3)"/>
<path d="M0 0 C6.71234798 0.34422297 12.00146986 4.05005716 16.6875 8.66015625 C20 12.49023438 20 12.49023438 20 15 C14.07819905 15.72511848 14.07819905 15.72511848 11.22265625 13.8046875 C10.05854821 12.7540866 8.91028883 11.68569589 7.77734375 10.6015625 C5.1077126 8.1959608 2.16563104 6.67972259 -1 5 C-0.67 3.35 -0.34 1.7 0 0 Z " fill="#BB9172" transform="translate(87,37)"/>
</svg>
