<?xml version="1.0" encoding="UTF-8"?>
<svg version="1.1" xmlns="http://www.w3.org/2000/svg" width="1017" height="1017">
<path d="M0 0 C1.11713379 0.49757812 2.23426758 0.99515625 3.38525391 1.5078125 C35.05024968 15.6917742 64.93396775 32.56812088 93 53 C93.71236816 53.51804199 94.42473633 54.03608398 95.15869141 54.56982422 C108.19709848 64.0998926 120.93426404 74.09307853 132.8359375 85.01953125 C134.89991208 86.90840329 137.00290254 88.7394626 139.125 90.5625 C142.58323932 93.5693627 145.7930013 96.77182589 149.00390625 100.0390625 C150.91511619 101.91661121 152.89034635 103.64809414 154.9375 105.375 C158.93859319 108.81123298 162.36805801 112.64221551 165.84765625 116.59765625 C167.67025534 118.63195469 169.53420625 120.54434528 171.5 122.4375 C175.24849565 126.11673938 178.47366717 130.17628353 181.76171875 134.265625 C183.69441974 136.62669078 185.6844615 138.88117292 187.75 141.125 C193.95677426 148.0446315 199.4445689 155.55661528 205 163 C205.80727539 164.07797852 205.80727539 164.07797852 206.63085938 165.17773438 C221.0260162 184.48232349 233.43354036 204.89783318 245 226 C245.4429541 226.79937988 245.8859082 227.59875977 246.34228516 228.42236328 C286.15321333 300.47356674 305.29120103 384.24552874 305.1875 466.25 C305.18656342 467.21487335 305.18562683 468.1797467 305.18466187 469.17385864 C305.01922007 548.25259045 286.44635716 625.28490602 251 696 C250.47647949 697.04961914 249.95295898 698.09923828 249.41357422 699.18066406 C234.83381991 728.26920339 217.22886842 755.51248686 197 781 C196.45069824 781.69351563 195.90139648 782.38703125 195.33544922 783.1015625 C189.25852878 790.74575368 183.06990202 798.22526426 176.4140625 805.375 C175.13733952 806.7632813 173.86605421 808.15774657 172.64526367 809.59545898 C167.09029013 816.12730277 161.01752541 822.1334053 154.94848633 828.18188477 C153.06671726 830.05829475 151.19035262 831.93998969 149.31445312 833.82226562 C143.38034361 839.75996367 137.43835123 845.60349624 131 851 C129.98989487 851.87646388 128.98073221 852.75401549 127.97265625 853.6328125 C104.08545193 874.08923714 78.2001462 892.23269387 51 908 C50.34547852 908.37946777 49.69095703 908.75893555 49.01660156 909.14990234 C-6.5256848 941.12194607 -68.01874382 962.0455425 -131.4375 971.25 C-132.99585571 971.47659302 -132.99585571 971.47659302 -134.58569336 971.70776367 C-138.0530383 972.18266538 -141.52329893 972.59910627 -145 973 C-145.71181427 973.08687073 -146.42362854 973.17374146 -147.15701294 973.26324463 C-165.74351948 975.47891302 -184.3752956 975.39755524 -203.0625 975.375 C-204.29391031 975.37486216 -204.29391031 975.37486216 -205.5501976 975.37472153 C-229.93025142 975.37119252 -253.88344039 974.90758262 -278 971 C-280.48817805 970.63341341 -282.97645897 970.26752441 -285.46484375 969.90234375 C-374.58162657 956.19252542 -459.97762244 916.83877776 -529 859 C-529.5976416 858.50145508 -530.1952832 858.00291016 -530.81103516 857.48925781 C-544.1508342 846.33046258 -556.68276759 834.397236 -569 822.125 C-569.88437744 821.24529541 -570.76875488 820.36559082 -571.67993164 819.45922852 C-576.66112818 814.46572923 -581.41836855 809.36038296 -586 804 C-587.05687685 802.79666698 -588.11544909 801.5948207 -589.17578125 800.39453125 C-596.1110971 792.49415965 -602.75340823 784.45825996 -609 776 C-609.49467773 775.33129883 -609.98935547 774.66259766 -610.49902344 773.97363281 C-666.80392071 697.57221836 -702.10186944 609.35218724 -712.39111328 471.76855469 C-712.3740225 467.79596486 -712.38421133 463.82397832 -712.40142822 459.85140896 C-712.49786494 433.61152921 -710.75403427 407.83197833 -706.25 381.9375 C-706.06158035 380.82949036 -706.06158035 380.82949036 -705.86935425 379.69909668 C-697.29304628 329.47585363 -680.69950761 281.5266671 -658 236 C-657.54512207 235.08621582 -657.09024414 234.17243164 -656.62158203 233.23095703 C-637.70128374 195.50787783 -613.14735301 159.51978383 -584.37890625 128.58984375 C-583.11559665 127.21451655 -581.8580556 125.83275147 -580.6496582 124.40893555 C-575.09320707 117.87565943 -569.01897387 111.86803826 -562.94848633 105.81811523 C-561.06671726 103.94170525 -559.19035262 102.06001031 -557.31445312 100.17773438 C-551.38034361 94.24003633 -545.43835123 88.39650376 -539 83 C-537.98989487 82.12353612 -536.98073221 81.24598451 -535.97265625 80.3671875 C-527.2435584 72.89179901 -518.19676053 65.88903116 -509 59 C-508.34708984 58.50967285 -507.69417969 58.0193457 -507.02148438 57.51416016 C-481.90680349 38.7038029 -455.06071896 23.01498254 -427 9 C-425.62448975 8.30632324 -425.62448975 8.30632324 -424.22119141 7.59863281 C-336.48173305 -36.46001301 -233.78476281 -50.56210048 0 0 Z " fill="#FEFEFE" transform="translate(712,42)"/>
<path d="M0 0 C6.6 0 13.2 0 20 0 C25.12839918 10.09228114 29.98685996 20.22685363 34.52813721 30.59442139 C36.23621086 34.49275113 37.95775728 38.38511886 39.6796875 42.27734375 C40.0330014 43.07634094 40.38631531 43.87533813 40.75033569 44.69854736 C45.26838654 54.89370803 49.9282802 65.02416488 54.59570312 75.15161133 C57.61096941 81.70261902 60.59253048 88.2659471 63.4609375 94.8828125 C63.95126465 96.01348145 64.4415918 97.14415039 64.94677734 98.30908203 C66 101 66 101 66 103 C59.4 103 52.8 103 46 103 C42.7 95.41 39.4 87.82 36 80 C18.84 79.67 1.68 79.34 -16 79 C-16.99 81.97 -17.98 84.94 -19 88 C-20.19305311 90.72077422 -21.39904647 93.39073181 -22.6875 96.0625 C-23.780625 98.351875 -24.87375 100.64125 -26 103 C-32.27 103 -38.54 103 -45 103 C-44.29012287 99.45061433 -43.78168274 97.1710836 -42.34863281 94.03710938 C-42.00978561 93.28912582 -41.67093842 92.54114227 -41.32182312 91.77049255 C-40.95265274 90.96966751 -40.58348236 90.16884247 -40.203125 89.34375 C-39.81804276 88.49720352 -39.43296051 87.65065704 -39.03620911 86.77845764 C-37.7788376 84.01680257 -36.51435225 81.25846509 -35.25 78.5 C-34.37756931 76.58613157 -33.50574711 74.67198565 -32.63452148 72.75756836 C-30.89532694 68.9363634 -29.15416815 65.11606392 -27.41162109 61.29638672 C-24.2671591 54.3976286 -21.15905321 47.48286762 -18.0625 40.5625 C-17.55726807 39.43432861 -17.05203613 38.30615723 -16.53149414 37.14379883 C-10.99643324 24.77347089 -5.49579225 12.3878128 0 0 Z " fill="#151515" transform="translate(205,460)"/>
<path d="M0 0 C2.85954091 2.14465568 5.29802021 4.46628611 7.75 7.0625 C6.28374144 10.41070898 4.41341553 12.75516359 1.875 15.375 C1.19695312 16.09300781 0.51890625 16.81101562 -0.1796875 17.55078125 C-2.25 19.0625 -2.25 19.0625 -4.2421875 18.97265625 C-7.32843757 17.57363628 -9.90802516 15.61743793 -12.640625 13.6328125 C-18.89340075 9.86991452 -24.74004655 8.50041553 -32 8.5625 C-32.7842334 8.56822021 -33.5684668 8.57394043 -34.37646484 8.57983398 C-44.15977539 8.87772646 -52.37806914 12.24405553 -59.49609375 19.03515625 C-67.99493943 28.858989 -68.98600521 38.50028435 -68.43359375 51.03173828 C-68.028169 55.51621049 -66.45879912 59.19344459 -64.25 63.0625 C-63.92257812 63.69285156 -63.59515625 64.32320312 -63.2578125 64.97265625 C-59.28650703 71.56734235 -52.08763435 75.66447156 -45.01171875 78.2421875 C-40.41811056 79.24390891 -36.12369498 79.3927642 -31.4375 79.375 C-30.17969727 79.39916992 -30.17969727 79.39916992 -28.89648438 79.42382812 C-22.13100253 79.42902834 -18.13876005 78.12912801 -11.25 76.0625 C-11.25 65.1725 -11.25 54.2825 -11.25 43.0625 C-4.98 43.0625 1.29 43.0625 7.75 43.0625 C7.98015013 48.93900002 8.17885762 54.79982113 8.29931641 60.67724609 C8.34951561 62.67387909 8.41769572 64.67014603 8.50439453 66.66552734 C9.20479834 83.20329732 9.20479834 83.20329732 5.734375 87.63842773 C3.09296467 89.26647785 0.72576206 90.20916049 -2.25 91.0625 C-3.52864238 91.60458312 -4.80506816 92.15195763 -6.078125 92.70703125 C-7.20734375 93.09246094 -8.3365625 93.47789062 -9.5 93.875 C-10.63953125 94.27332031 -11.7790625 94.67164063 -12.953125 95.08203125 C-26.51443425 99.11507464 -45.50964062 99.58459176 -58.25 93.0625 C-59.54357422 92.40894531 -59.54357422 92.40894531 -60.86328125 91.7421875 C-74.17744103 84.34767691 -82.53278391 74.01067321 -87.5234375 59.66796875 C-91.63162986 44.93590261 -89.29449754 30.884522 -82.625 17.375 C-75.43327706 5.02321584 -64.08808055 -2.89773968 -50.6875 -7.375 C-33.3279418 -11.83504153 -15.34151006 -9.14590023 0 0 Z " fill="#181818" transform="translate(366.25,466.9375)"/>
<path d="M0 0 C2.85072508 2.15201796 5.60390947 4.34288285 8 7 C8 7.66 8 8.32 8 9 C6.35546875 10.62109375 6.35546875 10.62109375 4.1875 12.4375 C1.68897282 14.54463676 -0.7242056 16.65241398 -3 19 C-7.06787318 17.60166859 -10.45200597 15.54602384 -14.03515625 13.21875 C-22.36752148 8.05036441 -32.42040958 7.93948573 -42 9 C-52.57734523 11.68650112 -60.38496834 17.63667841 -65.9921875 26.91015625 C-70.49950512 36.25672573 -70.36873993 47.48268389 -67.5625 57.375 C-64.10090953 66.33369365 -57.57532793 72.77098676 -49.140625 77.16015625 C-43.66692982 79.30768264 -38.11596236 79.24777737 -32.3125 79.3125 C-31.46494141 79.34150391 -30.61738281 79.37050781 -29.74414062 79.40039062 C-22.42211625 79.47277566 -19.42766575 77.9710663 -12 75 C-11.67 64.44 -11.34 53.88 -11 43 C-5.06 43 0.88 43 7 43 C7.27650622 48.86039576 7.51471882 54.69807384 7.65917969 60.55981445 C7.71937111 62.54985284 7.80115565 64.53936374 7.90527344 66.52758789 C8.74678611 83.01546119 8.74678611 83.01546119 4.51928711 87.81835938 C1.38315058 89.69353976 -1.51631659 90.91924696 -5 92 C-5.70141113 92.28141846 -6.40282227 92.56283691 -7.12548828 92.8527832 C-8.83984375 93.5234375 -8.83984375 93.5234375 -11.9375 94.375 C-12.97777344 94.67148437 -14.01804687 94.96796875 -15.08984375 95.2734375 C-29.83945011 98.95588956 -47.36610769 99.30061168 -61 92 C-64.51908283 89.86664532 -67.77213149 87.54766634 -71 85 C-71.886875 84.401875 -72.77375 83.80375 -73.6875 83.1875 C-82.71571114 74.64730027 -88.88626718 62.38326588 -89.2734375 49.9375 C-89.69771248 32.40326476 -87.11169353 19.81389447 -74.75 6.59375 C-68.8278315 0.89935722 -62.58446307 -2.89046981 -55 -6 C-54.17371094 -6.3403125 -53.34742188 -6.680625 -52.49609375 -7.03125 C-35.58387714 -12.74805562 -14.8988154 -9.40166627 0 0 Z " fill="#161616" transform="translate(481,467)"/>
<path d="M0 0 C2.85072508 2.15201796 5.60390947 4.34288285 8 7 C8 7.66 8 8.32 8 9 C6.35546875 10.62109375 6.35546875 10.62109375 4.1875 12.4375 C1.68897282 14.54463676 -0.7242056 16.65241398 -3 19 C-7.06787318 17.60166859 -10.45200597 15.54602384 -14.03515625 13.21875 C-22.36752148 8.05036441 -32.42040958 7.93948573 -42 9 C-52.57734523 11.68650112 -60.38496834 17.63667841 -65.9921875 26.91015625 C-70.49950512 36.25672573 -70.36873993 47.48268389 -67.5625 57.375 C-64.10090953 66.33369365 -57.57532793 72.77098676 -49.140625 77.16015625 C-43.66692982 79.30768264 -38.11596236 79.24777737 -32.3125 79.3125 C-31.46494141 79.34150391 -30.61738281 79.37050781 -29.74414062 79.40039062 C-22.42211625 79.47277566 -19.42766575 77.9710663 -12 75 C-11.67 64.44 -11.34 53.88 -11 43 C-5.06 43 0.88 43 7 43 C7.27650622 48.86039576 7.51471882 54.69807384 7.65917969 60.55981445 C7.71937111 62.54985284 7.80115565 64.53936374 7.90527344 66.52758789 C8.74678611 83.01546119 8.74678611 83.01546119 4.51928711 87.81835938 C1.38315058 89.69353976 -1.51631659 90.91924696 -5 92 C-5.70141113 92.28141846 -6.40282227 92.56283691 -7.12548828 92.8527832 C-8.83984375 93.5234375 -8.83984375 93.5234375 -11.9375 94.375 C-12.97777344 94.67148437 -14.01804687 94.96796875 -15.08984375 95.2734375 C-29.83945011 98.95588956 -47.36610769 99.30061168 -61 92 C-64.51908283 89.86664532 -67.77213149 87.54766634 -71 85 C-71.886875 84.401875 -72.77375 83.80375 -73.6875 83.1875 C-82.71571114 74.64730027 -88.88626718 62.38326588 -89.2734375 49.9375 C-89.69771248 32.40326476 -87.11169353 19.81389447 -74.75 6.59375 C-68.8278315 0.89935722 -62.58446307 -2.89046981 -55 -6 C-54.17371094 -6.3403125 -53.34742188 -6.680625 -52.49609375 -7.03125 C-35.58387714 -12.74805562 -14.8988154 -9.40166627 0 0 Z " fill="#161616" transform="translate(142,467)"/>
<path d="M0 0 C2.05078125 0.03255208 4.1015625 0.06510417 6.15234375 0.09765625 C11.02897934 9.70173933 15.7269077 19.35399043 20.13870239 29.18127441 C21.72571342 32.71532925 23.32424996 36.24417129 24.921875 39.7734375 C25.2583757 40.51729706 25.5948764 41.26115662 25.9415741 42.02755737 C30.15169373 51.32282538 34.43346351 60.58505265 38.71484375 69.84765625 C39.09388855 70.6679129 39.47293335 71.48816956 39.86346436 72.33328247 C40.60369943 73.93505874 41.34405322 75.53678015 42.08453369 77.13844299 C42.7894684 78.66352322 43.49402819 80.18877681 44.19818115 81.71421814 C45.7920436 85.16541856 47.39212884 88.6132942 49.01123047 92.05273438 C49.56182129 93.22771484 50.11241211 94.40269531 50.6796875 95.61328125 C51.16042725 96.63196289 51.64116699 97.65064453 52.13647461 98.70019531 C53.15234375 101.09765625 53.15234375 101.09765625 53.15234375 103.09765625 C50.51234375 103.09765625 47.87234375 103.09765625 45.15234375 103.09765625 C43.35804089 99.36975242 41.56736679 95.64011676 39.77734375 91.91015625 C39.26945313 90.85505859 38.7615625 89.79996094 38.23828125 88.71289062 C37.7484375 87.69130859 37.25859375 86.66972656 36.75390625 85.6171875 C36.30354004 84.67979736 35.85317383 83.74240723 35.38916016 82.77661133 C34.2248275 80.25465669 33.18397625 77.6767375 32.15234375 75.09765625 C1.95734375 74.60265625 1.95734375 74.60265625 -28.84765625 74.09765625 C-29.17765625 75.74765625 -29.50765625 77.39765625 -29.84765625 79.09765625 C-30.63173369 81.03169122 -31.47124731 82.94376577 -32.3515625 84.8359375 C-33.09116211 86.43598633 -33.09116211 86.43598633 -33.84570312 88.06835938 C-34.36197266 89.17115234 -34.87824219 90.27394531 -35.41015625 91.41015625 C-35.93029297 92.53228516 -36.45042969 93.65441406 -36.98632812 94.81054688 C-38.26864999 97.57518576 -39.55590472 100.33741391 -40.84765625 103.09765625 C-43.48765625 103.09765625 -46.12765625 103.09765625 -48.84765625 103.09765625 C-46.60057435 95.60738324 -43.43412961 88.67182373 -40.06903076 81.63098145 C-38.37688134 78.08889752 -36.70264454 74.5383574 -35.02734375 70.98828125 C-34.68067657 70.25446228 -34.3340094 69.52064331 -33.97683716 68.7645874 C-30.31347145 60.99450723 -26.76271507 53.17448874 -23.22265625 45.34765625 C-18.62999964 35.20552702 -14.01875175 25.07269783 -9.33966064 14.97009277 C-8.76559384 13.73030246 -8.19229991 12.49015397 -7.61981201 11.24963379 C-6.83606489 9.55208492 -6.0489847 7.85607607 -5.26171875 6.16015625 C-4.81779785 5.20238281 -4.37387695 4.24460937 -3.91650391 3.2578125 C-2.36642207 0.12507516 -2.36642207 0.12507516 0 0 Z " fill="#1A1A1A" transform="translate(737.84765625,459.90234375)"/>
<path d="M0 0 C2.31 0 4.62 0 7 0 C7.32049316 0.57105469 7.64098633 1.14210938 7.97119141 1.73046875 C14.75093518 13.79826877 21.60754921 25.8158937 28.60131836 37.76098633 C33.8122113 46.66338171 38.96958583 55.59589515 44.11474609 64.53637695 C44.70980957 65.56980225 45.30487305 66.60322754 45.91796875 67.66796875 C46.44156982 68.57828857 46.9651709 69.4886084 47.50463867 70.42651367 C48.53780116 72.20456523 49.60273695 73.9643965 50.69262695 75.70825195 C52 78 52 78 52 80 C52.66 80 53.32 80 54 80 C54.20238281 79.23171875 54.40476562 78.4634375 54.61328125 77.671875 C56.56255336 72.51042208 59.36602701 67.97903407 62.1875 63.25 C63.46292098 61.08894367 64.73763673 58.927471 66.01171875 56.765625 C66.67091309 55.64994141 67.33010742 54.53425781 68.00927734 53.38476562 C70.57772337 49.01771439 73.11032778 44.63067335 75.63598633 40.23876953 C76.87778556 38.08111287 78.12371531 35.92582814 79.3737793 33.77294922 C82.59178244 28.22634288 85.74684735 22.65586605 88.8125 17.0234375 C89.43189453 15.90710938 90.05128906 14.79078125 90.68945312 13.640625 C91.87116683 11.50920611 93.03239044 9.36626022 94.16992188 7.2109375 C94.70166016 6.2621875 95.23339844 5.3134375 95.78125 4.3359375 C96.4628418 3.07595947 96.4628418 3.07595947 97.15820312 1.79052734 C99 0 99 0 106 0 C106 34.32 106 68.64 106 104 C103.36 104 100.72 104 98 104 C97.67 75.62 97.34 47.24 97 18 C86.46658082 36.25281412 86.46658082 36.25281412 75.95532227 54.51806641 C69.10632022 66.42875477 62.12658218 78.25332934 55 90 C52.71411133 89.8137207 52.71411133 89.8137207 50 89 C48.2175293 86.85229492 48.2175293 86.85229492 46.57421875 83.98046875 C45.95039307 82.90893555 45.32656738 81.83740234 44.68383789 80.73339844 C44.01807622 79.55161009 43.35263882 78.36963901 42.6875 77.1875 C41.98769374 75.97214744 41.28641582 74.75764119 40.58374023 73.54394531 C38.74092181 70.35141629 36.91837846 67.14778801 35.10119629 63.94061279 C33.31335617 60.78994344 31.51162114 57.64724693 29.7109375 54.50390625 C27.69019078 50.97531854 25.67295344 47.44497731 23.66870117 43.90698242 C18.90955338 35.51464838 13.96856371 27.28093952 9 19 C8.67 47.05 8.34 75.1 8 104 C5.36 104 2.72 104 0 104 C0 69.68 0 35.36 0 0 Z " fill="#212121" transform="translate(564,459)"/>
<path d="M0 0 C23.1 0 46.2 0 70 0 C70 2.31 70 4.62 70 7 C49.54 7 29.08 7 8 7 C8 20.53 8 34.06 8 48 C26.15 48 44.3 48 63 48 C63 50.31 63 52.62 63 55 C44.85 55 26.7 55 8 55 C8 68.86 8 82.72 8 97 C29.12 97 50.24 97 72 97 C72 99.31 72 101.62 72 104 C48.24 104 24.48 104 0 104 C0 69.68 0 35.36 0 0 Z " fill="#202020" transform="translate(893,459)"/>
<path d="M0 0 C6.27 0 12.54 0 19 0 C19 34.32 19 68.64 19 104 C12.73 104 6.46 104 0 104 C0 69.68 0 35.36 0 0 Z " fill="#161616" transform="translate(513,459)"/>
<path d="M0 0 C3.57557977 2.38371985 4.5632889 4.84983762 6.22265625 8.640625 C6.67570633 9.64696236 6.67570633 9.64696236 7.13790894 10.67362976 C8.12099523 12.86217572 9.09183687 15.05591953 10.0625 17.25 C10.73363531 18.75109979 11.4055952 20.25183118 12.07836914 21.75219727 C13.42330022 24.75331681 14.76416674 27.75620436 16.10253906 30.76025391 C17.78169807 34.52191281 19.48925236 38.26933049 21.2109375 42.01171875 C21.67749756 43.0265332 22.14405762 44.04134766 22.62475586 45.08691406 C23.4829524 46.95046303 24.34306189 48.81313256 25.20532227 50.67480469 C25.57971436 51.49239258 25.95410645 52.30998047 26.33984375 53.15234375 C26.66331787 53.85351318 26.98679199 54.55468262 27.32006836 55.27709961 C28 57 28 57 28 59 C10.18 59 -7.64 59 -26 59 C-24.03009685 53.09029056 -22.05663558 47.59073357 -19.453125 41.9921875 C-18.95168976 40.89935959 -18.95168976 40.89935959 -18.44012451 39.78445435 C-17.38110163 37.47927041 -16.31565456 35.17712442 -15.25 32.875 C-14.55166429 31.35696354 -13.85374493 29.83873546 -13.15625 28.3203125 C-8.80722031 18.86327482 -4.41125477 9.42814601 0 0 Z " fill="#F8F8F8" transform="translate(739,469)"/>
<path d="M0 0 C26.73 0 53.46 0 81 0 C81 1.98 81 3.96 81 6 C68.79 6 56.58 6 44 6 C44 38.01 44 70.02 44 103 C41.69 103 39.38 103 37 103 C37 70.99 37 38.98 37 6 C24.79 6 12.58 6 0 6 C0 4.02 0 2.04 0 0 Z " fill="#131313" transform="translate(793,460)"/>
<path d="M0 0 C2.24103834 3.36155751 3.79485684 6.86883142 5.40625 10.5546875 C5.89430115 11.66253098 5.89430115 11.66253098 6.39221191 12.79275513 C7.07936588 14.3539312 7.76516566 15.91570394 8.44970703 17.47802734 C9.49356533 19.86031483 10.54131831 22.24085727 11.58984375 24.62109375 C12.25804144 26.14052434 12.92601747 27.66005243 13.59375 29.1796875 C13.90526001 29.88817841 14.21677002 30.59666931 14.53771973 31.32662964 C15.36473202 33.2150273 16.18274128 35.10736078 17 37 C17.40025391 37.92441895 17.80050781 38.84883789 18.21289062 39.80126953 C19 42 19 42 19 45 C6.46 45 -6.08 45 -19 45 C-17.00275827 39.0082748 -14.95491468 33.26980253 -12.4609375 27.5 C-11.97145126 26.35736694 -11.97145126 26.35736694 -11.47207642 25.19165039 C-10.78976635 23.60113983 -10.10569873 22.01138215 -9.41992188 20.42236328 C-8.36644217 17.98016102 -7.31956489 15.53520315 -6.2734375 13.08984375 C-5.60715517 11.53889733 -4.94050217 9.98811009 -4.2734375 8.4375 C-3.95990326 7.7053125 -3.64636902 6.973125 -3.32333374 6.21875 C-1.11555684 1.11555684 -1.11555684 1.11555684 0 0 Z " fill="#FAFAFA" transform="translate(215,479)"/>
</svg>
