<?xml version="1.0" encoding="UTF-8"?>
<svg version="1.1" xmlns="http://www.w3.org/2000/svg" width="140" height="140">
<path d="M0 0 C0.79642914 -0.00274933 1.59285828 -0.00549866 2.41342163 -0.0083313 C3.27800995 -0.00114075 4.14259827 0.0060498 5.03338623 0.01345825 C5.95080597 0.0131662 6.86822571 0.01287415 7.81344604 0.01257324 C10.84356163 0.01396574 13.87343083 0.02952332 16.90350342 0.04519653 C19.00528835 0.04892694 21.10707502 0.05177378 23.2088623 0.05377197 C28.73924567 0.06140621 34.26952389 0.08105298 39.79986572 0.10317993 C45.44377215 0.12364282 51.08769558 0.13277464 56.73162842 0.14285278 C67.80459126 0.164299 78.8774761 0.1984325 89.95037842 0.24050903 C90.06773718 4.21942256 90.13801495 8.19788364 90.20037842 12.17800903 C90.23389404 13.29498169 90.26740967 14.41195435 90.30194092 15.56277466 C90.41358502 25.08043427 88.38225183 32.64854601 81.7230835 39.68313599 C73.17944154 47.18897431 63.808314 46.99314847 53.027771 46.83743286 C50.38956244 46.80303099 47.75469745 46.81683631 45.11639404 46.83621216 C33.7302844 46.82672065 25.15984211 45.86208739 16.45819092 37.88894653 C13.33679379 34.47643464 10.95037842 30.9819342 10.95037842 26.24050903 C9.43057373 26.31011841 9.43057373 26.31011841 7.88006592 26.38113403 C6.5285331 26.41867661 5.17696814 26.4550741 3.82537842 26.49050903 C3.16022217 26.52402466 2.49506592 26.55754028 1.80975342 26.59207153 C-3.3266699 26.69278572 -6.15677689 25.54422886 -10.04962158 22.24050903 C-12.97164775 18.03481819 -12.6861151 13.16169066 -12.04962158 8.24050903 C-9.27196503 2.68519593 -6.270346 -0.01676563 0 0 Z M-3.04962158 10.24050903 C-4.35775439 13.107935 -4.35775439 13.107935 -3.23712158 15.36550903 C-2.18106957 17.38992945 -2.18106957 17.38992945 -0.04962158 18.24050903 C1.65740577 18.31046917 3.36705845 18.32491057 5.07537842 18.30300903 C6.68412842 18.28238403 8.29287842 18.26175903 9.95037842 18.24050903 C9.95037842 14.94050903 9.95037842 11.64050903 9.95037842 8.24050903 C3.11231308 7.7786252 3.11231308 7.7786252 -3.04962158 10.24050903 Z " fill="#EE4D2A" transform="translate(26.04962158203125,65.75949096679688)"/>
<path d="M0 0 C3.89345417 2.02096668 6.04917164 4.33689473 7.90625 8.26953125 C6.91625 9.75453125 6.91625 9.75453125 5.90625 11.26953125 C1.26330045 10.64210564 1.26330045 10.64210564 -0.53125 8.76953125 C-2.90306131 6.4925924 -4.86357812 6.39873813 -8.09375 6.26953125 C-11.62281067 7.87364973 -12.92147908 9.01112487 -15.09375 12.26953125 C-15.58692401 16.050532 -15.38405409 17.7856911 -13.40625 21.08203125 C-10.77813995 23.56808129 -9.69616706 24.26953125 -6.09375 24.26953125 C-1.04613113 22.20523894 2.20572382 19.37681375 5.90625 15.51953125 C6.430979 14.98529541 6.95570801 14.45105957 7.49633789 13.90063477 C10.23128933 11.09338636 12.84944636 8.23258917 15.34375 5.20703125 C18.55764634 1.52280862 20.5088864 -0.43631371 25.453125 -1.04296875 C30.02540259 -1.24068886 33.1659904 -1.08040965 37.34375 0.89453125 C41.1044284 4.38003806 43.58115565 6.85454468 44.2890625 12.11328125 C44.46721164 16.91143148 44.31972955 20.37895991 42.28125 24.76953125 C37.98626626 29.29056677 34.82687648 31.51139492 28.53125 31.89453125 C23.36924632 31.70412947 20.25765682 30.28764204 16.37109375 26.93359375 C14.46991687 24.77385682 13.82388245 23.15239562 13.90625 20.26953125 C14.90625 19.26953125 14.90625 19.26953125 17.21875 18.95703125 C20.71416258 19.36347457 21.46632297 20.82960422 23.90625 23.26953125 C27.53188666 24.42664933 29.16887402 24.60470215 32.65625 23.01953125 C35.59451605 20.73421321 36.79635455 19.11206302 37.28125 15.39453125 C36.80832817 11.453516 35.81397417 9.94769825 32.90625 7.26953125 C30.00273876 6.10504244 30.00273876 6.10504244 26.90625 6.26953125 C22.74555557 8.34642847 19.77706945 11.16005992 16.53125 14.45703125 C15.81171143 15.1840625 15.81171143 15.1840625 15.07763672 15.92578125 C12.27660879 18.78047593 9.61364683 21.7170929 7.03125 24.76953125 C3.7730914 28.50188195 1.49536103 30.95533805 -3.63671875 31.578125 C-8.21098929 31.78183745 -11.35180128 31.62027065 -15.53125 29.64453125 C-19.2919284 26.15902444 -21.76865565 23.68451782 -22.4765625 18.42578125 C-22.65471164 13.62763102 -22.50722955 10.16010259 -20.46875 5.76953125 C-14.5324421 -0.47921391 -8.41141583 -2.93457977 0 0 Z " fill="#EE4D2A" transform="translate(66.09375,26.73046875)"/>
</svg>
